<svg width="934" height="1316" viewBox="0 0 934 1316" fill="none" xmlns="http://www.w3.org/2000/svg">
<path d="M1477.73 217.533L1504.92 169.969L1477.73 122.381L1505 74.9439L1477.88 27.7595L1504.9 -19.4881L1474.92 -72.6085L1415.64 -73L1387.9 -24.8052H1333.2L1306.2 21.9246H1252.02L1224.51 70.1194H1169.72L1142.81 116.811H1093.77L1066.73 70.1194H1006.45L979.418 116.811L930.375 116.773L903.619 70.1194H842.833L816.026 116.773L762.122 116.811L734.33 164.968L679.643 165.006L652.634 211.66H598.477L568.337 264.717L595.459 312.154L570.938 354.754L516.238 354.779L489.229 401.433L435.375 401.471L407.533 449.641L352.77 449.679L325.837 496.333L271.592 496.358L241.439 549.617L268.663 596.827L241.3 644.175L268.663 691.714L241.527 739.365L268.663 786.6L244.015 829.187L190.287 829.225L162.445 877.382L107.67 877.42L80.749 924.074L30.2919 924.112L0.126269 977.359L27.3625 1024.57L0 1071.92L32.6153 1119.96L85.6988 1120.53L113.364 1072.8L162.773 1074.22L192.699 1123.56L162.773 1166.42L195.111 1218.48H244.141L271.857 1266.55L331.216 1266.68L358.68 1218.48L413.506 1218.64L443.065 1167.21L415.665 1119.45L440.186 1076.91H488.901L516.364 1123.58L576.645 1123.31L603.578 1076.87L657.811 1076.58L685.287 1028.67L740.189 1028.71L766.983 981.981H821.216L848.679 933.786H897.722L925.4 982.019L984.481 981.981L1014.62 928.911L987.701 881.752L1012.07 838.938L1061.11 838.9L1088.59 887.094H1148.1L1175.46 838.9H1230.19L1259.84 787.143L1232.64 739.908L1259.9 692.332L1232.64 645.287L1259.84 597.724L1232.64 550.135L1259.9 502.698L1259.37 501.763L1259.71 501.157L1233.22 454.756L1258.13 411.183L1306.2 411.146L1333.69 459.34H1393.19L1420.56 411.146H1475.28L1504.92 359.402L1477.73 312.154L1505 264.578L1477.73 217.533Z" fill="#00AF9D"/>
<path d="M558.094 1149.93L537.664 1204.62L543.978 1207.02L564.42 1152.33L558.094 1149.93Z" fill="#DCDEE0"/>
<path d="M573.767 1178.79L562.555 1190.03L567.366 1194.87L583.402 1178.79L567.366 1162.7L562.555 1167.53L573.767 1178.79Z" fill="#DCDEE0"/>
<path d="M540.105 1190.03L528.88 1178.77L540.105 1167.53L535.269 1162.7L519.258 1178.77L535.269 1194.87L540.105 1190.03Z" fill="#DCDEE0"/>
<path d="M577.175 1221.1L601.696 1178.51L577.175 1135.93H528.119L503.598 1178.51L528.119 1221.1H577.175ZM532.538 1143.55H572.755L592.882 1178.51L572.755 1213.46H532.538L512.424 1178.51L532.538 1143.55Z" fill="#DCDEE0"/>
<path d="M558.094 1244.82L537.664 1299.51L543.978 1301.91L564.42 1247.22L558.094 1244.82Z" fill="#DCDEE0"/>
<path d="M573.767 1273.68L562.555 1284.93L567.366 1289.76L583.402 1273.68L567.366 1257.59L562.555 1262.41L573.767 1273.68Z" fill="#DCDEE0"/>
<path d="M540.105 1284.93L528.88 1273.65L540.105 1262.41L535.269 1257.59L519.258 1273.65L535.269 1289.73L540.105 1284.93Z" fill="#DCDEE0"/>
<path d="M577.175 1315.99L601.696 1273.4L577.175 1230.81H528.119L503.598 1273.4L528.119 1315.99H577.175ZM532.538 1238.44H572.755L592.882 1273.4L572.755 1308.35H532.538L512.424 1273.4L532.538 1238.44Z" fill="#DCDEE0"/>
<path d="M639.794 1101.74L619.363 1156.42L625.677 1158.82L646.12 1104.14L639.794 1101.74Z" fill="#DCDEE0"/>
<path d="M655.463 1130.6L644.25 1141.84L649.061 1146.67L665.11 1130.6L649.061 1114.51L644.25 1119.33L655.463 1130.6Z" fill="#DCDEE0"/>
<path d="M621.825 1141.84L610.6 1130.57L621.825 1119.33L616.989 1114.51L600.953 1130.6L616.964 1146.7L621.825 1141.84Z" fill="#DCDEE0"/>
<path d="M658.87 1172.91L683.391 1130.32L658.87 1087.73H609.814L585.293 1130.32L609.814 1172.91H658.87ZM614.246 1095.36H654.463L674.666 1130.32L654.463 1165.26H614.246L594.144 1130.32L614.246 1095.36Z" fill="#DCDEE0"/>
<path d="M639.794 1196.62L619.363 1251.31L625.677 1253.71L646.12 1199.02L639.794 1196.62Z" fill="#DCDEE0"/>
<path d="M655.463 1225.48L644.25 1236.74L649.061 1241.56L665.11 1225.48L649.061 1209.39L644.25 1214.22L655.463 1225.48Z" fill="#DCDEE0"/>
<path d="M621.824 1236.69L610.598 1225.41L621.824 1214.17L616.988 1209.34L600.977 1225.41L616.988 1241.51L621.824 1236.69Z" fill="#DCDEE0"/>
<path d="M658.87 1267.79L683.391 1225.21L658.87 1182.62H609.814L585.293 1225.21L609.814 1267.79H658.87ZM614.234 1190.25H654.45L674.653 1225.21L654.45 1260.15H614.246L594.144 1225.21L614.234 1190.25Z" fill="#DCDEE0"/>
<path d="M721.489 1052.52L701.059 1107.21L707.372 1109.61L727.815 1054.92L721.489 1052.52Z" fill="#DCDEE0"/>
<path d="M737.158 1081.34L725.945 1092.58L730.756 1097.41L746.83 1081.34L730.782 1065.25L725.971 1070.08L737.158 1081.34Z" fill="#DCDEE0"/>
<path d="M703.495 1092.62L692.27 1081.35L703.495 1070.11L698.659 1065.29L682.648 1081.34L698.659 1097.43L703.495 1092.62Z" fill="#DCDEE0"/>
<path d="M740.519 1123.69L765.04 1081.1L740.519 1038.51H691.526L666.992 1081.1L691.526 1123.69H740.519ZM695.883 1046.14H736.099L756.302 1081.1L736.099 1116.05H695.883L675.78 1081.1L695.883 1046.14Z" fill="#DCDEE0"/>
<path d="M721.489 1149.93L701.059 1204.62L707.372 1207.02L727.815 1152.33L721.489 1149.93Z" fill="#DCDEE0"/>
<path d="M737.158 1178.79L725.945 1190.03L730.756 1194.87L746.805 1178.79L730.756 1162.7L725.945 1167.53L737.158 1178.79Z" fill="#DCDEE0"/>
<path d="M703.495 1190.03L692.27 1178.77L703.495 1167.53L698.659 1162.7L682.648 1178.77L698.659 1194.87L703.495 1190.03Z" fill="#DCDEE0"/>
<path d="M740.519 1221.1L765.04 1178.51L740.519 1135.93H691.526L666.992 1178.51L691.526 1221.1H740.519ZM695.883 1143.55H736.099L756.302 1178.51L736.099 1213.46H695.883L675.78 1178.51L695.883 1143.55Z" fill="#DCDEE0"/>
<path d="M721.489 1244.82L701.059 1299.51L707.372 1301.91L727.815 1247.22L721.489 1244.82Z" fill="#DCDEE0"/>
<path d="M737.158 1273.68L725.945 1284.93L730.756 1289.76L746.805 1273.68L730.756 1257.59L725.945 1262.41L737.158 1273.68Z" fill="#DCDEE0"/>
<path d="M703.495 1284.93L692.27 1273.65L703.495 1262.41L698.659 1257.59L682.648 1273.65L698.659 1289.76L703.495 1284.93Z" fill="#DCDEE0"/>
<path d="M740.519 1315.99L765.04 1273.4L740.519 1230.81H691.526L666.992 1273.4L691.526 1315.99H740.519ZM695.883 1238.44H736.099L756.302 1273.4L736.099 1308.35H695.883L675.78 1273.4L695.883 1238.44Z" fill="#DCDEE0"/>
<path d="M803.184 1003.04L782.754 1057.72L789.067 1060.12L809.51 1005.44L803.184 1003.04Z" fill="#DCDEE0"/>
<path d="M818.803 1031.92L807.59 1043.16L812.401 1047.99L828.45 1031.92L812.489 1015.83L807.678 1020.66L818.803 1031.92Z" fill="#DCDEE0"/>
<path d="M785.191 1043.16L773.965 1031.9L785.191 1020.66L780.367 1015.83L764.344 1031.9L780.367 1047.99L785.191 1043.16Z" fill="#DCDEE0"/>
<path d="M822.264 1074.23L846.785 1031.64L822.264 989.043H773.221L748.699 1031.64L773.221 1074.23H822.264ZM777.627 996.684H817.844L838.047 1031.64L817.844 1066.59H777.627L757.525 1031.64L777.627 996.684Z" fill="#DCDEE0"/>
<path d="M803.184 1101.74L782.754 1156.42L789.067 1158.82L809.51 1104.14L803.184 1101.74Z" fill="#DCDEE0"/>
<path d="M818.803 1130.6L807.59 1141.84L812.401 1146.67L828.45 1130.6L812.489 1114.51L807.678 1119.33L818.803 1130.6Z" fill="#DCDEE0"/>
<path d="M785.191 1141.84L773.965 1130.57L785.191 1119.33L780.367 1114.51L764.344 1130.6L780.367 1146.7L785.191 1141.84Z" fill="#DCDEE0"/>
<path d="M822.264 1172.91L846.785 1130.32L822.264 1087.73H773.221L748.699 1130.32L773.221 1172.91H822.264ZM777.627 1095.36H817.844L838.047 1130.32L817.844 1165.26H777.627L757.525 1130.32L777.627 1095.36Z" fill="#DCDEE0"/>
<path d="M803.184 1196.62L782.754 1251.31L789.067 1253.71L809.51 1199.02L803.184 1196.62Z" fill="#DCDEE0"/>
<path d="M818.803 1225.48L807.59 1236.74L812.401 1241.56L828.45 1225.48L812.489 1209.39L807.678 1214.22L818.803 1225.48Z" fill="#DCDEE0"/>
<path d="M785.191 1236.69L773.965 1225.41L785.191 1214.17L780.367 1209.34L764.344 1225.41L780.367 1241.51L785.191 1236.69Z" fill="#DCDEE0"/>
<path d="M822.264 1267.79L846.785 1225.21L822.264 1182.62H773.221L748.699 1225.21L773.221 1267.79H822.264ZM777.627 1190.25H817.844L838.047 1225.21L817.844 1260.15H777.627L757.525 1225.21L777.627 1190.25Z" fill="#DCDEE0"/>
<path d="M884.879 1052.52L864.449 1107.21L870.838 1109.61L891.269 1054.92L884.879 1052.52Z" fill="#DCDEE0"/>
<path d="M900.549 1081.34L889.336 1092.58L894.147 1097.41L910.196 1081.34L894.147 1065.25L889.336 1070.08L900.549 1081.34Z" fill="#DCDEE0"/>
<path d="M866.899 1092.62L855.661 1081.35L866.899 1070.11L862.063 1065.29L846.039 1081.34L862.063 1097.43L866.899 1092.62Z" fill="#DCDEE0"/>
<path d="M903.959 1123.69L928.48 1081.1L903.959 1038.51H854.916L830.395 1081.1L854.916 1123.69H903.959ZM859.323 1046.14H899.539L919.742 1081.1L899.539 1116.05H859.323L839.221 1081.1L859.323 1046.14Z" fill="#DCDEE0"/>
<path d="M946.071 1044.42L934.833 1033.16L946.071 1021.92L941.234 1017.09L925.211 1033.16L941.234 1049.25L946.071 1044.42Z" fill="#DCDEE0"/>
<path d="M983.131 1075.49L1007.65 1032.91L983.131 990.306H934.088L909.566 1032.91L934.088 1075.49H983.131ZM938.495 997.947H978.711L998.851 1032.91L978.711 1067.85H938.495L918.393 1032.91L938.495 997.947Z" fill="#DCDEE0"/>
<g opacity="0.2">
<path d="M227.525 1043.68L207.082 1098.37L213.471 1100.77L233.914 1046.08L227.525 1043.68Z" fill="#038D7F"/>
<path d="M243.181 1072.5L231.969 1083.74L236.78 1088.57L252.828 1072.5L236.78 1056.41L231.969 1061.23L243.181 1072.5Z" fill="#038D7F"/>
<path d="M209.532 1083.78L198.294 1072.51L209.532 1061.27L204.696 1056.45L188.723 1072.5L204.746 1088.59L209.532 1083.78Z" fill="#038D7F"/>
<path d="M246.591 1114.85L271.112 1072.26L246.591 1029.67H197.56L173.039 1072.26L197.56 1114.85H246.591ZM201.967 1037.3H242.184L262.311 1072.26L242.184 1107.21H201.967L181.853 1072.26L201.967 1037.3Z" fill="#038D7F"/>
<path d="M227.525 1138.57L207.082 1193.25L213.471 1195.65L233.914 1140.97L227.525 1138.57Z" fill="#038D7F"/>
<path d="M243.181 1167.42L231.969 1178.67L236.78 1183.5L252.828 1167.42L236.78 1151.33L231.969 1156.16L243.181 1167.42Z" fill="#038D7F"/>
<path d="M209.532 1178.67L198.294 1167.4L209.532 1156.16L204.696 1151.33L188.723 1167.4L204.746 1183.5L209.532 1178.67Z" fill="#038D7F"/>
<path d="M246.591 1209.73L271.112 1167.15L246.591 1124.56H197.56L173.039 1167.15L197.56 1209.73H246.591ZM201.967 1132.19H242.184L262.311 1167.15L242.184 1202.09H201.967L181.853 1167.15L201.967 1132.19Z" fill="#038D7F"/>
<path d="M309.22 1090.37L288.777 1145.06L295.167 1147.46L315.61 1092.77L309.22 1090.37Z" fill="#038D7F"/>
<path d="M324.877 1119.23L313.664 1130.47L318.475 1135.31L334.524 1119.23L318.475 1103.14L313.664 1107.96L324.877 1119.23Z" fill="#038D7F"/>
<path d="M291.227 1130.47L279.989 1119.2L291.227 1107.96L286.391 1103.14L270.367 1119.23L286.391 1135.33L291.227 1130.47Z" fill="#038D7F"/>
<path d="M328.287 1161.54L352.872 1118.95L328.35 1076.36H279.244L254.723 1118.95L279.244 1161.54H328.287ZM283.663 1083.99H323.83L344.033 1118.95L323.83 1153.9H283.663L263.549 1118.95L283.663 1083.99Z" fill="#038D7F"/>
<path d="M309.22 1185.26L288.777 1239.94L295.167 1242.34L315.61 1187.66L309.22 1185.26Z" fill="#038D7F"/>
<path d="M324.876 1214.12L313.727 1225.32L318.537 1230.14L334.586 1214.07L318.537 1197.98L313.727 1202.8L324.876 1214.12Z" fill="#038D7F"/>
<path d="M291.227 1225.32L279.989 1214.04L291.227 1202.8L286.391 1197.98L270.367 1214.04L286.391 1230.14L291.227 1225.32Z" fill="#038D7F"/>
<path d="M328.287 1256.43L352.872 1213.84L328.35 1171.25H279.244L254.723 1213.84L279.244 1256.43H328.287ZM283.663 1178.88H323.83L344.033 1213.84L323.83 1248.78H283.663L263.549 1213.84L283.663 1178.88Z" fill="#038D7F"/>
<path d="M390.916 1043.68L370.473 1098.37L376.862 1100.77L397.305 1046.08L390.916 1043.68Z" fill="#038D7F"/>
<path d="M406.575 1072.5L395.375 1083.74L400.186 1088.57L416.222 1072.5L400.186 1056.41L395.375 1061.23L406.575 1072.5Z" fill="#038D7F"/>
<path d="M372.922 1083.78L361.709 1072.5L372.947 1061.26L368.111 1056.44L352.062 1072.5L368.086 1088.59L372.922 1083.78Z" fill="#038D7F"/>
<path d="M409.983 1114.85L434.505 1072.26L409.983 1029.67H360.941L336.457 1072.26L360.978 1114.85H409.983ZM365.36 1037.3H405.577L425.704 1072.26L405.577 1107.21H365.36L345.296 1072.26L365.36 1037.3Z" fill="#038D7F"/>
<path d="M390.916 1138.57L370.473 1193.25L376.862 1195.65L397.305 1140.97L390.916 1138.57Z" fill="#038D7F"/>
<path d="M406.575 1167.42L395.375 1178.67L400.186 1183.5L416.222 1167.42L400.186 1151.33L395.375 1156.16L406.575 1167.42Z" fill="#038D7F"/>
<path d="M372.922 1178.67L361.684 1167.4L372.922 1156.16L368.086 1151.33L352.062 1167.4L368.086 1183.5L372.922 1178.67Z" fill="#038D7F"/>
<path d="M409.983 1209.73L434.505 1167.15L409.983 1124.56H360.941L336.457 1167.15L360.978 1209.73H409.983ZM365.36 1132.19H405.577L425.704 1167.15L405.577 1202.09H365.36L345.296 1167.15L365.36 1132.19Z" fill="#038D7F"/>
<path d="M472.611 900.598L452.168 955.284L458.557 957.684L479 902.997L472.611 900.598Z" fill="#038D7F"/>
<path d="M488.27 929.456L477.07 940.697L481.881 945.521L497.917 929.456L481.881 913.366L477.07 918.191L488.27 929.456Z" fill="#038D7F"/>
<path d="M454.617 940.697L443.38 929.431L454.617 918.191L449.781 913.366L433.758 929.431L449.781 945.521L454.617 940.697Z" fill="#038D7F"/>
<path d="M491.678 971.766L516.212 929.179L491.678 886.579H442.635L418.113 929.179L442.635 971.766H491.678ZM447.054 894.22H487.271L507.398 929.179L487.271 964.125H447.054L426.939 929.179L447.054 894.22Z" fill="#038D7F"/>
<path d="M472.611 995.459L452.168 1050.15L458.557 1052.55L479 997.859L472.611 995.459Z" fill="#038D7F"/>
<path d="M488.27 1024.34L477.07 1035.58L481.881 1040.41L497.917 1024.34L481.881 1008.25L477.07 1013.08L488.27 1024.34Z" fill="#038D7F"/>
<path d="M454.617 1035.58L443.38 1024.32L454.617 1013.08L449.781 1008.25L433.758 1024.32L449.781 1040.41L454.617 1035.58Z" fill="#038D7F"/>
<path d="M491.678 1066.65L516.212 1024.07L491.678 981.466H442.635L418.113 1024.07L442.635 1066.65H491.678ZM447.054 989.145H487.271L507.398 1024.1L487.271 1059.05H447.054L426.939 1024.1L447.054 989.145Z" fill="#038D7F"/>
<path d="M554.309 853.906L533.879 908.593L540.192 910.992L560.635 856.306L554.309 853.906Z" fill="#038D7F"/>
<path d="M569.978 882.765L558.766 894.005L563.576 898.83L579.613 882.765L563.576 866.637L558.766 871.461L569.978 882.765Z" fill="#038D7F"/>
<path d="M536.316 894.005L525.09 882.74L536.316 871.499L531.48 866.675L515.469 882.74L531.48 898.83L536.316 894.005Z" fill="#038D7F"/>
<path d="M573.389 925.074L597.911 882.487L573.389 839.887H524.334L499.812 882.487L524.334 925.074H573.389ZM528.753 847.528H568.97L589.097 882.487L568.97 917.433H528.753L508.639 882.487L528.753 847.528Z" fill="#038D7F"/>
<path d="M554.309 948.792L533.879 1003.48L540.192 1005.88L560.635 951.192L554.309 948.792Z" fill="#038D7F"/>
<path d="M569.978 977.651L558.766 988.892L563.576 993.716L579.613 977.651L563.576 961.561L558.766 966.385L569.978 977.651Z" fill="#038D7F"/>
<path d="M536.316 988.892L525.09 977.626L536.316 966.385L531.48 961.561L515.469 977.626L531.48 993.716L536.316 988.892Z" fill="#038D7F"/>
<path d="M573.389 1019.96L597.911 977.374L573.389 934.837H524.334L499.812 977.437L524.334 1020.02L573.389 1019.96ZM528.753 942.415H568.97L589.097 977.374L568.97 1012.32H528.753L508.639 977.374L528.753 942.415Z" fill="#038D7F"/>
<path d="M554.309 1043.68L533.879 1098.37L540.192 1100.77L560.635 1046.08L554.309 1043.68Z" fill="#038D7F"/>
<path d="M569.978 1072.5L558.766 1083.74L563.576 1088.57L579.613 1072.5L563.576 1056.41L558.766 1061.23L569.978 1072.5Z" fill="#038D7F"/>
<path d="M536.316 1083.78L525.09 1072.51L536.316 1061.27L531.48 1056.45L515.469 1072.5L531.48 1088.59L536.316 1083.78Z" fill="#038D7F"/>
<path d="M573.389 1114.85L597.911 1072.26L573.389 1029.67H524.334L499.812 1072.26L524.334 1114.85H573.389ZM528.753 1037.3H568.97L589.097 1072.26L568.97 1107.21H528.753L508.639 1072.26L528.753 1037.3Z" fill="#038D7F"/>
<path d="M636.004 615.938L615.574 670.624L621.888 673.024L642.331 618.337L636.004 615.938Z" fill="#038D7F"/>
<path d="M651.674 644.797L640.461 656.037L645.272 660.862L661.321 644.797L645.272 628.694L640.461 633.518L651.674 644.797Z" fill="#038D7F"/>
<path d="M618.035 656.037L606.809 644.771L618.035 633.518L613.198 628.694L597.188 644.771L613.198 660.862L618.035 656.037Z" fill="#038D7F"/>
<path d="M655.085 687.093L679.606 644.506L655.085 601.919H606.029L581.508 644.506L606.029 687.093H655.085ZM610.461 609.56H650.678L670.881 644.506L650.678 679.465H610.461L590.359 644.506L610.461 609.56Z" fill="#038D7F"/>
<path d="M636.004 710.824L615.574 765.511L621.888 767.91L642.331 713.224L636.004 710.824Z" fill="#038D7F"/>
<path d="M651.674 739.683L640.461 750.923L645.272 755.748L661.321 739.683L645.272 723.58L640.461 728.405L651.674 739.683Z" fill="#038D7F"/>
<path d="M618.035 750.923L606.809 739.658L618.035 728.405L613.198 723.58L597.188 739.658L613.198 755.748L618.035 750.923Z" fill="#038D7F"/>
<path d="M655.085 782.018L679.606 739.418L655.085 696.831H606.029L581.508 739.418L606.029 782.018H655.085ZM610.449 704.472H650.665L670.868 739.418L650.665 774.377H610.461L590.359 739.418L610.449 704.472Z" fill="#038D7F"/>
<path d="M636.004 805.711L615.574 860.397L621.888 862.797L642.331 808.111L636.004 805.711Z" fill="#038D7F"/>
<path d="M651.674 834.57L640.461 845.81L645.272 850.635L661.321 834.57L645.272 818.467L640.461 823.304L651.674 834.57Z" fill="#038D7F"/>
<path d="M618.035 845.81L606.809 834.544L618.035 823.304L613.198 818.467L597.188 834.544L613.198 850.635L618.035 845.81Z" fill="#038D7F"/>
<path d="M655.085 876.879L679.606 834.28L655.085 791.692H606.029L581.508 834.28L606.029 876.879H655.085ZM610.449 799.333H650.665L670.868 834.28L650.665 869.239H610.461L590.359 834.28L610.449 799.333Z" fill="#038D7F"/>
<path d="M636.004 900.598L615.574 955.284L621.888 957.684L642.331 902.997L636.004 900.598Z" fill="#038D7F"/>
<path d="M651.674 929.456L640.461 940.697L645.272 945.521L661.321 929.456L645.272 913.366L640.461 918.191L651.674 929.456Z" fill="#038D7F"/>
<path d="M618.035 940.697L606.809 929.431L618.035 918.191L613.198 913.366L597.188 929.431L613.198 945.521L618.035 940.697Z" fill="#038D7F"/>
<path d="M655.085 971.766L679.606 929.179L655.085 886.579H606.029L581.508 929.179L606.029 971.766H655.085ZM610.449 894.22H650.665L670.868 929.179L650.665 964.125H610.461L590.359 929.179L610.449 894.22Z" fill="#038D7F"/>
<path d="M636.004 995.459L615.574 1050.15L621.888 1052.55L642.331 997.859L636.004 995.459Z" fill="#038D7F"/>
<path d="M651.674 1024.34L640.461 1035.58L645.272 1040.41L661.321 1024.34L645.272 1008.25L640.461 1013.08L651.674 1024.34Z" fill="#038D7F"/>
<path d="M618.035 1035.58L606.809 1024.32L618.035 1013.08L613.198 1008.25L597.188 1024.32L613.198 1040.41L618.035 1035.58Z" fill="#038D7F"/>
<path d="M655.085 1066.65L679.606 1024.07L655.085 981.466H606.029L581.508 1024.07L606.029 1066.65H655.085ZM610.461 989.145H650.678L670.881 1024.1L650.678 1059.05H610.461L590.359 1024.1L610.461 989.145Z" fill="#038D7F"/>
<path d="M717.7 664.133L697.27 718.819L703.583 721.219L724.026 666.532L717.7 664.133Z" fill="#038D7F"/>
<path d="M733.369 692.991L722.156 704.232L726.967 709.056L743.041 692.991L726.992 676.889L722.182 681.713L733.369 692.991Z" fill="#038D7F"/>
<path d="M699.706 704.232L688.481 692.966L699.706 681.713L694.87 676.889L678.859 692.966L694.87 709.056L699.706 704.232Z" fill="#038D7F"/>
<path d="M736.73 735.288L761.251 692.688L736.73 650.114H687.737L663.203 692.701L687.737 735.288H736.73ZM692.093 657.742H732.31L752.513 692.688L732.31 727.647H692.093L671.991 692.688L692.093 657.742Z" fill="#038D7F"/>
<path d="M717.7 759.02L697.27 813.706L703.583 816.106L724.026 761.419L717.7 759.02Z" fill="#038D7F"/>
<path d="M733.369 787.878L722.156 799.119L726.967 803.943L743.016 787.878L726.967 771.775L722.156 776.612L733.369 787.878Z" fill="#038D7F"/>
<path d="M699.706 799.119L688.481 787.853L699.706 776.612L694.87 771.775L678.859 787.853L694.87 803.943L699.706 799.119Z" fill="#038D7F"/>
<path d="M736.73 830.187L761.251 787.587L736.73 745H687.737L663.203 787.587L687.737 830.187H736.73ZM692.093 752.641H732.31L752.513 787.587L732.31 822.546H692.093L671.991 787.587L692.093 752.641Z" fill="#038D7F"/>
<path d="M717.7 853.906L697.27 908.593L703.583 910.992L724.026 856.306L717.7 853.906Z" fill="#038D7F"/>
<path d="M733.369 882.765L722.156 894.005L726.967 898.83L743.016 882.765L726.967 866.637L722.156 871.461L733.369 882.765Z" fill="#038D7F"/>
<path d="M699.706 894.005L688.481 882.74L699.706 871.499L694.87 866.675L678.859 882.74L694.87 898.83L699.706 894.005Z" fill="#038D7F"/>
<path d="M736.73 925.074L761.251 882.487L736.73 839.887H687.737L663.203 882.487L687.737 925.074H736.73ZM692.093 847.528H732.31L752.513 882.487L732.31 917.433H692.093L671.991 882.487L692.093 847.528Z" fill="#038D7F"/>
<path d="M717.7 948.792L697.27 1003.48L703.583 1005.88L724.102 951.255L717.7 948.792Z" fill="#038D7F"/>
<path d="M733.369 977.651L722.156 988.892L726.967 993.716L743.041 977.651L726.992 961.561L722.182 966.385L733.369 977.651Z" fill="#038D7F"/>
<path d="M699.706 988.892L688.481 977.626L699.706 966.385L694.87 961.561L678.859 977.626L694.87 993.716L699.706 988.892Z" fill="#038D7F"/>
<path d="M736.73 1019.96L761.251 977.374L736.73 934.837H687.737L663.203 977.437L687.737 1020.02L736.73 1019.96ZM692.093 942.415H732.31L752.513 977.374L732.31 1012.32H692.093L671.991 977.374L692.093 942.415Z" fill="#038D7F"/>
<path d="M799.395 710.824L778.965 765.511L785.278 767.91L805.721 713.224L799.395 710.824Z" fill="#038D7F"/>
<path d="M815.017 739.683L803.805 750.923L808.616 755.748L824.664 739.683L808.704 723.58L803.893 728.405L815.017 739.683Z" fill="#038D7F"/>
<path d="M781.402 750.923L770.176 739.658L781.402 728.405L776.578 723.58L760.555 739.658L776.578 755.748L781.402 750.923Z" fill="#038D7F"/>
<path d="M818.474 782.018L842.996 739.418L818.474 696.831H769.432L744.91 739.418L769.432 782.018H818.474ZM773.838 704.472H814.055L834.258 739.418L814.055 774.377H773.838L753.736 739.418L773.838 704.472Z" fill="#038D7F"/>
<path d="M799.395 805.711L778.965 860.397L785.278 862.797L805.721 808.111L799.395 805.711Z" fill="#038D7F"/>
<path d="M815.017 834.57L803.805 845.81L808.616 850.635L824.664 834.57L808.704 818.467L803.893 823.304L815.017 834.57Z" fill="#038D7F"/>
<path d="M781.402 845.81L770.176 834.544L781.402 823.304L776.578 818.467L760.555 834.544L776.578 850.635L781.402 845.81Z" fill="#038D7F"/>
<path d="M818.474 876.879L842.996 834.28L818.474 791.692H769.432L744.91 834.28L769.432 876.879H818.474ZM773.838 799.333H814.055L834.258 834.28L814.055 869.239H773.838L753.736 834.28L773.838 799.333Z" fill="#038D7F"/>
<path d="M799.395 900.598L778.965 955.284L785.278 957.684L805.721 902.997L799.395 900.598Z" fill="#038D7F"/>
<path d="M815.017 929.456L803.805 940.697L808.616 945.521L824.664 929.456L808.704 913.366L803.893 918.191L815.017 929.456Z" fill="#038D7F"/>
<path d="M781.402 940.697L770.176 929.431L781.402 918.191L776.578 913.366L760.555 929.431L776.578 945.521L781.402 940.697Z" fill="#038D7F"/>
<path d="M818.474 971.766L842.996 929.179L818.474 886.579H769.432L744.91 929.179L769.432 971.766H818.474ZM773.838 894.22H814.055L834.258 929.179L814.055 964.125H773.838L753.736 929.179L773.838 894.22Z" fill="#038D7F"/>
<path d="M881.094 664.133L860.664 718.819L867.053 721.219L887.484 666.532L881.094 664.133Z" fill="#038D7F"/>
<path d="M896.763 692.991L885.551 704.232L890.362 709.056L906.41 692.991L890.362 676.889L885.551 681.713L896.763 692.991Z" fill="#038D7F"/>
<path d="M863.11 704.232L851.872 692.966L863.11 681.713L858.274 676.889L842.25 692.966L858.274 709.056L863.11 704.232Z" fill="#038D7F"/>
<path d="M900.174 735.288L924.695 692.688L900.174 650.101H851.131L826.609 692.688L851.131 735.288H900.174ZM855.537 657.742H895.754L915.957 692.688L895.754 727.647H855.537L835.436 692.688L855.537 657.742Z" fill="#038D7F"/>
<path d="M881.094 759.02L860.664 813.706L867.053 816.106L887.484 761.419L881.094 759.02Z" fill="#038D7F"/>
<path d="M896.763 787.878L885.551 799.119L890.362 803.943L906.41 787.878L890.362 771.775L885.551 776.612L896.763 787.878Z" fill="#038D7F"/>
<path d="M863.11 799.119L851.872 787.853L863.11 776.612L858.274 771.775L842.25 787.853L858.274 803.943L863.11 799.119Z" fill="#038D7F"/>
<path d="M900.174 830.187L924.695 787.587L900.174 745H851.131L826.609 787.587L851.131 830.187H900.174ZM855.537 752.641H895.754L915.957 787.587L895.754 822.546H855.537L835.436 787.587L855.537 752.641Z" fill="#038D7F"/>
<path d="M881.094 853.906L860.664 908.593L867.053 910.992L887.484 856.306L881.094 853.906Z" fill="#038D7F"/>
<path d="M896.763 882.765L885.551 894.005L890.362 898.83L906.41 882.765L890.362 866.637L885.551 871.461L896.763 882.765Z" fill="#038D7F"/>
<path d="M863.11 894.005L851.872 882.74L863.11 871.499L858.274 866.675L842.25 882.74L858.274 898.83L863.11 894.005Z" fill="#038D7F"/>
<path d="M900.174 925.074L924.695 882.487L900.174 839.887H851.131L826.609 882.487L851.131 925.074H900.174ZM855.537 847.528H895.754L915.957 882.487L895.754 917.433H855.537L835.436 882.487L855.537 847.528Z" fill="#038D7F"/>
<path d="M944.809 656.037L933.571 644.771L944.809 633.518L940.023 628.694L924 644.771L940.023 660.862L944.809 656.037Z" fill="#038D7F"/>
<path d="M981.869 687.093L1006.39 644.506L981.869 601.919H932.826L908.305 644.506L932.826 687.093H981.869ZM937.233 609.56H977.45L997.589 644.506L977.45 679.465H937.233L917.131 644.506L937.233 609.56Z" fill="#038D7F"/>
<path d="M944.809 750.923L933.571 739.658L944.809 728.405L939.973 723.58L923.949 739.658L940.023 755.748L944.809 750.923Z" fill="#038D7F"/>
<path d="M981.869 782.018L1006.39 739.418L981.869 696.831H932.826L908.305 739.418L932.826 782.018H981.869ZM937.233 704.472H977.45L997.589 739.418L977.45 774.377H937.233L917.131 739.418L937.233 704.472Z" fill="#038D7F"/>
<path d="M944.809 845.81L933.571 834.544L944.809 823.304L939.973 818.467L923.949 834.544L939.973 850.635L944.809 845.81Z" fill="#038D7F"/>
<path d="M981.869 876.879L1006.39 834.28L981.869 791.692H932.826L908.305 834.28L932.826 876.879H981.869ZM937.233 799.333H977.45L997.589 834.28L977.45 869.239H937.233L917.131 834.28L937.233 799.333Z" fill="#038D7F"/>
<path d="M944.809 940.697L933.571 929.431L944.809 918.191L940.023 913.366L924 929.431L940.023 945.521L944.809 940.697Z" fill="#038D7F"/>
<path d="M981.869 971.766L1006.39 929.179L981.869 886.579H932.826L908.305 929.179L932.826 971.766H981.869ZM937.233 894.22H977.45L997.589 929.179L977.45 964.125H937.233L917.131 929.179L937.233 894.22Z" fill="#038D7F"/>
</g>
</svg>
