<svg width="778" height="410" viewBox="0 0 778 410" fill="none" xmlns="http://www.w3.org/2000/svg">
<path d="M166.411 193.917H167.609L168.206 192.879L222.01 99.4571L222.606 98.423L222.01 97.3889L168.206 3.9659L167.609 2.92792H166.411H58.8036H57.6058L57.008 3.9659L3.20441 97.3889L2.60885 98.423L3.20442 99.4571L57.008 192.879L57.6058 193.917H58.8036H166.411Z" stroke="#1D2332" stroke-width="4.14416"/>
<path d="M151.569 59.3438H72.7925V138.12H151.569V59.3438Z" stroke="#1D2332" stroke-width="4.37506" stroke-miterlimit="10" stroke-linecap="round" stroke-linejoin="round"/>
<path d="M131.87 118.136H92.4819V79.0557H119.254L131.87 93.5185V118.136Z" stroke="#1D2332" stroke-width="4.37506" stroke-miterlimit="10" stroke-linecap="round" stroke-linejoin="round"/>
<path d="M72.7925 39.3418V49.4965" stroke="#1D2332" stroke-width="4.37506" stroke-miterlimit="10" stroke-linecap="round" stroke-linejoin="round"/>
<path d="M82.634 39.3418V49.4965" stroke="#1D2332" stroke-width="4.37506" stroke-miterlimit="10" stroke-linecap="round" stroke-linejoin="round"/>
<path d="M92.4819 39.3418V49.4965" stroke="#1D2332" stroke-width="4.37506" stroke-miterlimit="10" stroke-linecap="round" stroke-linejoin="round"/>
<path d="M102.33 39.3418V49.4965" stroke="#1D2332" stroke-width="4.37506" stroke-miterlimit="10" stroke-linecap="round" stroke-linejoin="round"/>
<path d="M112.177 39.3418V49.4965" stroke="#1D2332" stroke-width="4.37506" stroke-miterlimit="10" stroke-linecap="round" stroke-linejoin="round"/>
<path d="M122.025 39.3418V49.4965" stroke="#1D2332" stroke-width="4.37506" stroke-miterlimit="10" stroke-linecap="round" stroke-linejoin="round"/>
<path d="M131.873 39.3418V49.4965" stroke="#1D2332" stroke-width="4.37506" stroke-miterlimit="10" stroke-linecap="round" stroke-linejoin="round"/>
<path d="M141.721 39.3418V49.4965" stroke="#1D2332" stroke-width="4.37506" stroke-miterlimit="10" stroke-linecap="round" stroke-linejoin="round"/>
<path d="M151.569 39.3418V49.4965" stroke="#1D2332" stroke-width="4.37506" stroke-miterlimit="10" stroke-linecap="round" stroke-linejoin="round"/>
<path d="M72.7939 147.979V157.827" stroke="#1D2332" stroke-width="4.37506" stroke-miterlimit="10" stroke-linecap="round" stroke-linejoin="round"/>
<path d="M82.6418 147.979V157.827" stroke="#1D2332" stroke-width="4.37506" stroke-miterlimit="10" stroke-linecap="round" stroke-linejoin="round"/>
<path d="M92.4895 147.979V157.827" stroke="#1D2332" stroke-width="4.37506" stroke-miterlimit="10" stroke-linecap="round" stroke-linejoin="round"/>
<path d="M102.337 147.979V157.827" stroke="#1D2332" stroke-width="4.37506" stroke-miterlimit="10" stroke-linecap="round" stroke-linejoin="round"/>
<path d="M112.179 147.979V157.827" stroke="#1D2332" stroke-width="4.37506" stroke-miterlimit="10" stroke-linecap="round" stroke-linejoin="round"/>
<path d="M122.027 147.979V157.827" stroke="#1D2332" stroke-width="4.37506" stroke-miterlimit="10" stroke-linecap="round" stroke-linejoin="round"/>
<path d="M131.875 147.979V157.827" stroke="#1D2332" stroke-width="4.37506" stroke-miterlimit="10" stroke-linecap="round" stroke-linejoin="round"/>
<path d="M141.723 147.979V157.827" stroke="#1D2332" stroke-width="4.37506" stroke-miterlimit="10" stroke-linecap="round" stroke-linejoin="round"/>
<path d="M151.57 147.979V157.827" stroke="#1D2332" stroke-width="4.37506" stroke-miterlimit="10" stroke-linecap="round" stroke-linejoin="round"/>
<path d="M53.0979 137.815H62.945" stroke="#1D2332" stroke-width="4.37506" stroke-miterlimit="10" stroke-linecap="round" stroke-linejoin="round"/>
<path d="M53.0979 128.271H62.945" stroke="#1D2332" stroke-width="4.37506" stroke-miterlimit="10" stroke-linecap="round" stroke-linejoin="round"/>
<path d="M53.0979 118.129H62.945" stroke="#1D2332" stroke-width="4.37506" stroke-miterlimit="10" stroke-linecap="round" stroke-linejoin="round"/>
<path d="M53.0979 108.584H62.945" stroke="#1D2332" stroke-width="4.37506" stroke-miterlimit="10" stroke-linecap="round" stroke-linejoin="round"/>
<path d="M53.0979 98.7241H62.945" stroke="#1D2332" stroke-width="4.37506" stroke-miterlimit="10" stroke-linecap="round" stroke-linejoin="round"/>
<path d="M53.0979 88.5825H62.945" stroke="#1D2332" stroke-width="4.37506" stroke-miterlimit="10" stroke-linecap="round" stroke-linejoin="round"/>
<path d="M53.0979 79.0327H62.945" stroke="#1D2332" stroke-width="4.37506" stroke-miterlimit="10" stroke-linecap="round" stroke-linejoin="round"/>
<path d="M53.0979 68.8901H62.945" stroke="#1D2332" stroke-width="4.37506" stroke-miterlimit="10" stroke-linecap="round" stroke-linejoin="round"/>
<path d="M53.0979 59.3462H62.945" stroke="#1D2332" stroke-width="4.37506" stroke-miterlimit="10" stroke-linecap="round" stroke-linejoin="round"/>
<path d="M161.416 137.815H171.263" stroke="#1D2332" stroke-width="4.37506" stroke-miterlimit="10" stroke-linecap="round" stroke-linejoin="round"/>
<path d="M161.416 128.271H171.263" stroke="#1D2332" stroke-width="4.37506" stroke-miterlimit="10" stroke-linecap="round" stroke-linejoin="round"/>
<path d="M161.416 118.129H171.263" stroke="#1D2332" stroke-width="4.37506" stroke-miterlimit="10" stroke-linecap="round" stroke-linejoin="round"/>
<path d="M161.416 108.584H171.263" stroke="#1D2332" stroke-width="4.37506" stroke-miterlimit="10" stroke-linecap="round" stroke-linejoin="round"/>
<path d="M161.416 98.7241H171.263" stroke="#1D2332" stroke-width="4.37506" stroke-miterlimit="10" stroke-linecap="round" stroke-linejoin="round"/>
<path d="M161.416 88.5825H171.263" stroke="#1D2332" stroke-width="4.37506" stroke-miterlimit="10" stroke-linecap="round" stroke-linejoin="round"/>
<path d="M161.416 79.0327H171.263" stroke="#1D2332" stroke-width="4.37506" stroke-miterlimit="10" stroke-linecap="round" stroke-linejoin="round"/>
<path d="M161.416 68.8901H171.263" stroke="#1D2332" stroke-width="4.37506" stroke-miterlimit="10" stroke-linecap="round" stroke-linejoin="round"/>
<path d="M161.416 59.3462H171.263" stroke="#1D2332" stroke-width="4.37506" stroke-miterlimit="10" stroke-linecap="round" stroke-linejoin="round"/>
<path d="M103.869 98.748H120.486" stroke="#1D2332" stroke-width="4.37506" stroke-miterlimit="10" stroke-linecap="round" stroke-linejoin="round"/>
<path d="M128.485 75.6685L135.255 82.746" stroke="#1D2332" stroke-width="4.37506" stroke-miterlimit="10" stroke-linecap="round" stroke-linejoin="round"/>
<path d="M710.531 407.448H711.753L712.362 406.389L774.872 297.721L775.478 296.668L774.872 295.614L712.362 186.946L711.753 185.887H710.531H585.51H584.288L583.679 186.946L521.169 295.614L520.563 296.668L521.169 297.721L583.679 406.389L584.288 407.448H585.51H710.531Z" fill="#00AF9D" stroke="#1D2332" stroke-width="4.22562"/>
<path d="M692.819 353.957C692.104 347.879 686.384 344.304 682.808 343.589" stroke="#1D2332" stroke-width="4.46107" stroke-miterlimit="10" stroke-linecap="round" stroke-linejoin="round"/>
<path d="M691.391 252.409C701.401 251.336 699.614 240.611 699.614 240.611V240.253C729.645 245.973 723.567 279.222 722.495 279.937C722.495 279.937 736.795 302.103 716.775 316.404C716.775 316.404 726.428 355.731 693.179 353.943C698.899 374.322 680.308 378.612 667.08 379.327C660.287 379.684 654.567 374.321 654.567 367.529V229.17C669.583 209.864 698.541 220.59 699.256 240.611" stroke="#1D2332" stroke-width="4.46107" stroke-miterlimit="10" stroke-linecap="round" stroke-linejoin="round"/>
<path d="M687.814 279.24C703.545 293.183 718.561 283.172 722.851 279.955" stroke="#1D2332" stroke-width="4.46107" stroke-miterlimit="10" stroke-linecap="round" stroke-linejoin="round"/>
<path d="M693.534 353.954H679.591" stroke="#1D2332" stroke-width="4.46107" stroke-miterlimit="10" stroke-linecap="round" stroke-linejoin="round"/>
<path d="M708.558 303.54C708.558 303.898 701.05 312.478 693.899 311.048" stroke="#1D2332" stroke-width="4.46107" stroke-miterlimit="10" stroke-linecap="round" stroke-linejoin="round"/>
<path d="M712.126 259.571C715.701 260.644 719.276 259.213 721.064 257.068" stroke="#1D2332" stroke-width="4.46107" stroke-miterlimit="10" stroke-linecap="round" stroke-linejoin="round"/>
<path d="M717.135 316.403C717.135 316.403 713.917 299.242 691.751 297.455" stroke="#1D2332" stroke-width="4.46107" stroke-miterlimit="10" stroke-linecap="round" stroke-linejoin="round"/>
<path d="M624.181 266.351C586.642 233.817 634.192 202.714 654.928 229.527V367.886C654.928 374.679 649.207 380.041 642.415 379.684C629.187 378.969 610.596 374.679 616.316 354.3" stroke="#1D2332" stroke-width="4.46107" stroke-miterlimit="10" stroke-linecap="round" stroke-linejoin="round"/>
<path d="M610.234 239.548C580.203 245.626 585.923 278.875 585.923 278.875C585.923 278.875 588.784 291.388 605.229 287.813" stroke="#1D2332" stroke-width="4.46107" stroke-miterlimit="10" stroke-linecap="round" stroke-linejoin="round"/>
<path d="M598.081 287.094C598.796 281.017 604.516 277.442 608.091 276.727" stroke="#1D2332" stroke-width="4.46107" stroke-miterlimit="10" stroke-linecap="round" stroke-linejoin="round"/>
<path d="M587.356 281.726C587.356 281.726 573.055 302.105 593.076 316.405C593.076 316.405 583.423 355.732 616.672 353.944H630.258" stroke="#1D2332" stroke-width="4.46107" stroke-miterlimit="10" stroke-linecap="round" stroke-linejoin="round"/>
<path d="M603.804 332.503C603.804 332.503 595.581 337.151 597.011 347.161" stroke="#1D2332" stroke-width="4.46107" stroke-miterlimit="10" stroke-linecap="round" stroke-linejoin="round"/>
<path d="M593.073 316.411C593.073 316.411 609.876 316.053 609.519 303.54" stroke="#1D2332" stroke-width="4.46107" stroke-miterlimit="10" stroke-linecap="round" stroke-linejoin="round"/>
<path d="M639.196 269.932C639.196 274.222 635.979 277.44 631.688 277.44C627.398 277.44 624.181 273.865 624.181 269.932V269.574C624.538 265.642 627.756 262.424 631.688 262.424C635.621 262.067 639.196 265.642 639.196 269.932Z" stroke="#1D2332" stroke-width="4.46107" stroke-miterlimit="10" stroke-linecap="round" stroke-linejoin="round"/>
<path d="M639.196 299.26C639.196 303.55 635.979 306.768 631.688 306.768C627.398 306.768 624.181 303.193 624.181 299.26V298.903C624.538 294.97 627.756 291.752 631.688 291.752C635.621 291.395 639.196 294.97 639.196 299.26Z" stroke="#1D2332" stroke-width="4.46107" stroke-miterlimit="10" stroke-linecap="round" stroke-linejoin="round"/>
<path d="M678.525 353.954C678.525 358.244 674.95 361.462 671.018 361.462C667.085 361.462 663.51 357.887 663.51 353.954V353.597C663.867 349.664 667.085 346.446 671.018 346.446C675.308 346.446 678.525 349.664 678.525 353.954Z" stroke="#1D2332" stroke-width="4.46107" stroke-miterlimit="10" stroke-linecap="round" stroke-linejoin="round"/>
<path d="M632.762 338.231C632.762 342.521 629.544 345.739 625.254 345.739C620.964 345.739 617.746 342.163 617.746 338.231V337.873C618.104 333.941 621.321 330.723 625.254 330.723C629.187 330.365 632.762 333.941 632.762 338.231Z" stroke="#1D2332" stroke-width="4.46107" stroke-miterlimit="10" stroke-linecap="round" stroke-linejoin="round"/>
<path d="M683.173 261.361C683.173 265.651 679.956 268.868 675.665 268.868C671.375 268.868 668.157 265.293 668.157 261.361V261.003C668.515 257.07 671.733 253.853 675.665 253.853C679.956 253.495 683.173 257.07 683.173 261.361Z" stroke="#1D2332" stroke-width="4.46107" stroke-miterlimit="10" stroke-linecap="round" stroke-linejoin="round"/>
<path d="M681.023 294.599C681.023 298.889 677.806 302.107 673.515 302.107C669.225 302.107 666.008 298.531 666.008 294.599V294.241C666.365 290.308 669.583 287.091 673.515 287.091C677.806 287.091 681.023 290.308 681.023 294.599Z" stroke="#1D2332" stroke-width="4.46107" stroke-miterlimit="10" stroke-linecap="round" stroke-linejoin="round"/>
<path d="M668.863 266.005L655.278 279.59" stroke="#1D2332" stroke-width="4.46107" stroke-miterlimit="10" stroke-linecap="round" stroke-linejoin="round"/>
<path d="M672.446 302.482V320.358L655.285 330.368L654.57 338.234H632.762" stroke="#1D2332" stroke-width="4.46107" stroke-miterlimit="10" stroke-linecap="round" stroke-linejoin="round"/>
<path d="M636.692 304.605L654.925 317.476" stroke="#1D2332" stroke-width="4.46107" stroke-miterlimit="10" stroke-linecap="round" stroke-linejoin="round"/>
<path fill-rule="evenodd" clip-rule="evenodd" d="M431.638 275.312C431.176 275.312 430.733 275.495 430.407 275.822C430.08 276.148 429.897 276.591 429.897 277.052C429.897 277.514 430.08 277.957 430.407 278.283C430.733 278.61 431.176 278.793 431.638 278.793H500.908C501.37 278.793 501.812 278.61 502.139 278.283C502.465 277.957 502.649 277.514 502.649 277.052C502.649 276.591 502.465 276.148 502.139 275.822C501.812 275.495 501.37 275.312 500.908 275.312H431.638Z" fill="#1D2332"/>
<path fill-rule="evenodd" clip-rule="evenodd" d="M309.127 75.0315C298.136 75.4956 291.05 77.5609 286.373 81.477C282.508 84.7142 280.628 88.4388 278.319 95.9808C278.121 96.6132 277.448 98.8351 277.402 98.9918C277.036 100.216 276.74 101.156 276.438 102.096C275.643 104.497 274.877 106.592 273.984 108.634C271.748 113.799 268.697 118.573 264.949 122.772C262.558 125.464 258.693 126.253 252.902 125.4C248.311 124.71 244.563 123.59 233.961 119.993C232.585 119.523 231.639 119.199 230.659 118.879C217.666 114.557 210.023 113.078 203.292 114.604C194.384 116.64 189.417 124.252 188.668 138.39C188.048 149.993 193.514 160.517 204.081 169.91C212.861 177.713 224.972 184.559 239.479 190.546C250.693 195.096 262.202 198.885 273.926 201.888C278.034 202.955 281.864 203.843 285.288 204.585C286.489 204.846 289.089 205.38 289.321 205.427L289.617 205.485C289.845 205.53 290.079 205.529 290.307 205.482C290.534 205.436 290.75 205.344 290.941 205.212C291.133 205.081 291.296 204.913 291.421 204.717C291.547 204.522 291.632 204.304 291.671 204.075C291.715 203.848 291.712 203.614 291.664 203.388C291.616 203.161 291.524 202.947 291.392 202.757C291.26 202.567 291.092 202.405 290.897 202.28C290.701 202.156 290.483 202.072 290.255 202.033L289.164 201.812C288.259 201.632 287.215 201.429 286.037 201.174C282.653 200.437 278.887 199.544 274.825 198.488C263.25 195.53 251.887 191.797 240.814 187.314C226.591 181.466 214.84 174.777 206.397 167.276C196.561 158.539 191.593 149.007 192.15 138.587C192.823 125.882 196.88 119.686 204.058 118.044C209.936 116.704 217.167 118.09 229.539 122.21C230.496 122.529 231.442 122.836 232.823 123.306C243.657 126.978 247.47 128.139 252.356 128.875C259.198 129.902 264.217 128.875 267.548 125.093C271.542 120.623 274.794 115.542 277.181 110.044C278.115 107.891 278.922 105.698 279.74 103.198C280.054 102.229 280.361 101.26 280.738 100.019C280.791 99.8562 281.464 97.6342 281.655 97.0077C283.773 90.0922 285.404 86.8434 288.619 84.1689C292.6 80.833 299 78.9765 309.295 78.5472C325.015 77.8858 333.041 88.5722 335.292 107.323C336.16 115.425 336.109 123.599 335.141 131.689C334.973 133.186 334.787 134.526 334.619 135.71C334.555 136.122 334.404 137.096 334.398 137.154C334.355 137.38 334.357 137.613 334.403 137.838C334.45 138.063 334.541 138.277 334.671 138.467C334.801 138.657 334.968 138.819 335.161 138.944C335.354 139.07 335.57 139.155 335.797 139.196C336.258 139.278 336.732 139.174 337.116 138.908C337.501 138.642 337.765 138.235 337.851 137.775C337.851 137.7 338.02 136.673 338.083 136.238C338.269 135.013 338.461 133.615 338.629 132.078C339.623 123.726 339.665 115.289 338.757 106.928C337.671 97.8721 335.205 90.3127 331.05 84.778C326.036 78.0599 318.742 74.6312 309.127 75.0315Z" fill="#00AF9D"/>
<path fill-rule="evenodd" clip-rule="evenodd" d="M314.36 77.4444C303.335 77.9027 296.249 79.9738 291.578 83.8898C287.719 87.1213 285.85 90.8517 283.541 98.3937C283.343 99.026 282.676 101.248 282.624 101.41C282.258 102.629 281.962 103.569 281.655 104.514C280.944 106.733 280.123 108.916 279.194 111.053C276.956 116.211 273.91 120.98 270.171 125.179C267.791 127.877 263.898 128.66 258.118 127.807C253.516 127.117 249.796 126.003 239.183 122.406C237.808 121.93 236.862 121.611 235.881 121.287C222.894 116.97 215.251 115.485 208.526 117.017C199.607 119.053 194.651 126.665 193.891 140.803C193.27 152.406 198.736 162.93 209.303 172.323C218.083 180.126 230.194 186.971 244.701 192.959C255.916 197.509 267.424 201.298 279.148 204.301C283.256 205.368 287.086 206.262 290.51 207.004C291.711 207.265 294.288 207.799 294.532 207.845L294.839 207.898C295.066 207.942 295.299 207.941 295.526 207.894C295.752 207.847 295.967 207.756 296.158 207.625C296.349 207.494 296.511 207.327 296.637 207.133C296.762 206.938 296.847 206.721 296.888 206.494C296.932 206.266 296.93 206.033 296.883 205.806C296.836 205.579 296.744 205.364 296.613 205.173C296.482 204.983 296.313 204.82 296.119 204.695C295.924 204.57 295.706 204.485 295.477 204.446L294.386 204.231C293.481 204.045 292.425 203.842 291.247 203.587C287.858 202.856 284.086 201.963 280.024 200.907C268.457 197.947 257.102 194.212 246.036 189.727C231.813 183.879 220.062 177.196 211.619 169.694C201.783 160.952 196.792 151.425 197.349 141.006C198.034 128.301 202.079 122.105 209.263 120.463C215.135 119.117 222.366 120.509 234.749 124.622L238.034 125.719C248.868 129.397 252.692 130.557 257.578 131.288C264.42 132.321 269.451 131.288 272.782 127.512C276.764 123.039 280.004 117.959 282.38 112.462C283.332 110.304 284.121 108.117 284.962 105.617C285.276 104.648 285.583 103.679 285.961 102.437L286.877 99.4205C289.001 92.5051 290.626 89.2621 293.841 86.5876C297.816 83.2517 304.211 81.3662 314.494 80.9601C330.226 80.3045 338.24 90.9735 340.491 109.724C341.371 117.825 341.328 125.999 340.363 134.09C340.195 135.581 340.015 136.922 339.841 138.111C339.777 138.523 339.626 139.492 339.615 139.55C339.571 139.777 339.572 140.012 339.62 140.239C339.667 140.466 339.76 140.681 339.892 140.872C340.024 141.062 340.192 141.225 340.388 141.35C340.584 141.474 340.802 141.559 341.031 141.598C341.257 141.638 341.489 141.632 341.714 141.582C341.938 141.532 342.15 141.438 342.338 141.305C342.526 141.172 342.685 141.004 342.808 140.809C342.93 140.614 343.012 140.397 343.05 140.17C343.05 140.095 343.242 139.051 343.306 138.621C343.491 137.392 343.669 136.009 343.839 134.473C344.836 126.124 344.885 117.689 343.985 109.33C342.894 100.273 340.427 92.7082 336.272 87.1735C331.259 80.4785 323.964 77.0382 314.36 77.4444Z" fill="#4F5865"/>
<path fill-rule="evenodd" clip-rule="evenodd" d="M318.37 77.4444C307.379 77.9027 300.282 79.9738 295.617 83.8898C291.752 87.1213 289.872 90.8517 287.551 98.3937C287.365 99.026 286.692 101.248 286.645 101.41C286.268 102.629 285.984 103.569 285.682 104.514C284.887 106.916 284.121 109.005 283.227 111.053C280.985 116.213 277.936 120.984 274.192 125.185C271.801 127.883 267.937 128.666 262.145 127.813C257.555 127.123 253.806 126.009 243.204 122.412L239.902 121.292C226.91 116.976 219.267 115.491 212.536 117.022C203.628 119.059 198.661 126.67 197.912 140.809C197.291 152.412 202.758 162.936 213.325 172.328C222.105 180.131 234.216 186.977 248.723 192.964C259.937 197.515 271.445 201.304 283.169 204.306C287.278 205.374 291.102 206.267 294.532 207.01C295.733 207.271 298.333 207.805 298.594 207.851L298.89 207.903C299.117 207.946 299.35 207.943 299.576 207.894C299.803 207.845 300.017 207.752 300.206 207.62C300.396 207.487 300.557 207.319 300.681 207.123C300.805 206.928 300.888 206.71 300.926 206.482C300.971 206.255 300.97 206.022 300.923 205.795C300.876 205.569 300.785 205.354 300.654 205.164C300.523 204.973 300.356 204.81 300.161 204.685C299.967 204.56 299.75 204.474 299.522 204.434L298.431 204.219C297.526 204.034 296.481 203.831 295.303 203.575C291.92 202.844 288.154 201.951 284.092 200.895C272.513 197.936 261.146 194.202 250.069 189.716C235.858 183.868 224.107 177.184 215.663 169.683C205.798 160.94 200.86 151.414 201.417 140.994C202.09 128.289 206.135 122.093 213.325 120.451C219.203 119.105 226.434 120.498 238.806 124.611L242.09 125.707C252.924 129.385 256.725 130.546 261.623 131.277C268.453 132.309 273.49 131.277 276.815 127.5C280.806 123.027 284.058 117.947 286.448 112.451C287.382 110.293 288.189 108.105 289.007 105.605C289.321 104.636 289.628 103.667 290.005 102.426C290.058 102.257 290.725 100.036 290.922 99.4089C293.04 92.4935 294.671 89.2505 297.886 86.576C301.867 83.2401 308.267 81.3546 318.562 80.9485C334.282 80.2929 342.307 90.9619 344.559 109.712C345.42 117.815 345.369 125.988 344.408 134.079C344.24 135.57 344.054 136.91 343.874 138.099C343.822 138.511 343.671 139.48 343.665 139.538C343.621 139.765 343.622 139.998 343.668 140.224C343.715 140.45 343.806 140.664 343.936 140.855C344.066 141.045 344.233 141.208 344.426 141.334C344.62 141.459 344.837 141.545 345.064 141.586C345.525 141.664 345.998 141.558 346.382 141.292C346.766 141.025 347.031 140.618 347.118 140.159C347.118 140.083 347.286 139.039 347.35 138.61C347.524 137.38 347.727 135.999 347.896 134.462C348.884 126.112 348.926 117.677 348.023 109.318C346.938 100.262 344.472 92.6966 340.317 87.1619C335.268 80.4786 327.986 77.0382 318.37 77.4444Z" fill="#1D2332"/>
<path fill-rule="evenodd" clip-rule="evenodd" d="M324.033 168.447H342.226C344.705 168.447 347.082 169.431 348.836 171.182C350.59 172.934 351.577 175.309 351.58 177.788V184.935C351.577 187.414 350.59 189.789 348.836 191.541C347.082 193.292 344.705 194.276 342.226 194.276H324.033C322.807 194.276 321.592 194.034 320.459 193.565C319.326 193.095 318.296 192.407 317.429 191.54C316.562 190.672 315.874 189.642 315.405 188.509C314.936 187.376 314.696 186.162 314.696 184.935V177.788C314.696 176.561 314.936 175.347 315.405 174.214C315.874 173.081 316.562 172.051 317.429 171.183C318.296 170.316 319.326 169.628 320.459 169.158C321.592 168.689 322.807 168.447 324.033 168.447Z" fill="#1D2332"/>
<path fill-rule="evenodd" clip-rule="evenodd" d="M263.548 227.251H387.152C389.63 227.251 392.007 228.235 393.76 229.987C395.513 231.738 396.499 234.114 396.5 236.592V252.564C396.499 255.041 395.513 257.417 393.76 259.169C392.007 260.92 389.63 261.904 387.152 261.904H263.548C262.321 261.904 261.107 261.662 259.973 261.193C258.839 260.724 257.81 260.036 256.942 259.168C256.074 258.301 255.386 257.271 254.917 256.138C254.447 255.005 254.206 253.79 254.206 252.564V236.592C254.206 235.365 254.447 234.151 254.917 233.017C255.386 231.884 256.074 230.855 256.942 229.987C257.81 229.12 258.839 228.432 259.973 227.962C261.107 227.493 262.321 227.251 263.548 227.251Z" fill="#1D2332"/>
<path fill-rule="evenodd" clip-rule="evenodd" d="M209.338 168.813C209.338 168.813 233.351 204.655 242.896 220.603C252.442 236.552 272.672 272.144 290.928 258.818C309.184 245.492 292.518 205.664 270.832 172.549C249.146 139.434 212.675 128.875 209.338 168.813Z" fill="#1D2332"/>
<path fill-rule="evenodd" clip-rule="evenodd" d="M229.741 143.101C224.484 143.785 219.244 146.581 214.497 151.327C211.798 155.458 209.965 161.225 209.338 168.813C209.338 168.813 219.992 184.75 229.927 200.101C241.289 187.801 249.808 180.375 249.808 180.375C256.092 174.522 255.715 156.009 246.018 148.107C240.372 144.876 234.813 143.112 229.77 143.112L229.741 143.101Z" fill="#1D2332"/>
<path fill-rule="evenodd" clip-rule="evenodd" d="M148.019 269.991C146.626 274.847 145.936 281.623 150.218 285.011C154.501 288.4 162.265 286.288 167.047 279.21C171.829 272.132 183.655 248.816 203.321 223.028C215.132 207.54 228.341 193.169 242.781 180.097C251.056 171.313 248.677 155.452 238.719 147.608C228.761 139.764 216.622 141.389 206.803 151.669C203.681 154.93 186.998 171.771 172.728 201.133C158.459 230.495 148.019 269.991 148.019 269.991Z" fill="#1D2332"/>
<path fill-rule="evenodd" clip-rule="evenodd" d="M221.834 162.217C221.77 160.242 222.492 158.322 223.842 156.878C225.192 155.435 227.06 154.586 229.035 154.518C230.014 154.485 230.99 154.645 231.906 154.988C232.823 155.332 233.663 155.853 234.378 156.522C235.094 157.191 235.67 157.994 236.074 158.885C236.479 159.777 236.704 160.739 236.736 161.718C236.8 163.69 236.08 165.607 234.734 167.05C233.388 168.493 231.524 169.344 229.552 169.416C228.572 169.452 227.594 169.294 226.676 168.951C225.757 168.608 224.915 168.087 224.198 167.419C223.481 166.75 222.903 165.946 222.497 165.053C222.092 164.16 221.866 163.197 221.834 162.217Z" fill="#1D2332"/>
<path fill-rule="evenodd" clip-rule="evenodd" d="M220.4 159.594C220.336 157.618 221.059 155.698 222.41 154.254C223.762 152.811 225.631 151.962 227.607 151.896C228.586 151.863 229.561 152.024 230.477 152.368C231.393 152.712 232.232 153.233 232.947 153.902C233.661 154.571 234.237 155.373 234.641 156.264C235.045 157.156 235.27 158.118 235.302 159.095C235.339 160.076 235.181 161.054 234.839 161.974C234.496 162.893 233.975 163.736 233.306 164.454C232.637 165.172 231.833 165.751 230.94 166.157C230.046 166.564 229.082 166.79 228.101 166.823C227.12 166.856 226.142 166.696 225.223 166.35C224.305 166.004 223.463 165.48 222.748 164.809C222.032 164.137 221.456 163.331 221.054 162.436C220.651 161.541 220.429 160.575 220.4 159.594Z" fill="#1D2332"/>
<path fill-rule="evenodd" clip-rule="evenodd" d="M271.138 243.914C271.083 242.306 271.346 240.704 271.911 239.198C272.476 237.692 273.332 236.312 274.431 235.137C275.53 233.963 276.85 233.016 278.316 232.352C279.781 231.688 281.363 231.319 282.971 231.266C284.578 231.212 286.18 231.475 287.686 232.04C289.192 232.606 290.571 233.462 291.745 234.561C292.92 235.659 293.866 236.979 294.53 238.443C295.194 239.908 295.563 241.488 295.615 243.096C295.671 244.702 295.409 246.304 294.845 247.81C294.281 249.315 293.426 250.695 292.328 251.87C291.23 253.044 289.911 253.991 288.447 254.656C286.983 255.32 285.402 255.69 283.795 255.743C282.186 255.798 280.583 255.535 279.077 254.971C277.57 254.406 276.189 253.55 275.014 252.451C273.838 251.352 272.891 250.033 272.226 248.568C271.561 247.103 271.191 245.521 271.138 243.914Z" fill="#1D2332"/>
<path fill-rule="evenodd" clip-rule="evenodd" d="M222.865 160.441C224.494 158.074 226.594 156.068 229.033 154.547L222.865 160.441Z" fill="#1D2332"/>
<path fill-rule="evenodd" clip-rule="evenodd" d="M224.764 162.118C226.394 159.751 228.493 157.745 230.932 156.224L224.764 162.118Z" fill="#1D2332"/>
<path fill-rule="evenodd" clip-rule="evenodd" d="M269.432 242.284C269.382 240.809 269.624 239.339 270.143 237.958C270.662 236.576 271.448 235.311 272.456 234.233C273.464 233.156 274.675 232.287 276.019 231.678C277.363 231.068 278.814 230.729 280.289 230.681C281.764 230.629 283.234 230.868 284.616 231.386C285.998 231.903 287.265 232.687 288.343 233.695C289.421 234.702 290.29 235.912 290.899 237.255C291.509 238.599 291.847 240.049 291.895 241.524C291.946 242.998 291.705 244.467 291.187 245.848C290.669 247.229 289.884 248.494 288.877 249.572C287.87 250.65 286.66 251.518 285.317 252.128C283.974 252.738 282.524 253.077 281.049 253.127C279.574 253.179 278.103 252.939 276.721 252.422C275.338 251.905 274.071 251.121 272.992 250.114C271.913 249.107 271.043 247.897 270.432 246.553C269.821 245.21 269.481 243.759 269.432 242.284Z" fill="#1D2332"/>
<path fill-rule="evenodd" clip-rule="evenodd" d="M273.868 243.792C276.301 240.259 279.436 237.265 283.077 234.997L273.868 243.792Z" fill="#1D2332"/>
<path fill-rule="evenodd" clip-rule="evenodd" d="M276.699 246.339C279.132 242.806 282.267 239.812 285.909 237.544L276.699 246.339Z" fill="#1D2332"/>
<path fill-rule="evenodd" clip-rule="evenodd" d="M458.943 152.186C458.943 152.186 429.673 183.897 417.817 198.186C405.962 212.475 380.429 244.517 364.459 228.534C348.489 212.55 371.097 175.775 397.634 146.401C424.171 117.028 461.804 112.213 458.943 152.186Z" fill="#1D2332"/>
<path fill-rule="evenodd" clip-rule="evenodd" d="M442.732 123.642C447.827 125.128 452.597 128.713 456.537 134.114C458.556 138.616 459.485 144.598 458.939 152.192C458.939 152.192 445.946 166.295 433.766 179.923C424.435 165.999 417.169 157.361 417.169 157.361C411.854 150.608 415.086 132.368 425.874 126.067C431.95 123.747 437.712 122.859 442.703 123.637L442.732 123.642Z" fill="#1D2332"/>
<path fill-rule="evenodd" clip-rule="evenodd" d="M503.91 261.614C504.531 266.626 504.171 273.432 499.412 276.118C494.654 278.804 487.325 275.538 483.68 267.804C480.036 260.071 471.976 235.217 456.517 206.708C447.244 189.576 436.414 173.333 424.165 158.184C417.341 148.229 422.14 132.919 433.177 126.699C444.214 120.48 455.971 123.967 464.101 135.657C466.678 139.358 480.564 158.573 490.139 189.779C499.714 220.986 503.91 261.614 503.91 261.614Z" fill="#1D2332"/>
<path fill-rule="evenodd" clip-rule="evenodd" d="M447.609 143.744C447.976 141.805 447.558 139.799 446.447 138.168C445.336 136.536 443.623 135.412 441.684 135.042C439.744 134.678 437.74 135.097 436.108 136.207C434.477 137.317 433.352 139.028 432.979 140.965C432.615 142.904 433.034 144.909 434.145 146.539C435.255 148.17 436.966 149.295 438.904 149.668C440.844 150.032 442.848 149.613 444.48 148.502C446.111 147.392 447.236 145.682 447.609 143.744Z" fill="#1D2332"/>
<path fill-rule="evenodd" clip-rule="evenodd" d="M449.421 141.377C449.603 140.417 449.595 139.43 449.396 138.473C449.197 137.516 448.811 136.608 448.261 135.799C447.711 134.991 447.007 134.3 446.189 133.763C445.372 133.227 444.457 132.858 443.496 132.675C441.555 132.308 439.548 132.727 437.916 133.839C436.284 134.95 435.16 136.664 434.792 138.604C434.609 139.565 434.617 140.552 434.816 141.509C435.015 142.466 435.401 143.374 435.951 144.182C436.501 144.99 437.205 145.682 438.023 146.218C438.841 146.754 439.756 147.124 440.716 147.307C441.677 147.489 442.665 147.48 443.623 147.281C444.58 147.082 445.489 146.696 446.298 146.145C447.106 145.595 447.798 144.89 448.334 144.072C448.87 143.254 449.239 142.338 449.421 141.377Z" fill="#1D2332"/>
<path fill-rule="evenodd" clip-rule="evenodd" d="M386.283 216.861C386.585 215.282 386.571 213.658 386.245 212.083C385.918 210.509 385.284 209.014 384.379 207.684C383.475 206.354 382.316 205.216 380.971 204.334C379.626 203.452 378.121 202.843 376.54 202.543C374.961 202.242 373.338 202.255 371.763 202.581C370.189 202.908 368.694 203.541 367.365 204.445C366.035 205.349 364.897 206.506 364.015 207.85C363.133 209.194 362.524 210.699 362.224 212.278C361.623 215.465 362.31 218.761 364.135 221.441C365.961 224.122 368.775 225.97 371.962 226.579C375.15 227.188 378.449 226.506 381.134 224.684C383.82 222.862 385.672 220.048 386.283 216.861Z" fill="#1D2332"/>
<path fill-rule="evenodd" clip-rule="evenodd" d="M446.871 141.806C445.622 139.218 443.856 136.912 441.683 135.03L446.871 141.806Z" fill="#1D2332"/>
<path fill-rule="evenodd" clip-rule="evenodd" d="M444.725 143.2C443.483 140.61 441.721 138.303 439.549 136.423L444.725 143.2Z" fill="#1D2332"/>
<path fill-rule="evenodd" clip-rule="evenodd" d="M388.224 215.509C388.499 214.059 388.486 212.569 388.186 211.124C387.885 209.679 387.302 208.307 386.47 207.088C385.638 205.869 384.574 204.825 383.339 204.017C382.103 203.209 380.721 202.653 379.27 202.38C376.348 201.829 373.326 202.459 370.868 204.132C368.41 205.804 366.715 208.383 366.155 211.303C365.599 214.227 366.226 217.253 367.9 219.716C369.573 222.178 372.156 223.877 375.08 224.437C376.529 224.714 378.019 224.703 379.464 224.404C380.909 224.105 382.281 223.524 383.502 222.695C384.722 221.866 385.768 220.805 386.578 219.572C387.388 218.339 387.947 216.958 388.224 215.509Z" fill="#1D2332"/>
<path fill-rule="evenodd" clip-rule="evenodd" d="M383.607 216.321C381.743 212.455 379.106 209.012 375.86 206.204L383.607 216.321Z" fill="#1D2332"/>
<path fill-rule="evenodd" clip-rule="evenodd" d="M380.429 218.398C378.566 214.533 375.929 211.092 372.682 208.286L380.429 218.398Z" fill="#1D2332"/>
<path fill-rule="evenodd" clip-rule="evenodd" d="M231.289 217.024H263.205C265.683 217.024 268.059 218.008 269.812 219.76C271.564 221.511 272.548 223.887 272.548 226.364V293.877C272.542 296.35 271.555 298.72 269.803 300.467C268.052 302.213 265.679 303.194 263.205 303.194H231.289C230.062 303.197 228.847 302.958 227.713 302.492C226.578 302.025 225.547 301.34 224.678 300.474C223.809 299.609 223.118 298.581 222.647 297.449C222.175 296.317 221.931 295.103 221.929 293.877V226.364C221.928 225.136 222.17 223.92 222.64 222.785C223.11 221.65 223.8 220.62 224.67 219.752C225.539 218.884 226.571 218.197 227.707 217.728C228.843 217.26 230.06 217.021 231.289 217.024Z" fill="#1D2332"/>
<path d="M263.207 304.9H231.29C228.366 304.9 225.562 303.738 223.494 301.671C221.426 299.604 220.265 296.8 220.265 293.877V226.364C220.265 223.441 221.426 220.637 223.494 218.57C225.562 216.503 228.366 215.341 231.29 215.341H263.207C266.128 215.35 268.927 216.515 270.993 218.58C273.059 220.645 274.223 223.444 274.232 226.364V293.877C274.223 296.797 273.059 299.596 270.993 301.661C268.927 303.726 266.128 304.89 263.207 304.9ZM231.29 218.724C229.264 218.727 227.322 219.533 225.89 220.965C224.457 222.397 223.651 224.339 223.648 226.364V293.877C223.657 295.898 224.466 297.834 225.898 299.261C227.33 300.688 229.268 301.491 231.29 301.494H263.207C265.224 301.483 267.155 300.677 268.58 299.251C270.006 297.824 270.811 295.893 270.82 293.877V226.364C270.817 224.344 270.015 222.406 268.589 220.975C267.162 219.544 265.228 218.734 263.207 218.724H231.29Z" fill="#1D2332"/>
<path fill-rule="evenodd" clip-rule="evenodd" d="M173.686 205.142C173.686 205.142 196.475 241.767 205.463 258.023C214.452 274.279 233.503 310.533 252.183 297.827C270.863 285.122 255.56 244.755 234.995 210.915C214.429 177.074 178.363 165.338 173.686 205.142Z" fill="#00AF9D"/>
<path d="M244.098 302.179C242.846 302.175 241.6 302.023 240.384 301.726C225.61 298.181 212.634 274.598 204.887 260.5L203.97 258.847C195.127 242.811 172.472 206.407 172.24 206.053C172.037 205.726 171.951 205.339 171.996 204.956C173.737 190.221 180.039 180.938 189.776 178.85C204.168 175.711 223.358 188.561 236.45 210.091C247.87 228.841 256.244 247.244 259.957 261.881C264.681 280.376 262.389 292.942 253.145 299.231C250.501 301.115 247.344 302.143 244.098 302.179ZM175.443 204.753C178.24 209.244 198.655 242.138 206.947 257.205L207.864 258.864C214.828 271.575 227.861 295.228 241.179 298.419C244.713 299.272 248.003 298.616 251.23 296.423C268.836 284.455 253.638 244.871 233.542 211.82C221.391 191.828 203.286 179.331 190.502 182.127C182.296 183.914 177.097 191.735 175.443 204.753Z" fill="#1D2332"/>
<path fill-rule="evenodd" clip-rule="evenodd" d="M194.942 180.132C189.661 180.637 184.329 183.27 179.425 187.836C176.593 191.897 174.574 197.583 173.674 205.142C173.674 205.142 183.806 221.427 193.219 237.097C204.976 225.192 213.738 218.039 213.738 218.039C220.226 212.406 220.464 193.881 211.045 185.666C205.515 182.249 200.02 180.3 194.954 180.132H194.942Z" fill="#1D2332"/>
<path fill-rule="evenodd" clip-rule="evenodd" d="M109.01 304.209C107.461 309.019 106.532 315.766 110.705 319.293C114.877 322.82 122.694 320.976 127.719 314.072C132.744 307.168 145.319 284.252 165.839 259.143C178.162 244.052 191.845 230.124 206.715 217.534C215.286 209.035 213.429 193.098 203.767 184.924C194.105 176.75 181.89 177.962 171.705 187.929C168.485 191.079 151.25 207.358 135.994 236.221C120.738 265.084 109.01 304.209 109.01 304.209Z" fill="white"/>
<path d="M115.841 322.751C113.573 322.794 111.364 322.029 109.609 320.592C104.386 316.166 105.965 308.119 107.386 303.704C107.682 302.724 119.462 263.888 134.492 235.426C141.27 222.605 152.957 203.802 170.14 187.082L170.517 186.716C181.386 176.105 194.547 174.899 204.865 183.647C207.57 186.006 209.765 188.891 211.316 192.127C212.866 195.363 213.74 198.882 213.882 202.467C214.138 208.896 212.02 214.651 207.917 218.741L207.789 218.857C193.022 231.391 179.423 245.238 167.157 260.228C152.371 278.322 141.519 295.617 135.043 305.903C132.513 309.964 130.511 313.12 129.095 315.069C125.967 319.368 121.662 322.13 117.28 322.664C116.803 322.721 116.322 322.75 115.841 322.751ZM189.823 181.193C184.142 181.193 178.287 183.856 172.896 189.13L172.513 189.507C155.644 205.931 144.16 224.409 137.498 237.021C122.509 265.402 110.752 304.319 110.636 304.702C110.639 304.714 110.639 304.725 110.636 304.737C109.708 307.638 107.949 314.733 111.797 318.005C112.505 318.561 113.321 318.962 114.193 319.184C115.066 319.406 115.975 319.443 116.863 319.293C120.263 318.881 123.826 316.56 126.339 313.079C127.685 311.223 129.664 308.079 132.142 304.104C138.664 293.72 149.551 276.344 164.505 258.069C176.9 242.938 190.638 228.958 205.549 216.298C208.933 212.916 210.673 208.066 210.459 202.63C210.34 199.512 209.587 196.452 208.244 193.635C206.901 190.819 204.996 188.307 202.648 186.252C198.702 182.864 194.315 181.205 189.823 181.205V181.193Z" fill="#1D2332"/>
<path fill-rule="evenodd" clip-rule="evenodd" d="M186.391 198.969C186.391 196.992 187.177 195.096 188.575 193.698C189.974 192.3 191.87 191.514 193.848 191.514C194.827 191.514 195.796 191.707 196.701 192.082C197.605 192.456 198.427 193.006 199.119 193.698C199.811 194.39 200.359 195.212 200.733 196.117C201.108 197.021 201.3 197.99 201.299 198.969C201.299 200.945 200.514 202.841 199.117 204.239C197.72 205.636 195.825 206.423 193.848 206.424C191.87 206.424 189.974 205.639 188.575 204.241C187.177 202.843 186.391 200.946 186.391 198.969Z" fill="#1D2332"/>
<path fill-rule="evenodd" clip-rule="evenodd" d="M185.049 196.301C185.055 194.329 185.843 192.439 187.239 191.046C188.636 189.654 190.527 188.871 192.5 188.869C194.473 188.872 196.364 189.655 197.761 191.048C199.158 192.44 199.948 194.329 199.957 196.301C199.956 197.281 199.762 198.251 199.387 199.156C199.011 200.06 198.461 200.883 197.767 201.575C197.074 202.267 196.25 202.816 195.345 203.19C194.439 203.564 193.468 203.757 192.488 203.756C190.513 203.753 188.62 202.966 187.225 201.568C185.83 200.17 185.048 198.276 185.049 196.301Z" fill="white"/>
<path d="M192.498 205.455C190.072 205.45 187.746 204.484 186.03 202.768C184.315 201.052 183.35 198.726 183.347 196.3C183.345 193.871 184.308 191.541 186.024 189.821C187.74 188.101 190.069 187.133 192.498 187.128C193.705 187.125 194.9 187.36 196.016 187.819C197.132 188.279 198.146 188.954 199.001 189.806C199.855 190.658 200.533 191.67 200.995 192.785C201.458 193.899 201.696 195.094 201.696 196.3C201.694 197.505 201.454 198.698 200.99 199.81C200.527 200.923 199.849 201.933 198.994 202.783C198.14 203.633 197.127 204.307 196.012 204.765C194.898 205.224 193.704 205.458 192.498 205.455ZM192.498 190.545C190.973 190.548 189.511 191.156 188.433 192.234C187.355 193.313 186.749 194.775 186.747 196.3C186.749 197.825 187.355 199.287 188.433 200.366C189.511 201.445 190.973 202.052 192.498 202.055C194.026 202.055 195.491 201.449 196.573 200.37C197.654 199.291 198.263 197.828 198.266 196.3C198.263 194.773 197.654 193.309 196.573 192.23C195.491 191.151 194.026 190.545 192.498 190.545Z" fill="#1D2332"/>
<path fill-rule="evenodd" clip-rule="evenodd" d="M232.933 282.273C232.933 279.025 234.224 275.91 236.521 273.613C238.819 271.317 241.934 270.026 245.183 270.026C248.432 270.026 251.548 271.317 253.846 273.613C256.143 275.91 257.433 279.025 257.433 282.273C257.432 285.521 256.141 288.634 253.843 290.93C251.546 293.225 248.431 294.515 245.183 294.515C241.935 294.515 238.821 293.225 236.523 290.93C234.226 288.634 232.935 285.521 232.933 282.273Z" fill="#1D2332"/>
<path d="M187.478 198.331C187.248 198.33 187.024 198.262 186.833 198.134C186.593 197.959 186.428 197.698 186.374 197.406C186.32 197.113 186.381 196.811 186.543 196.562C188.347 194.102 190.646 192.047 193.292 190.528C193.556 190.388 193.864 190.355 194.151 190.436C194.439 190.517 194.684 190.706 194.836 190.963C194.976 191.227 195.009 191.535 194.928 191.822C194.847 192.109 194.658 192.355 194.4 192.506C192.063 193.862 190.026 195.678 188.412 197.844C188.306 197.993 188.166 198.115 188.003 198.2C187.841 198.284 187.661 198.329 187.478 198.331Z" fill="#1D2332"/>
<path d="M189.317 200.101C189.089 200.099 188.867 200.03 188.679 199.903C188.435 199.729 188.269 199.468 188.213 199.174C188.158 198.88 188.219 198.576 188.383 198.325C190.193 195.871 192.493 193.818 195.137 192.298C195.401 192.158 195.709 192.125 195.996 192.206C196.284 192.287 196.529 192.475 196.681 192.733C196.819 192.996 196.851 193.302 196.77 193.588C196.689 193.874 196.501 194.118 196.246 194.27C193.907 195.623 191.869 197.439 190.257 199.607C190.151 199.758 190.01 199.882 189.847 199.968C189.683 200.054 189.501 200.099 189.317 200.101Z" fill="#1D2332"/>
<path fill-rule="evenodd" clip-rule="evenodd" d="M231.292 280.585C231.291 279.111 231.581 277.65 232.145 276.288C232.709 274.925 233.536 273.687 234.579 272.644C235.621 271.601 236.859 270.773 238.222 270.209C239.585 269.644 241.045 269.354 242.52 269.354C243.996 269.354 245.456 269.644 246.819 270.209C248.182 270.773 249.42 271.601 250.462 272.644C251.505 273.687 252.332 274.925 252.896 276.288C253.46 277.65 253.75 279.111 253.749 280.585C253.749 283.563 252.566 286.418 250.46 288.523C248.355 290.629 245.499 291.811 242.52 291.811C241.046 291.812 239.585 291.522 238.223 290.958C236.86 290.394 235.622 289.568 234.579 288.525C233.536 287.482 232.709 286.245 232.145 284.882C231.581 283.52 231.291 282.06 231.292 280.585Z" fill="#00AF9D"/>
<path d="M242.519 293.511C239.091 293.506 235.805 292.143 233.382 289.72C230.958 287.297 229.594 284.012 229.59 280.585C229.593 277.158 230.956 273.872 233.38 271.448C235.804 269.025 239.091 267.662 242.519 267.659C245.946 267.664 249.231 269.027 251.654 271.451C254.077 273.874 255.439 277.159 255.442 280.585C255.439 284.011 254.077 287.296 251.654 289.719C249.231 292.143 245.946 293.506 242.519 293.511ZM242.519 271.053C239.991 271.056 237.568 272.061 235.781 273.848C233.993 275.635 232.988 278.058 232.985 280.585C232.989 283.111 233.995 285.532 235.783 287.318C237.57 289.104 239.992 290.108 242.519 290.111C245.045 290.108 247.467 289.103 249.253 287.318C251.039 285.532 252.044 283.111 252.047 280.585C252.044 278.059 251.04 275.637 249.253 273.85C247.467 272.064 245.046 271.058 242.519 271.053Z" fill="#1D2332"/>
<path d="M235.669 283.939C235.325 283.94 234.989 283.837 234.705 283.643C234.335 283.387 234.081 282.995 233.999 282.552C233.918 282.109 234.015 281.652 234.27 281.281C236.961 277.611 240.388 274.543 244.332 272.272C244.527 272.161 244.742 272.091 244.965 272.064C245.187 272.037 245.412 272.054 245.628 272.114C245.844 272.175 246.045 272.277 246.221 272.416C246.397 272.554 246.544 272.726 246.654 272.921C246.764 273.116 246.835 273.331 246.862 273.553C246.889 273.776 246.871 274.001 246.811 274.217C246.751 274.432 246.648 274.634 246.51 274.81C246.371 274.986 246.199 275.133 246.004 275.242C242.527 277.266 239.496 279.974 237.096 283.202C236.937 283.433 236.724 283.621 236.475 283.749C236.226 283.878 235.949 283.943 235.669 283.939Z" fill="#1D2332"/>
<path d="M238.419 286.578C238.075 286.58 237.739 286.477 237.455 286.283C237.085 286.027 236.831 285.635 236.749 285.193C236.666 284.75 236.762 284.293 237.014 283.921C239.708 280.253 243.137 277.186 247.083 274.917C247.277 274.806 247.492 274.735 247.715 274.708C247.937 274.68 248.163 274.697 248.379 274.758C248.595 274.818 248.797 274.921 248.973 275.06C249.148 275.199 249.295 275.371 249.404 275.567C249.625 275.961 249.681 276.427 249.559 276.862C249.437 277.297 249.148 277.666 248.754 277.888C245.266 279.908 242.227 282.619 239.823 285.853C239.665 286.079 239.455 286.263 239.21 286.389C238.966 286.515 238.694 286.58 238.419 286.578Z" fill="#1D2332"/>
<path fill-rule="evenodd" clip-rule="evenodd" d="M402.769 217.024H370.853C368.375 217.024 365.999 218.008 364.246 219.76C362.494 221.511 361.51 223.887 361.51 226.364V293.877C361.51 296.354 362.494 298.73 364.246 300.481C365.999 302.233 368.375 303.217 370.853 303.217H402.769C403.996 303.217 405.21 302.976 406.344 302.506C407.477 302.037 408.506 301.349 409.373 300.481C410.241 299.614 410.928 298.584 411.397 297.451C411.866 296.318 412.107 295.103 412.106 293.877V226.364C412.107 225.138 411.866 223.924 411.397 222.79C410.928 221.657 410.241 220.627 409.373 219.76C408.506 218.893 407.477 218.205 406.344 217.735C405.21 217.266 403.996 217.024 402.769 217.024Z" fill="#1D2332"/>
<path d="M402.771 304.9H370.854C367.933 304.89 365.134 303.726 363.068 301.661C361.002 299.596 359.838 296.797 359.829 293.877V226.364C359.838 223.444 361.002 220.645 363.068 218.58C365.134 216.515 367.933 215.35 370.854 215.341H402.771C405.695 215.341 408.499 216.503 410.567 218.57C412.635 220.637 413.796 223.441 413.796 226.364V293.877C413.796 296.8 412.635 299.604 410.567 301.671C408.499 303.738 405.695 304.9 402.771 304.9ZM370.854 218.729C368.828 218.732 366.886 219.538 365.454 220.971C364.021 222.403 363.215 224.345 363.212 226.37V293.877C363.215 295.902 364.021 297.844 365.454 299.276C366.886 300.708 368.828 301.514 370.854 301.517H402.771C404.796 301.514 406.738 300.708 408.169 299.276C409.601 297.843 410.406 295.902 410.407 293.877V226.364C410.406 224.339 409.601 222.398 408.169 220.965C406.738 219.533 404.796 218.727 402.771 218.724L370.854 218.729Z" fill="#1D2332"/>
<path fill-rule="evenodd" clip-rule="evenodd" d="M258.454 190.244H400.418C402.896 190.244 405.272 191.228 407.025 192.979C408.777 194.731 409.761 197.107 409.761 199.584V229.677C409.761 232.154 408.777 234.53 407.025 236.281C405.272 238.033 402.896 239.017 400.418 239.017H258.454C255.976 239.017 253.6 238.033 251.848 236.281C250.096 234.53 249.112 232.154 249.112 229.677V199.584C249.112 197.107 250.096 194.731 251.848 192.979C253.6 191.228 255.976 190.244 258.454 190.244Z" fill="#4F5865"/>
<path d="M400.42 240.717H258.456C255.532 240.717 252.727 239.555 250.66 237.488C248.592 235.421 247.43 232.617 247.43 229.694V199.584C247.439 196.663 248.604 193.865 250.67 191.8C252.735 189.735 255.534 188.57 258.456 188.561H400.42C403.341 188.57 406.14 189.735 408.206 191.8C410.272 193.865 411.436 196.663 411.445 199.584V229.676C411.448 231.125 411.164 232.561 410.611 233.9C410.058 235.239 409.246 236.457 408.222 237.482C407.198 238.508 405.982 239.321 404.643 239.876C403.304 240.431 401.869 240.717 400.42 240.717ZM258.456 191.943C256.43 191.946 254.488 192.752 253.055 194.185C251.623 195.617 250.816 197.558 250.813 199.584V229.676C250.815 231.702 251.621 233.645 253.053 235.078C254.486 236.51 256.429 237.316 258.456 237.317H400.42C402.446 237.316 404.389 236.51 405.822 235.078C407.255 233.645 408.061 231.702 408.062 229.676V199.584C408.059 197.558 407.253 195.617 405.82 194.185C404.388 192.752 402.446 191.946 400.42 191.943H258.456Z" fill="#1D2332"/>
<path fill-rule="evenodd" clip-rule="evenodd" d="M508.244 188.8C508.244 188.8 474.552 219.78 450.992 254.426C428.36 287.658 400.506 310.545 381.85 297.839C363.193 285.134 387.217 249.037 412.53 218.608C442.462 182.621 503.573 149.001 508.244 188.8Z" fill="#00AF9D"/>
<path d="M393.468 303.072C388.982 303.109 384.592 301.769 380.893 299.231C378.927 297.933 377.266 296.223 376.026 294.219C374.787 292.216 373.998 289.967 373.715 287.628C371.684 273.246 383.957 250.318 411.225 217.534C422.483 203.999 438.534 190.435 454.167 181.257C471.437 171.11 486.432 167.148 496.395 170.106C501.775 171.702 508.489 176.21 509.945 188.625C509.977 188.892 509.946 189.162 509.853 189.414C509.76 189.666 509.609 189.893 509.411 190.075C509.063 190.359 475.598 221.299 452.386 255.371C440.374 273.025 427.758 286.642 415.902 294.752C407.819 300.287 400.24 303.072 393.468 303.072ZM489.148 172.537C480.443 172.537 468.907 176.54 455.879 184.192C440.577 193.185 424.862 206.465 413.837 219.715C387.59 251.241 375.206 273.936 377.081 287.129C377.293 289.002 377.917 290.806 378.907 292.41C379.897 294.015 381.229 295.381 382.808 296.411C391.002 301.981 401.494 300.473 413.993 291.933C425.506 284.066 437.814 270.757 449.583 253.445C471.193 221.682 501.641 192.651 506.452 188.143C505.291 180.143 501.601 175.165 495.426 173.332C493.384 172.754 491.269 172.477 489.148 172.508V172.537Z" fill="#1D2332"/>
<path fill-rule="evenodd" clip-rule="evenodd" d="M486.976 171.464C492.263 171.969 497.601 174.602 502.499 179.168C505.331 183.229 507.362 188.915 508.244 196.474C508.244 196.474 498.13 212.759 488.705 228.429C476.943 216.524 468.186 209.371 468.186 209.371C461.698 203.738 461.455 185.213 470.879 176.999C476.415 173.581 481.904 171.632 486.965 171.464H486.976Z" fill="#1D2332"/>
<path fill-rule="evenodd" clip-rule="evenodd" d="M546.393 320.384C546.938 325.866 546.573 333.292 542.11 336.193C537.648 339.094 530.824 335.462 527.464 327.003C524.104 318.545 516.699 291.324 502.424 260.071C488.148 228.818 472.492 206.854 472.492 206.854C466.184 195.935 470.751 179.238 481.08 172.52C491.41 165.802 502.389 169.683 509.921 182.51C512.3 186.572 525.154 207.654 533.916 241.814C542.679 275.973 546.393 320.384 546.393 320.384Z" fill="white"/>
<path d="M538.699 338.879C537.749 338.876 536.806 338.725 535.902 338.432C531.782 337.121 528.027 333.083 525.863 327.63C524.923 325.257 523.675 321.451 522.097 316.607C518.035 304.169 511.199 283.341 500.875 260.756C486.849 230.008 471.28 208.026 471.106 207.811L471.019 207.672C464.404 196.219 468.843 178.426 480.153 171.064C485.045 167.891 490.273 166.835 495.281 168.018C501.45 169.474 507.015 174.179 511.384 181.623L511.675 182.11C524.383 203.651 531.677 226.202 535.56 241.367C544.206 275.062 547.984 319.218 548.065 320.204C548.558 325.164 548.552 333.994 543.011 337.609C541.729 338.446 540.23 338.887 538.699 338.879ZM473.926 205.931C485.435 222.862 495.485 240.739 503.968 259.369C514.367 282.129 521.226 303.066 525.329 315.574C526.89 320.337 528.12 324.103 529.02 326.377C530.813 330.89 533.772 334.186 536.935 335.195C537.626 335.447 538.365 335.539 539.096 335.465C539.828 335.39 540.533 335.151 541.159 334.766C545.349 332.045 545.018 323.923 544.682 320.552C544.647 320.111 540.898 275.88 532.275 242.231C528.445 227.304 521.249 205.055 508.75 183.856L508.46 183.363C504.572 176.738 499.755 172.584 494.533 171.348C490.389 170.374 486.188 171.244 482.039 173.942C472.29 180.265 468.297 196.086 473.926 205.931Z" fill="#1D2332"/>
<path fill-rule="evenodd" clip-rule="evenodd" d="M500.394 192.489C500.394 190.512 499.609 188.616 498.21 187.218C496.812 185.82 494.915 185.034 492.937 185.034C491.956 185.031 490.985 185.222 490.078 185.595C489.17 185.968 488.346 186.517 487.652 187.21C486.957 187.902 486.406 188.725 486.031 189.631C485.655 190.537 485.462 191.508 485.463 192.489C485.462 193.468 485.655 194.437 486.029 195.342C486.403 196.246 486.951 197.068 487.643 197.76C488.335 198.453 489.157 199.002 490.061 199.377C490.966 199.751 491.935 199.944 492.914 199.944C493.895 199.947 494.868 199.757 495.775 199.383C496.682 199.01 497.507 198.461 498.202 197.769C498.897 197.076 499.448 196.253 499.824 195.347C500.201 194.441 500.394 193.47 500.394 192.489Z" fill="#1D2332"/>
<path fill-rule="evenodd" clip-rule="evenodd" d="M501.739 189.82C501.739 187.843 500.954 185.947 499.555 184.549C498.157 183.151 496.26 182.365 494.282 182.365C492.306 182.367 490.41 183.153 489.013 184.551C487.616 185.949 486.831 187.844 486.831 189.82C486.831 190.799 487.023 191.768 487.397 192.673C487.771 193.577 488.32 194.399 489.012 195.091C489.704 195.784 490.525 196.333 491.43 196.708C492.334 197.082 493.303 197.275 494.282 197.275C496.26 197.275 498.157 196.49 499.555 195.092C500.954 193.694 501.739 191.797 501.739 189.82Z" fill="white"/>
<path d="M494.281 198.975C491.854 198.971 489.528 198.004 487.813 196.288C486.097 194.572 485.132 192.246 485.129 189.82C485.132 187.394 486.097 185.068 487.813 183.352C489.528 181.636 491.854 180.67 494.281 180.666C496.71 180.666 499.041 181.63 500.76 183.346C502.479 185.063 503.446 187.391 503.449 189.82C503.446 192.249 502.479 194.578 500.76 196.294C499.041 198.011 496.71 198.975 494.281 198.975ZM494.281 184.065C492.755 184.068 491.294 184.676 490.216 185.755C489.138 186.833 488.531 188.295 488.53 189.82C488.531 191.345 489.138 192.807 490.216 193.886C491.294 194.965 492.755 195.572 494.281 195.575C495.807 195.574 497.27 194.967 498.349 193.888C499.429 192.809 500.036 191.346 500.037 189.82C500.036 188.294 499.429 186.832 498.349 185.753C497.27 184.674 495.807 184.067 494.281 184.065Z" fill="#1D2332"/>
<path fill-rule="evenodd" clip-rule="evenodd" d="M453.989 141.395C453.988 140.416 453.795 139.447 453.419 138.543C453.044 137.638 452.494 136.817 451.801 136.125C451.108 135.433 450.286 134.885 449.381 134.511C448.476 134.137 447.506 133.945 446.527 133.946C445.548 133.945 444.578 134.137 443.673 134.511C442.769 134.885 441.947 135.434 441.254 136.126C440.562 136.817 440.012 137.639 439.638 138.543C439.263 139.447 439.07 140.416 439.07 141.395C439.073 143.37 439.86 145.263 441.258 146.659C442.656 148.054 444.551 148.838 446.527 148.838C448.503 148.84 450.4 148.057 451.799 146.661C453.198 145.265 453.986 143.371 453.989 141.395Z" fill="white"/>
<path d="M446.53 150.579C444.102 150.577 441.774 149.612 440.057 147.896C438.34 146.179 437.375 143.851 437.373 141.424C437.376 138.997 438.342 136.671 440.059 134.956C441.776 133.241 444.103 132.276 446.53 132.275C448.958 132.276 451.286 133.24 453.003 134.956C454.721 136.671 455.688 138.997 455.693 141.424C455.69 143.852 454.723 146.18 453.006 147.896C451.288 149.612 448.959 150.577 446.53 150.579ZM446.53 135.675C445.005 135.676 443.542 136.282 442.463 137.36C441.384 138.438 440.777 139.899 440.774 141.424C440.775 142.95 441.382 144.413 442.461 145.492C443.541 146.571 445.004 147.177 446.53 147.179C448.057 147.177 449.521 146.571 450.601 145.492C451.681 144.413 452.289 142.95 452.292 141.424C452.294 140.666 452.146 139.915 451.857 139.215C451.568 138.514 451.144 137.877 450.609 137.341C450.074 136.804 449.438 136.378 448.738 136.087C448.038 135.796 447.288 135.646 446.53 135.646V135.675Z" fill="#1D2332"/>
<path fill-rule="evenodd" clip-rule="evenodd" d="M234.077 159.733C234.079 157.761 233.297 155.868 231.905 154.47C230.512 153.073 228.622 152.284 226.649 152.278C224.672 152.278 222.775 153.064 221.376 154.462C219.978 155.86 219.192 157.756 219.192 159.733C219.192 160.712 219.385 161.681 219.76 162.585C220.135 163.489 220.684 164.311 221.377 165.003C222.069 165.694 222.891 166.243 223.796 166.617C224.701 166.991 225.67 167.183 226.649 167.182C228.621 167.176 230.511 166.389 231.903 164.992C233.295 163.596 234.077 161.705 234.077 159.733Z" fill="white"/>
<path d="M226.647 168.883C224.22 168.881 221.893 167.917 220.176 166.202C218.459 164.487 217.493 162.16 217.49 159.734C217.493 157.307 218.459 154.98 220.176 153.264C221.892 151.548 224.22 150.582 226.647 150.579C229.074 150.582 231.401 151.548 233.117 153.264C234.833 154.981 235.797 157.307 235.799 159.734C235.797 162.16 234.832 164.486 233.117 166.202C231.401 167.917 229.074 168.881 226.647 168.883ZM226.647 153.979C225.121 153.98 223.658 154.587 222.579 155.666C221.499 156.745 220.892 158.208 220.891 159.734C220.892 161.259 221.499 162.722 222.579 163.8C223.658 164.878 225.122 165.483 226.647 165.483C228.173 165.483 229.635 164.878 230.714 163.799C231.792 162.721 232.398 161.259 232.398 159.734C232.398 158.209 231.792 156.746 230.714 155.666C229.636 154.587 228.173 153.98 226.647 153.979Z" fill="#1D2332"/>
<path fill-rule="evenodd" clip-rule="evenodd" d="M401.102 282.273C401.102 280.665 400.785 279.072 400.169 277.585C399.553 276.099 398.65 274.749 397.512 273.611C396.374 272.474 395.023 271.572 393.536 270.957C392.049 270.342 390.456 270.026 388.846 270.026C385.598 270.028 382.484 271.319 380.188 273.615C377.892 275.912 376.602 279.026 376.602 282.273C376.604 285.519 377.894 288.632 380.19 290.928C382.486 293.223 385.599 294.513 388.846 294.515C390.455 294.515 392.048 294.199 393.535 293.585C395.021 292.97 396.372 292.068 397.51 290.932C398.648 289.795 399.551 288.445 400.167 286.96C400.784 285.474 401.101 283.882 401.102 282.273Z" fill="#1D2332"/>
<path d="M499.307 191.851C499.123 191.849 498.943 191.804 498.781 191.719C498.619 191.634 498.479 191.512 498.372 191.363C496.758 189.198 494.72 187.382 492.384 186.026C492.126 185.874 491.938 185.629 491.857 185.341C491.775 185.054 491.808 184.746 491.948 184.483C492.1 184.225 492.345 184.037 492.633 183.956C492.92 183.875 493.228 183.908 493.492 184.048C496.136 185.568 498.435 187.623 500.241 190.081C500.403 190.331 500.462 190.634 500.407 190.926C500.352 191.219 500.187 191.479 499.945 191.653C499.757 191.782 499.534 191.851 499.307 191.851Z" fill="#1D2332"/>
<path d="M451.56 143.431C451.377 143.429 451.196 143.383 451.034 143.297C450.871 143.211 450.732 143.088 450.626 142.938C449.005 140.776 446.967 138.961 444.631 137.601C444.375 137.448 444.188 137.202 444.108 136.915C444.028 136.628 444.061 136.32 444.202 136.057C444.354 135.8 444.599 135.611 444.887 135.53C445.174 135.449 445.482 135.482 445.746 135.622C448.387 137.147 450.685 139.201 452.494 141.656C452.657 141.905 452.717 142.207 452.663 142.5C452.609 142.792 452.445 143.053 452.204 143.228C452.014 143.358 451.79 143.429 451.56 143.431Z" fill="#1D2332"/>
<path d="M231.644 161.764C231.46 161.762 231.28 161.716 231.117 161.63C230.955 161.544 230.815 161.421 230.71 161.271C229.099 159.105 227.066 157.29 224.733 155.934C224.475 155.782 224.286 155.537 224.205 155.249C224.124 154.962 224.157 154.654 224.297 154.39C224.449 154.133 224.694 153.944 224.982 153.863C225.269 153.782 225.577 153.815 225.841 153.955C228.482 155.476 230.776 157.531 232.578 159.989C232.741 160.238 232.801 160.54 232.747 160.833C232.693 161.125 232.529 161.386 232.288 161.561C232.1 161.694 231.875 161.765 231.644 161.764Z" fill="#1D2332"/>
<path d="M497.467 193.621C497.283 193.62 497.101 193.575 496.938 193.49C496.774 193.406 496.633 193.283 496.527 193.133C494.913 190.965 492.876 189.147 490.538 187.79C490.281 187.638 490.092 187.393 490.011 187.106C489.93 186.818 489.963 186.511 490.103 186.247C490.256 185.991 490.501 185.803 490.789 185.723C491.076 185.643 491.383 185.677 491.646 185.817C494.291 187.335 496.59 189.388 498.395 191.845C498.559 192.095 498.621 192.399 498.567 192.692C498.513 192.986 498.347 193.248 498.105 193.423C497.916 193.55 497.694 193.619 497.467 193.621Z" fill="#1D2332"/>
<path d="M449.717 145.195C449.534 145.193 449.353 145.148 449.191 145.063C449.029 144.979 448.889 144.857 448.782 144.707C447.17 142.54 445.132 140.724 442.794 139.37C442.537 139.218 442.348 138.973 442.267 138.686C442.186 138.398 442.219 138.091 442.359 137.827C442.51 137.57 442.756 137.381 443.043 137.3C443.331 137.219 443.638 137.252 443.902 137.392C446.547 138.909 448.845 140.965 450.645 143.425C450.808 143.675 450.868 143.977 450.814 144.269C450.76 144.562 450.596 144.823 450.355 144.998C450.166 145.124 449.944 145.193 449.717 145.195Z" fill="#1D2332"/>
<path d="M229.815 163.534C229.631 163.531 229.45 163.485 229.288 163.4C229.126 163.314 228.986 163.191 228.88 163.04C227.26 160.878 225.221 159.063 222.886 157.703C222.63 157.55 222.442 157.305 222.362 157.017C222.282 156.73 222.316 156.423 222.456 156.16C222.608 155.903 222.853 155.714 223.141 155.633C223.428 155.552 223.736 155.585 224 155.725C226.642 157.247 228.938 159.301 230.743 161.758C230.828 161.88 230.888 162.018 230.919 162.163C230.95 162.309 230.953 162.459 230.926 162.605C230.899 162.751 230.843 162.89 230.762 163.015C230.681 163.14 230.576 163.247 230.453 163.331C230.267 163.464 230.043 163.535 229.815 163.534Z" fill="#1D2332"/>
<path fill-rule="evenodd" clip-rule="evenodd" d="M402.747 280.585C402.748 279.11 402.458 277.649 401.894 276.286C401.329 274.923 400.502 273.685 399.458 272.642C398.415 271.598 397.176 270.771 395.813 270.207C394.45 269.643 392.988 269.353 391.513 269.354C390.038 269.354 388.578 269.645 387.216 270.21C385.854 270.775 384.617 271.603 383.575 272.646C382.532 273.689 381.706 274.927 381.142 276.289C380.579 277.651 380.289 279.111 380.29 280.585C380.289 282.059 380.579 283.519 381.142 284.881C381.706 286.243 382.533 287.48 383.575 288.523C384.617 289.565 385.855 290.392 387.217 290.957C388.579 291.521 390.038 291.811 391.513 291.811C392.988 291.813 394.449 291.523 395.812 290.96C397.176 290.396 398.415 289.57 399.458 288.527C400.502 287.484 401.329 286.246 401.894 284.884C402.458 283.521 402.748 282.06 402.747 280.585Z" fill="#00AF9D"/>
<path d="M391.511 293.511C388.084 293.506 384.799 292.143 382.376 289.719C379.953 287.296 378.591 284.011 378.588 280.585C378.591 277.159 379.953 273.874 382.376 271.451C384.799 269.027 388.084 267.664 391.511 267.659C394.939 267.662 398.227 269.025 400.652 271.448C403.077 273.871 404.441 277.157 404.446 280.585C404.441 284.013 403.077 287.299 400.652 289.722C398.227 292.145 394.939 293.508 391.511 293.511ZM391.511 271.053C388.985 271.058 386.563 272.064 384.778 273.851C382.993 275.638 381.99 278.059 381.988 280.585C381.991 283.11 382.995 285.53 384.78 287.316C386.565 289.101 388.986 290.106 391.511 290.111C394.038 290.108 396.46 289.104 398.247 287.318C400.034 285.532 401.041 283.111 401.045 280.585C401.042 278.058 400.037 275.635 398.249 273.848C396.462 272.061 394.039 271.056 391.511 271.053Z" fill="#1D2332"/>
<path d="M398.369 283.944C398.092 283.944 397.82 283.876 397.575 283.746C397.33 283.617 397.121 283.43 396.965 283.202C394.558 279.972 391.522 277.262 388.04 275.236C387.844 275.127 387.671 274.981 387.532 274.805C387.393 274.629 387.29 274.427 387.23 274.212C387.17 273.996 387.153 273.77 387.18 273.548C387.207 273.325 387.279 273.11 387.39 272.916C387.499 272.72 387.646 272.548 387.822 272.41C387.998 272.271 388.2 272.169 388.415 272.108C388.631 272.048 388.856 272.031 389.079 272.058C389.301 272.085 389.516 272.156 389.711 272.266C393.655 274.537 397.082 277.605 399.773 281.276C399.9 281.459 399.989 281.666 400.036 281.885C400.082 282.103 400.085 282.328 400.044 282.548C400.003 282.767 399.919 282.976 399.797 283.163C399.675 283.35 399.517 283.511 399.332 283.637C399.051 283.836 398.714 283.944 398.369 283.944Z" fill="#1D2332"/>
<path d="M395.621 286.584C395.346 286.584 395.075 286.517 394.831 286.389C394.587 286.26 394.378 286.075 394.223 285.847C391.816 282.615 388.778 279.905 385.292 277.882C384.898 277.66 384.609 277.291 384.487 276.856C384.365 276.421 384.421 275.955 384.642 275.561C384.751 275.365 384.897 275.193 385.073 275.054C385.249 274.915 385.451 274.812 385.667 274.752C385.883 274.691 386.109 274.674 386.331 274.702C386.554 274.729 386.769 274.8 386.963 274.911C390.906 277.185 394.333 280.253 397.026 283.921C397.28 284.293 397.376 284.75 397.294 285.193C397.211 285.636 396.956 286.028 396.585 286.282C396.302 286.478 395.966 286.583 395.621 286.584Z" fill="#1D2332"/>
<path fill-rule="evenodd" clip-rule="evenodd" d="M274.233 186.177H382.047C383.124 186.177 384.157 186.605 384.919 187.366C385.681 188.128 386.109 189.161 386.109 190.238C386.109 191.315 385.681 192.348 384.919 193.109C384.157 193.871 383.124 194.299 382.047 194.299H274.233C273.156 194.299 272.123 193.871 271.361 193.109C270.599 192.348 270.171 191.315 270.171 190.238C270.171 189.161 270.599 188.128 271.361 187.366C272.123 186.605 273.156 186.177 274.233 186.177Z" fill="white"/>
<path d="M382.056 195.999H274.231C272.704 195.997 271.239 195.39 270.158 194.31C269.078 193.23 268.471 191.765 268.469 190.238C268.471 188.711 269.078 187.246 270.158 186.166C271.239 185.086 272.704 184.479 274.231 184.477H382.045C383.572 184.48 385.035 185.088 386.114 186.168C387.193 187.248 387.8 188.712 387.801 190.238C387.801 191.763 387.197 193.226 386.12 194.305C385.043 195.385 383.582 195.994 382.056 195.999ZM274.243 187.877C273.617 187.878 273.017 188.128 272.575 188.57C272.132 189.013 271.883 189.612 271.881 190.238C271.881 190.864 272.13 191.465 272.573 191.908C273.016 192.35 273.617 192.599 274.243 192.599H382.056C382.682 192.598 383.281 192.348 383.723 191.906C384.164 191.463 384.412 190.863 384.412 190.238C384.412 189.613 384.164 189.013 383.723 188.57C383.281 188.128 382.682 187.878 382.056 187.877H274.243Z" fill="#1D2332"/>
<path fill-rule="evenodd" clip-rule="evenodd" d="M292.937 130.743H372.658C375.136 130.743 377.513 131.727 379.266 133.479C381.019 135.23 382.005 137.606 382.007 140.084V171.412C382.007 176.569 283.594 176.569 283.594 171.412V140.084C283.594 137.606 284.578 135.231 286.33 133.479C288.083 131.727 290.459 130.743 292.937 130.743Z" fill="#00AF9D"/>
<path d="M332.801 176.97C319.872 176.97 307.814 176.628 298.854 176.001C293.991 175.659 290.178 175.247 287.521 174.771C284.671 174.255 281.892 173.576 281.892 171.406V140.078C281.901 137.157 283.066 134.359 285.131 132.294C287.197 130.229 289.996 129.064 292.917 129.055H372.639C375.56 129.064 378.359 130.229 380.425 132.294C382.491 134.359 383.655 137.157 383.664 140.078V171.406C383.664 173.576 380.885 174.255 378.035 174.771C375.378 175.247 371.565 175.659 366.708 176.001C357.795 176.628 345.73 176.97 332.801 176.97ZM285.292 170.739C288.496 172.149 305.643 173.576 332.801 173.576C359.959 173.576 377.101 172.149 380.304 170.739V140.084C380.301 138.057 379.494 136.115 378.061 134.682C376.627 133.25 374.683 132.445 372.656 132.443H292.935C290.909 132.446 288.967 133.252 287.534 134.685C286.102 136.117 285.295 138.058 285.292 140.084V170.739Z" fill="#1D2332"/>
<path fill-rule="evenodd" clip-rule="evenodd" d="M349.554 146.756C349.554 143.863 350.703 141.089 352.749 139.043C354.795 136.998 357.57 135.849 360.464 135.849C363.357 135.849 366.132 136.998 368.178 139.043C370.224 141.089 371.373 143.863 371.373 146.756C371.373 149.649 370.224 152.424 368.178 154.47C366.132 156.516 363.357 157.667 360.464 157.668C357.57 157.667 354.795 156.516 352.749 154.47C350.703 152.424 349.554 149.649 349.554 146.756Z" fill="#1D2332"/>
<path fill-rule="evenodd" clip-rule="evenodd" d="M346.892 144.197C346.892 141.304 348.041 138.53 350.087 136.485C352.133 134.439 354.908 133.29 357.802 133.29C359.235 133.289 360.654 133.571 361.978 134.119C363.303 134.666 364.506 135.47 365.52 136.483C366.533 137.495 367.337 138.698 367.886 140.022C368.435 141.345 368.717 142.764 368.717 144.197C368.719 145.632 368.438 147.053 367.89 148.379C367.343 149.705 366.538 150.91 365.524 151.925C364.509 152.939 363.304 153.744 361.978 154.293C360.652 154.841 359.231 155.123 357.796 155.121C356.362 155.12 354.943 154.836 353.62 154.286C352.296 153.736 351.093 152.931 350.081 151.917C349.068 150.902 348.266 149.698 347.719 148.374C347.171 147.049 346.891 145.63 346.892 144.197Z" fill="white"/>
<path d="M357.797 156.821C354.452 156.815 351.247 155.482 348.884 153.115C346.521 150.748 345.193 147.541 345.193 144.197C345.201 140.858 346.532 137.658 348.894 135.297C351.256 132.936 354.457 131.608 357.797 131.602C361.14 131.603 364.346 132.93 366.712 135.291C369.078 137.652 370.411 140.855 370.419 144.197C370.419 147.544 369.089 150.754 366.722 153.121C364.356 155.489 361.145 156.819 357.797 156.821ZM357.797 135.001C355.359 135.006 353.021 135.976 351.297 137.699C349.572 139.423 348.6 141.759 348.594 144.197C348.592 146.64 349.561 148.983 351.286 150.713C353.012 152.442 355.354 153.417 357.797 153.421C359.009 153.421 360.208 153.182 361.327 152.719C362.447 152.255 363.463 151.576 364.32 150.719C365.176 149.862 365.855 148.845 366.318 147.726C366.781 146.607 367.019 145.408 367.018 144.197C367.012 141.756 366.038 139.417 364.309 137.693C362.581 135.969 360.239 135.001 357.797 135.001Z" fill="#1D2332"/>
<path fill-rule="evenodd" clip-rule="evenodd" d="M359.832 133.122C359.678 133.122 359.53 133.183 359.421 133.292C359.313 133.401 359.251 133.548 359.251 133.702V137.183H356.385V133.754C356.385 133.601 356.324 133.453 356.215 133.344C356.106 133.235 355.958 133.174 355.804 133.174C355.647 133.174 355.496 133.234 355.381 133.342C355.267 133.45 355.198 133.597 355.189 133.754V137.189H352.288V135.402C352.288 135.248 352.227 135.101 352.118 134.992C352.009 134.883 351.861 134.822 351.708 134.822C351.554 134.822 351.406 134.883 351.297 134.992C351.188 135.101 351.127 135.248 351.127 135.402V137.189H349.206C349.128 137.185 349.049 137.197 348.975 137.224C348.902 137.252 348.834 137.294 348.777 137.348C348.72 137.403 348.675 137.468 348.644 137.54C348.613 137.613 348.597 137.69 348.597 137.769C348.597 137.848 348.613 137.926 348.644 137.998C348.675 138.07 348.72 138.136 348.777 138.19C348.834 138.244 348.902 138.286 348.975 138.314C349.049 138.341 349.128 138.353 349.206 138.349H351.127V141.418H348.069C347.915 141.418 347.768 141.479 347.659 141.588C347.55 141.697 347.489 141.845 347.489 141.998C347.489 142.152 347.55 142.3 347.659 142.409C347.768 142.517 347.915 142.579 348.069 142.579H351.127V145.648H348.069C347.915 145.648 347.768 145.709 347.659 145.817C347.55 145.926 347.489 146.074 347.489 146.228C347.489 146.382 347.55 146.529 347.659 146.638C347.768 146.747 347.915 146.808 348.069 146.808H351.127V149.999H349.218C349.064 149.999 348.917 150.06 348.808 150.169C348.699 150.277 348.638 150.425 348.638 150.579C348.638 150.733 348.699 150.88 348.808 150.989C348.917 151.098 349.064 151.159 349.218 151.159H351.127V153.074C351.127 153.227 351.188 153.375 351.297 153.484C351.406 153.593 351.554 153.654 351.708 153.654C351.861 153.654 352.009 153.593 352.118 153.484C352.227 153.375 352.288 153.227 352.288 153.074V151.159H355.189V153.932C355.189 154.011 355.205 154.09 355.237 154.163C355.268 154.235 355.314 154.301 355.371 154.355C355.429 154.41 355.497 154.452 355.572 154.479C355.646 154.506 355.725 154.517 355.804 154.512C355.958 154.512 356.106 154.451 356.215 154.342C356.324 154.234 356.385 154.086 356.385 153.932V151.159H359.251V153.932C359.251 154.086 359.313 154.234 359.421 154.342C359.53 154.451 359.678 154.512 359.832 154.512C359.986 154.512 360.133 154.451 360.242 154.342C360.351 154.234 360.412 154.086 360.412 153.932V151.159H363.313V153.932C363.313 154.086 363.375 154.234 363.483 154.342C363.592 154.451 363.74 154.512 363.894 154.512C364.048 154.512 364.195 154.451 364.304 154.342C364.413 154.234 364.474 154.086 364.474 153.932V151.159H367.526C367.68 151.159 367.828 151.098 367.937 150.989C368.046 150.88 368.107 150.733 368.107 150.579C368.107 150.425 368.046 150.277 367.937 150.169C367.828 150.06 367.68 149.999 367.526 149.999H364.474V146.93H367.526C367.68 146.93 367.828 146.869 367.937 146.76C368.046 146.651 368.107 146.503 368.107 146.35C368.107 146.196 368.046 146.048 367.937 145.939C367.828 145.831 367.68 145.769 367.526 145.769H364.474V142.7H367.526C367.68 142.7 367.828 142.639 367.937 142.53C368.046 142.422 368.107 142.274 368.107 142.12C368.107 141.966 368.046 141.819 367.937 141.71C367.828 141.601 367.68 141.54 367.526 141.54H364.474V138.396H366.412C366.566 138.396 366.714 138.335 366.823 138.226C366.931 138.117 366.993 137.969 366.993 137.816C366.993 137.662 366.931 137.514 366.823 137.405C366.714 137.296 366.566 137.235 366.412 137.235H364.474V135.408C364.474 135.254 364.413 135.106 364.304 134.998C364.195 134.889 364.048 134.828 363.894 134.828C363.74 134.828 363.592 134.889 363.483 134.998C363.375 135.106 363.313 135.254 363.313 135.408V137.235H360.412V133.754C360.419 133.674 360.41 133.593 360.384 133.516C360.358 133.44 360.316 133.37 360.262 133.31C360.207 133.25 360.141 133.203 360.067 133.171C359.992 133.138 359.913 133.122 359.832 133.122ZM352.288 138.401H355.189V141.47H352.288V138.401ZM356.385 138.401H359.251V141.47H356.385V138.401ZM360.447 138.401H363.348V141.47H360.447V138.401ZM352.276 142.671H355.178V145.74H352.276V142.671ZM356.373 142.671H359.24V145.74H356.373V142.671ZM360.435 142.671H363.337V145.74H360.435V142.671ZM352.265 146.947H355.166V149.999H352.265V146.947ZM356.362 146.947H359.228V149.999H356.362V146.947ZM360.424 146.947H363.325V149.999H360.424V146.947Z" fill="#1D2332"/>
<path fill-rule="evenodd" clip-rule="evenodd" d="M298.554 146.756C298.554 143.863 299.704 141.089 301.75 139.043C303.796 136.998 306.571 135.849 309.464 135.849C310.897 135.848 312.317 136.129 313.642 136.677C314.966 137.225 316.17 138.028 317.184 139.041C318.198 140.054 319.003 141.256 319.552 142.58C320.101 143.904 320.384 145.322 320.385 146.756C320.385 148.189 320.103 149.609 319.554 150.933C319.005 152.257 318.2 153.461 317.186 154.474C316.172 155.487 314.968 156.291 313.643 156.839C312.318 157.387 310.898 157.669 309.464 157.668C306.57 157.667 303.795 156.516 301.749 154.47C299.704 152.424 298.554 149.649 298.554 146.756Z" fill="#1D2332"/>
<path fill-rule="evenodd" clip-rule="evenodd" d="M295.887 144.197C295.888 142.764 296.171 141.345 296.72 140.021C297.27 138.698 298.074 137.495 299.088 136.482C300.102 135.469 301.306 134.666 302.631 134.119C303.955 133.571 305.375 133.289 306.808 133.29C309.702 133.29 312.477 134.439 314.523 136.485C316.569 138.53 317.718 141.304 317.718 144.197C317.718 147.09 316.569 149.865 314.523 151.911C312.477 153.958 309.702 155.108 306.808 155.11C305.374 155.11 303.954 154.829 302.629 154.281C301.304 153.733 300.101 152.929 299.086 151.915C298.072 150.902 297.268 149.699 296.719 148.374C296.17 147.05 295.887 145.63 295.887 144.197Z" fill="white"/>
<path d="M306.812 156.821C303.464 156.818 300.255 155.487 297.889 153.12C295.522 150.753 294.192 147.544 294.19 144.197C294.197 140.853 295.529 137.649 297.895 135.285C300.261 132.922 303.467 131.593 306.812 131.59C310.155 131.595 313.359 132.925 315.723 135.288C318.087 137.651 319.417 140.855 319.422 144.197C319.422 147.542 318.094 150.751 315.729 153.118C313.365 155.484 310.158 156.817 306.812 156.821ZM306.812 135.002C304.371 135.003 302.03 135.972 300.302 137.695C298.573 139.419 297.599 141.757 297.591 144.197C297.594 146.641 298.567 148.983 300.295 150.71C302.024 152.437 304.368 153.408 306.812 153.41C309.253 153.405 311.593 152.433 313.319 150.706C315.044 148.979 316.014 146.638 316.015 144.197C316.009 141.759 315.037 139.423 313.313 137.7C311.588 135.976 309.25 135.006 306.812 135.002Z" fill="#1D2332"/>
<path fill-rule="evenodd" clip-rule="evenodd" d="M308.843 133.122C308.689 133.122 308.542 133.183 308.433 133.292C308.324 133.401 308.263 133.548 308.263 133.702V137.183H305.361V133.754C305.361 133.601 305.3 133.453 305.191 133.344C305.083 133.235 304.935 133.174 304.781 133.174C304.627 133.174 304.48 133.235 304.371 133.344C304.262 133.453 304.201 133.601 304.201 133.754V137.189H301.299V135.402C301.299 135.323 301.283 135.246 301.253 135.173C301.222 135.101 301.176 135.036 301.119 134.981C301.062 134.927 300.995 134.885 300.921 134.857C300.847 134.83 300.769 134.818 300.69 134.822C300.536 134.822 300.388 134.883 300.28 134.992C300.171 135.101 300.11 135.248 300.11 135.402V137.189H298.195C298.041 137.189 297.893 137.25 297.784 137.359C297.676 137.468 297.614 137.615 297.614 137.769C297.614 137.923 297.676 138.071 297.784 138.179C297.893 138.288 298.041 138.349 298.195 138.349H300.11V141.418H297.057C296.903 141.418 296.756 141.479 296.647 141.588C296.538 141.697 296.477 141.845 296.477 141.998C296.477 142.152 296.538 142.3 296.647 142.409C296.756 142.517 296.903 142.579 297.057 142.579H300.11V145.648H297.057C296.903 145.648 296.756 145.709 296.647 145.818C296.538 145.926 296.477 146.074 296.477 146.228C296.477 146.382 296.538 146.529 296.647 146.638C296.756 146.747 296.903 146.808 297.057 146.808H300.11V149.999H298.212C298.058 149.999 297.911 150.06 297.802 150.169C297.693 150.277 297.632 150.425 297.632 150.579C297.632 150.733 297.693 150.88 297.802 150.989C297.911 151.098 298.058 151.159 298.212 151.159H300.11V153.074C300.11 153.227 300.171 153.375 300.28 153.484C300.388 153.593 300.536 153.654 300.69 153.654C300.769 153.658 300.847 153.646 300.921 153.618C300.995 153.591 301.062 153.549 301.119 153.494C301.176 153.44 301.222 153.375 301.253 153.302C301.283 153.23 301.299 153.152 301.299 153.074V151.159H304.201V153.932C304.201 154.086 304.262 154.234 304.371 154.342C304.48 154.451 304.627 154.512 304.781 154.512C304.935 154.512 305.083 154.451 305.191 154.342C305.3 154.234 305.361 154.086 305.361 153.932V151.159H308.263V153.932C308.263 154.086 308.324 154.234 308.433 154.342C308.542 154.451 308.689 154.512 308.843 154.512C308.997 154.512 309.145 154.451 309.254 154.342C309.362 154.234 309.423 154.086 309.423 153.932V151.159H312.325V153.932C312.325 154.086 312.386 154.234 312.495 154.342C312.604 154.451 312.751 154.512 312.905 154.512C312.984 154.516 313.062 154.504 313.136 154.477C313.21 154.449 313.277 154.407 313.334 154.353C313.391 154.299 313.437 154.233 313.468 154.161C313.499 154.089 313.515 154.011 313.515 153.932V151.159H316.596C316.75 151.159 316.897 151.098 317.006 150.989C317.115 150.88 317.176 150.733 317.176 150.579C317.176 150.425 317.115 150.277 317.006 150.169C316.897 150.06 316.75 149.999 316.596 149.999H313.549V146.93H316.596C316.75 146.93 316.897 146.869 317.006 146.76C317.115 146.651 317.176 146.503 317.176 146.35C317.176 146.196 317.115 146.048 317.006 145.939C316.897 145.831 316.75 145.769 316.596 145.769H313.549V142.7H316.596C316.75 142.7 316.897 142.639 317.006 142.531C317.115 142.422 317.176 142.274 317.176 142.12C317.176 141.966 317.115 141.819 317.006 141.71C316.897 141.601 316.75 141.54 316.596 141.54H313.549V138.396H315.488C315.639 138.389 315.783 138.325 315.89 138.218C315.997 138.111 316.061 137.967 316.068 137.816C316.061 137.664 315.997 137.52 315.89 137.413C315.783 137.306 315.639 137.242 315.488 137.235H313.549V135.408C313.549 135.329 313.534 135.251 313.503 135.179C313.472 135.107 313.426 135.041 313.369 134.987C313.312 134.933 313.245 134.891 313.171 134.863C313.097 134.836 313.019 134.824 312.94 134.828C312.786 134.828 312.639 134.889 312.53 134.998C312.421 135.106 312.36 135.254 312.36 135.408V137.235H309.458V133.754C309.461 133.672 309.448 133.59 309.418 133.513C309.389 133.436 309.344 133.366 309.286 133.307C309.229 133.247 309.16 133.201 309.084 133.169C309.007 133.137 308.926 133.121 308.843 133.122ZM301.299 138.401H304.201V141.471H301.299V138.401ZM305.361 138.401H308.263V141.471H305.361V138.401ZM309.423 138.401H312.325V141.471H309.423V138.401ZM301.259 142.671H304.16V145.74H301.259V142.671ZM305.321 142.671H308.222V145.74H305.321V142.671ZM309.383 142.671H312.284V145.74H309.383V142.671ZM301.218 146.947H304.12V149.999H301.218V146.947ZM305.28 146.947H308.182V149.999H305.28V146.947ZM309.342 146.947H312.244V149.999H309.342V146.947Z" fill="#1D2332"/>
<path fill-rule="evenodd" clip-rule="evenodd" d="M349.089 205.461H360.011C361.66 205.462 363.241 206.118 364.408 207.284C365.574 208.45 366.23 210.031 366.231 211.68C366.231 213.33 365.576 214.913 364.41 216.08C363.243 217.247 361.661 217.904 360.011 217.905H349.089C348.272 217.905 347.463 217.744 346.707 217.431C345.952 217.118 345.266 216.66 344.689 216.082C344.111 215.503 343.653 214.817 343.341 214.062C343.028 213.307 342.868 212.497 342.869 211.68C342.868 210.863 343.028 210.054 343.341 209.299C343.653 208.544 344.111 207.858 344.689 207.281C345.267 206.703 345.953 206.245 346.708 205.933C347.463 205.621 348.272 205.46 349.089 205.461Z" fill="#1D2332"/>
<path d="M360.014 219.617H349.093C346.993 219.612 344.98 218.776 343.495 217.29C342.01 215.805 341.175 213.792 341.172 211.692C341.172 209.591 342.006 207.575 343.491 206.088C344.976 204.601 346.991 203.764 349.093 203.761H360.014C362.114 203.763 364.128 204.598 365.613 206.082C367.099 207.567 367.934 209.581 367.935 211.68C367.937 213.783 367.103 215.8 365.618 217.288C364.133 218.776 362.117 219.614 360.014 219.617ZM349.093 207.161C347.895 207.162 346.746 207.639 345.898 208.486C345.051 209.334 344.574 210.482 344.572 211.68C344.574 212.879 345.051 214.028 345.898 214.876C346.745 215.725 347.894 216.202 349.093 216.206H360.014C361.214 216.204 362.363 215.727 363.211 214.878C364.059 214.03 364.535 212.879 364.535 211.68C364.535 211.087 364.418 210.499 364.191 209.951C363.963 209.403 363.63 208.904 363.211 208.485C362.791 208.065 362.293 207.732 361.744 207.505C361.196 207.278 360.608 207.161 360.014 207.161H349.093Z" fill="white"/>
<path fill-rule="evenodd" clip-rule="evenodd" d="M349.089 216.24H360.011C361.661 216.243 363.242 216.9 364.408 218.067C365.574 219.234 366.23 220.816 366.231 222.465C366.231 224.115 365.576 225.698 364.41 226.865C363.243 228.032 361.661 228.689 360.011 228.69H349.089C348.272 228.69 347.463 228.529 346.707 228.216C345.952 227.903 345.266 227.445 344.689 226.867C344.111 226.289 343.653 225.602 343.341 224.847C343.028 224.092 342.868 223.282 342.869 222.465C342.868 221.648 343.028 220.839 343.341 220.083C343.653 219.328 344.111 218.642 344.689 218.064C345.266 217.486 345.952 217.027 346.707 216.714C347.463 216.401 348.272 216.24 349.089 216.24Z" fill="#1D2332"/>
<path d="M360.014 230.391H349.093C346.993 230.386 344.98 229.55 343.495 228.064C342.01 226.579 341.175 224.566 341.172 222.466C341.175 220.366 342.01 218.353 343.495 216.868C344.98 215.382 346.993 214.546 349.093 214.541H360.014C362.115 214.544 364.129 215.38 365.614 216.866C367.099 218.352 367.934 220.366 367.935 222.466C367.934 224.566 367.099 226.58 365.614 228.066C364.129 229.552 362.115 230.388 360.014 230.391ZM349.093 217.941C347.894 217.944 346.745 218.422 345.898 219.27C345.051 220.118 344.574 221.267 344.572 222.466C344.574 223.665 345.051 224.814 345.898 225.662C346.745 226.51 347.894 226.988 349.093 226.991H360.014C361.214 226.99 362.363 226.512 363.211 225.664C364.059 224.815 364.535 223.665 364.535 222.466C364.535 221.267 364.059 220.117 363.211 219.268C362.363 218.42 361.214 217.942 360.014 217.941H349.093Z" fill="white"/>
<path fill-rule="evenodd" clip-rule="evenodd" d="M244.091 211.315H410.914C411.562 211.314 412.204 211.441 412.802 211.688C413.401 211.935 413.945 212.298 414.404 212.755C414.862 213.213 415.226 213.756 415.475 214.354C415.724 214.952 415.852 215.593 415.853 216.24C415.853 216.889 415.725 217.53 415.477 218.129C415.228 218.728 414.865 219.271 414.406 219.729C413.947 220.187 413.403 220.551 412.804 220.798C412.205 221.046 411.563 221.173 410.914 221.172H244.091C243.443 221.173 242.801 221.045 242.203 220.798C241.604 220.55 241.061 220.187 240.603 219.729C240.145 219.271 239.783 218.727 239.536 218.128C239.289 217.529 239.162 216.888 239.164 216.24C239.163 215.593 239.29 214.953 239.537 214.355C239.785 213.757 240.147 213.213 240.605 212.756C241.063 212.298 241.606 211.936 242.204 211.688C242.802 211.441 243.443 211.314 244.091 211.315Z" fill="white"/>
<path d="M410.916 222.872H244.092C242.335 222.869 240.65 222.169 239.408 220.926C238.165 219.683 237.467 217.998 237.465 216.241C237.467 214.484 238.166 212.8 239.408 211.557C240.651 210.315 242.335 209.617 244.092 209.615H410.916C411.788 209.614 412.651 209.784 413.458 210.116C414.264 210.448 414.996 210.936 415.614 211.551C416.231 212.166 416.722 212.897 417.057 213.702C417.392 214.506 417.565 215.369 417.566 216.241C417.563 218.001 416.861 219.689 415.614 220.932C414.367 222.176 412.677 222.873 410.916 222.872ZM244.092 213.009C243.237 213.009 242.416 213.349 241.811 213.954C241.206 214.559 240.866 215.379 240.866 216.235C240.866 217.091 241.206 217.912 241.811 218.518C242.415 219.124 243.236 219.465 244.092 219.466H410.916C411.774 219.466 412.597 219.126 413.204 218.52C413.811 217.914 414.153 217.092 414.154 216.235C414.153 215.81 414.069 215.39 413.906 214.999C413.743 214.607 413.504 214.251 413.203 213.952C412.903 213.652 412.546 213.415 412.154 213.253C411.761 213.091 411.341 213.008 410.916 213.009H244.092Z" fill="#1D2332"/>
<path fill-rule="evenodd" clip-rule="evenodd" d="M449.35 335.427C448.889 335.427 448.446 335.611 448.119 335.937C447.793 336.263 447.609 336.706 447.609 337.168C447.609 337.629 447.793 338.072 448.119 338.398C448.446 338.725 448.889 338.908 449.35 338.908H546.562C547.023 338.908 547.466 338.725 547.793 338.398C548.119 338.072 548.303 337.629 548.303 337.168C548.303 336.706 548.119 336.263 547.793 335.937C547.466 335.611 547.023 335.427 546.562 335.427H449.35Z" fill="#1D2332"/>
<path fill-rule="evenodd" clip-rule="evenodd" d="M312.276 335.427C311.814 335.427 311.371 335.611 311.045 335.937C310.718 336.263 310.535 336.706 310.535 337.168C310.535 337.629 310.718 338.072 311.045 338.398C311.371 338.725 311.814 338.908 312.276 338.908H381.54C382.002 338.908 382.444 338.725 382.771 338.398C383.097 338.072 383.281 337.629 383.281 337.168C383.281 336.706 383.097 336.263 382.771 335.937C382.444 335.611 382.002 335.427 381.54 335.427H312.276Z" fill="#1D2332"/>
</svg>
