<svg width="1162" height="993" viewBox="0 0 1162 993" fill="none" xmlns="http://www.w3.org/2000/svg">
<g clip-path="url(#clip0_3752_5344)">
<path d="M621.466 515.867C621.062 515.867 620.726 515.531 620.726 515.128V231.533C620.726 231.13 621.062 230.793 621.466 230.793C621.869 230.793 622.206 231.13 622.206 231.533V515.128C622.206 515.531 621.869 515.867 621.466 515.867Z" fill="black"/>
<path d="M650.756 471.397C650.353 471.397 650.016 471.061 650.016 470.658V231.533C650.016 231.13 650.353 230.793 650.756 230.793C651.16 230.793 651.496 231.13 651.496 231.533V470.624C651.496 471.061 651.16 471.397 650.756 471.397Z" fill="black"/>
<path d="M680.042 471.397C679.638 471.397 679.302 471.061 679.302 470.657V164.81C679.302 164.407 679.638 164.071 680.042 164.071C680.445 164.071 680.782 164.407 680.782 164.81V470.624C680.782 471.061 680.445 471.397 680.042 471.397Z" fill="black"/>
<path d="M709.333 471.397C708.93 471.397 708.594 471.06 708.594 470.657V201.885C708.594 201.482 708.93 201.146 709.333 201.146C709.737 201.146 710.073 201.482 710.073 201.885V470.657C710.073 471.06 709.737 471.397 709.333 471.397Z" fill="black"/>
<path d="M738.624 471.397C738.22 471.397 737.884 471.061 737.884 470.658V231.533C737.884 231.13 738.22 230.793 738.624 230.793C739.027 230.793 739.363 231.13 739.363 231.533V470.624C739.363 471.061 739.061 471.397 738.624 471.397Z" fill="black"/>
<path d="M814.284 425.044H575.096C574.693 425.044 574.356 424.708 574.356 424.304C574.356 423.901 574.693 423.565 575.096 423.565H814.284C814.688 423.565 815.024 423.901 815.024 424.304C815.058 424.708 814.721 425.044 814.284 425.044Z" fill="black"/>
<path d="M814.284 395.767H575.096C574.693 395.767 574.356 395.431 574.356 395.028C574.356 394.624 574.693 394.288 575.096 394.288H814.284C814.688 394.288 815.024 394.624 815.024 395.028C815.058 395.431 814.721 395.767 814.284 395.767Z" fill="black"/>
<path d="M814.284 366.457H575.096C574.693 366.457 574.356 366.12 574.356 365.717C574.356 365.314 574.693 364.978 575.096 364.978H814.284C814.688 364.978 815.024 365.314 815.024 365.717C815.058 366.154 814.721 366.457 814.284 366.457Z" fill="black"/>
<path d="M493.87 402.101C493.735 402.101 493.601 402.067 493.5 402C493.13 401.798 493.029 401.328 493.231 400.992L537.368 336.104C537.503 335.868 537.738 335.734 538.007 335.734H814.286C814.689 335.734 815.026 336.07 815.026 336.473C815.026 336.877 814.689 337.213 814.286 337.213H538.444L494.509 401.731C494.374 401.966 494.139 402.101 493.87 402.101Z" fill="black"/>
<path d="M715.872 209.267C719.837 205.303 719.837 198.876 715.872 194.911C711.906 190.947 705.476 190.947 701.51 194.911C697.544 198.876 697.544 205.303 701.51 209.267C705.476 213.232 711.906 213.232 715.872 209.267Z" fill="white"/>
<path d="M708.692 212.978C702.673 212.978 697.797 208.104 697.797 202.087C697.797 196.07 702.673 191.196 708.692 191.196C714.711 191.196 719.587 196.07 719.587 202.087C719.587 208.07 714.711 212.978 708.692 212.978ZM708.692 192.675C703.514 192.675 699.277 196.877 699.277 202.087C699.277 207.263 703.48 211.499 708.692 211.499C713.871 211.499 718.108 207.297 718.108 202.087C718.108 196.911 713.871 192.675 708.692 192.675Z" fill="black"/>
<path d="M490.155 418.642C495.337 416.497 497.797 410.558 495.651 405.378C493.505 400.199 487.564 397.739 482.382 399.885C477.2 402.03 474.74 407.969 476.886 413.148C479.032 418.328 484.973 420.788 490.155 418.642Z" fill="white"/>
<path d="M486.256 420.155C480.237 420.155 475.361 415.281 475.361 409.265C475.361 403.248 480.237 398.374 486.256 398.374C492.275 398.374 497.151 403.248 497.151 409.265C497.151 415.281 492.275 420.155 486.256 420.155ZM486.256 399.853C481.077 399.853 476.84 404.055 476.84 409.265C476.84 414.475 481.044 418.676 486.256 418.676C491.434 418.676 495.671 414.475 495.671 409.265C495.671 404.055 491.434 399.853 486.256 399.853Z" fill="black"/>
<path d="M628.674 526.378C632.64 522.414 632.64 515.987 628.674 512.022C624.708 508.058 618.279 508.058 614.313 512.022C610.347 515.987 610.347 522.414 614.313 526.378C618.279 530.342 624.708 530.342 628.674 526.378Z" fill="white"/>
<path d="M621.501 530.086C615.482 530.086 610.606 525.212 610.606 519.195C610.606 513.178 615.482 508.304 621.501 508.304C627.52 508.304 632.396 513.178 632.396 519.195C632.396 525.212 627.52 530.086 621.501 530.086ZM621.501 509.783C616.323 509.783 612.086 513.985 612.086 519.195C612.086 524.371 616.289 528.607 621.501 528.607C626.68 528.607 630.917 524.405 630.917 519.195C630.917 514.018 626.68 509.783 621.501 509.783Z" fill="black"/>
<path d="M883.236 307.891L448.301 308.263C447.988 308.263 447.745 308.094 447.606 307.824L409.094 229.616C408.921 229.244 409.094 228.805 409.477 228.636C409.859 228.467 410.311 228.636 410.485 229.008L448.787 306.81L883.236 306.438C883.653 306.438 884.001 306.776 884.001 307.181C884.001 307.553 883.688 307.891 883.236 307.891Z" fill="black"/>
<path d="M814.284 278.625H575.096C574.693 278.625 574.356 278.289 574.356 277.885C574.356 277.482 574.693 277.146 575.096 277.146H814.284C814.688 277.146 815.024 277.482 815.024 277.885C815.058 278.289 814.721 278.625 814.284 278.625Z" fill="black"/>
<path d="M770.366 443.934H619.045C609.528 443.934 601.828 436.237 601.828 426.724V275.465C601.828 265.952 609.528 258.255 619.045 258.255H770.366C779.882 258.255 787.583 265.952 787.583 275.465V426.724C787.583 436.237 779.882 443.934 770.366 443.934Z" fill="white"/>
<path d="M770.366 444.674H619.045C609.125 444.674 601.088 436.607 601.088 426.725V275.465C601.088 265.549 609.158 257.516 619.045 257.516H770.366C780.286 257.516 788.322 265.583 788.322 275.465V426.725C788.322 436.607 780.252 444.674 770.366 444.674ZM619.045 258.995C609.965 258.995 602.567 266.39 602.567 275.465V426.725C602.567 435.8 609.965 443.195 619.045 443.195H770.366C779.445 443.195 786.843 435.8 786.843 426.725V275.465C786.843 266.39 779.445 258.995 770.366 258.995H619.045Z" fill="black"/>
<path d="M750.794 295.028H638.615V407.162H750.794V295.028Z" fill="#00AF9D"/>
<path d="M750.794 407.901H638.615C638.211 407.901 637.875 407.565 637.875 407.162V295.028C637.875 294.625 638.211 294.289 638.615 294.289H750.794C751.198 294.289 751.534 294.625 751.534 295.028V407.162C751.534 407.565 751.198 407.901 750.794 407.901ZM639.355 406.422H750.054V295.768H639.355V406.422Z" fill="black"/>
<path d="M772.599 162.825C766.794 152.13 755.981 144.507 743.308 143.103C743.422 141.776 743.498 140.486 743.498 139.121C743.498 114.317 723.389 94.2546 698.613 94.2546C691.898 94.2546 685.561 95.7337 679.87 98.3506C673.572 79.9943 656.157 66.834 635.668 66.834C613.814 66.834 595.488 81.8148 590.328 102.067C581.488 96.3405 570.902 93.0409 559.596 93.0409C528.256 93.0409 502.835 118.451 502.835 149.778C502.835 154.292 503.366 158.653 504.353 162.863H772.599V162.825Z" fill="white"/>
<path d="M772.6 163.66H504.316C503.937 163.66 503.595 163.394 503.519 163.015C502.495 158.691 501.964 154.216 501.964 149.741C502.002 117.997 527.802 92.169 559.559 92.169C570.296 92.169 580.73 95.1272 589.798 100.74C595.527 80.2223 614.232 66 635.631 66C655.627 66 673.497 78.5156 680.327 97.2511C686.094 94.7101 692.24 93.4585 698.614 93.4585C723.845 93.4585 744.334 113.977 744.334 139.159C744.334 140.183 744.296 141.283 744.22 142.383C756.551 143.976 767.364 151.448 773.321 162.446C773.473 162.712 773.473 163.015 773.321 163.28C773.169 163.508 772.904 163.66 772.6 163.66ZM504.999 161.991H771.158C765.202 151.941 754.844 145.228 743.234 143.938C742.778 143.9 742.437 143.483 742.475 143.028C742.589 141.625 742.664 140.373 742.664 139.122C742.664 114.849 722.897 95.0893 698.614 95.0893C692.202 95.0893 686.018 96.4547 680.213 99.1095C679.985 99.2233 679.757 99.2233 679.53 99.1095C679.302 99.0336 679.15 98.844 679.074 98.6165C672.7 80.1085 655.247 67.6308 635.631 67.6308C614.574 67.6308 596.286 81.8531 591.126 102.219C591.05 102.485 590.861 102.675 590.633 102.788C590.367 102.902 590.102 102.864 589.874 102.712C580.844 96.8719 570.372 93.7998 559.597 93.7998C528.75 93.7998 503.671 118.869 503.671 149.703C503.671 153.875 504.126 157.971 504.999 161.991Z" fill="black"/>
<path d="M908.562 289.128H909.718L910.295 288.126L951.815 216.063L952.391 215.064L951.815 214.066L910.295 142.002L909.718 141H908.562H825.521H824.365L823.788 142.002L782.267 214.066L781.692 215.064L782.267 216.063L823.788 288.126L824.365 289.128H825.521H908.562Z" stroke="#1D2332" stroke-width="4"/>
<g clip-path="url(#clip1_3752_5344)">
<path d="M867.046 265.076C853.199 265.076 840.331 259.484 830.68 249.417C829.981 248.718 830.12 247.6 830.68 247.041C831.379 246.342 832.498 246.481 833.058 247.041C842.009 256.408 853.898 261.581 866.906 261.581C892.641 261.581 913.482 240.749 913.482 215.025C913.482 189.3 892.781 168.469 867.046 168.469C841.31 168.469 820.47 189.3 820.47 215.025C820.47 223.134 822.568 231.242 826.624 238.233C827.043 239.072 826.764 240.19 826.064 240.61C825.225 241.029 824.246 240.749 823.687 239.911C819.211 232.361 816.973 223.833 816.973 215.025C816.973 187.483 839.492 164.974 867.046 164.974C894.599 164.974 917.118 187.483 917.118 215.025C917.118 242.567 894.599 265.076 867.046 265.076Z" fill="#1D2332"/>
<path d="M867.045 265.076C851.52 265.076 838.932 242.567 838.932 215.025C838.932 202.023 841.729 189.72 846.764 180.352C847.184 179.514 848.303 179.234 849.142 179.653C849.981 180.073 850.261 181.191 849.841 182.03C845.086 190.838 842.428 202.582 842.428 215.025C842.428 240.749 853.478 261.581 867.185 261.581C880.752 261.581 891.941 240.749 891.941 215.025C891.941 189.3 880.612 168.469 867.045 168.469C862.29 168.469 857.534 171.125 853.478 176.298C852.918 176.997 851.799 177.137 851.1 176.578C850.401 176.018 850.261 174.9 850.82 174.201C855.436 168.049 861.171 164.974 867.045 164.974C882.57 164.974 895.158 187.483 895.158 215.025C895.158 242.567 882.57 265.076 867.045 265.076Z" fill="#1D2332"/>
<path d="M867.045 243.126C839.491 243.126 816.973 230.543 816.973 215.025C816.973 199.506 839.491 186.923 867.045 186.923C894.599 186.923 917.118 199.506 917.118 215.025C917.118 221.176 913.761 226.908 907.467 231.802C906.768 232.361 905.649 232.221 905.089 231.522C904.53 230.823 904.67 229.704 905.369 229.145C910.824 224.951 913.761 220.198 913.761 215.164C913.761 201.603 892.921 190.419 867.185 190.419C841.45 190.419 820.469 201.324 820.469 215.025C820.469 228.586 841.31 239.771 867.045 239.771C877.815 239.771 888.305 237.813 896.697 234.039C897.536 233.619 898.516 234.039 898.935 234.877C899.355 235.716 898.935 236.695 898.096 237.114C889.144 241.029 878.375 243.126 867.045 243.126Z" fill="#1D2332"/>
<path d="M857.394 228.306C856.555 228.306 855.995 227.747 855.715 227.048L849.142 203.84C848.862 202.861 849.421 202.022 850.4 201.743C851.24 201.463 852.219 202.022 852.498 203.001L857.394 220.197L862.289 203.001C862.569 202.022 863.548 201.603 864.387 201.743C865.366 202.022 865.786 203.001 865.646 203.84L859.072 227.048C858.792 227.747 858.093 228.306 857.394 228.306Z" fill="#1D2332"/>
<path d="M870.121 228.306C869.142 228.306 868.442 227.468 868.442 226.629V213.766V203.561C868.442 202.582 869.282 201.883 870.121 201.883H881.31C883.268 201.883 884.807 203.421 884.807 205.238V212.229C884.807 214.046 883.268 215.584 881.31 215.584H874.317L884.387 225.51C885.087 226.209 885.087 227.328 884.387 227.887C883.688 228.586 882.569 228.586 882.01 227.887L871.939 217.821V226.629C871.939 227.468 871.1 228.306 870.121 228.306ZM871.939 211.949H881.31C881.45 211.949 881.45 211.949 881.45 211.949V205.238C881.45 205.238 881.45 205.238 881.31 205.238H871.799V211.949H871.939Z" fill="#1D2332"/>
</g>
<path d="M423.969 346H425.125L425.702 344.998L468.734 270.312L469.309 269.314L468.734 268.316L425.702 193.629L425.125 192.627H423.969H337.906H336.75L336.173 193.629L293.142 268.316L292.567 269.314L293.142 270.312L336.173 344.998L336.75 346H337.906H423.969Z" fill="white" stroke="#1D2332" stroke-width="4"/>
<path d="M423.806 227.407H337.219C336.175 227.407 335.281 228.303 335.281 229.348V300.274C335.281 301.319 336.175 302.215 337.219 302.215H371.049V313.414H367.323C366.28 313.414 365.386 314.31 365.386 315.355C365.386 316.4 366.28 317.296 367.323 317.296C372.688 317.296 383.568 317.296 393.702 317.296C394.745 317.296 395.639 316.4 395.639 315.355C395.639 314.31 394.745 313.414 393.702 313.414H389.976V302.215H423.806C424.849 302.215 425.744 301.319 425.744 300.274V229.348C425.595 228.303 424.849 227.407 423.806 227.407ZM421.869 231.14V290.867H339.007V231.14H421.869ZM386.101 313.264H374.775V302.066H386.101V313.264ZM339.007 298.333V294.6H421.72V298.333C405.773 298.333 355.252 298.333 339.007 298.333Z" fill="#1D2332"/>
<path d="M344.822 272.202H374.927C375.97 272.202 376.864 271.306 376.864 270.261C376.864 265.184 376.864 245.475 376.864 236.665C376.864 235.62 375.97 234.724 374.927 234.724H344.822C343.779 234.724 342.885 235.62 342.885 236.665C342.885 239.651 342.885 261.75 342.885 270.261C342.736 271.456 343.63 272.202 344.822 272.202ZM346.61 268.469V249.805H372.989V268.469H346.61ZM346.61 238.606H372.989V246.072H346.61V238.606Z" fill="#1D2332"/>
<path d="M355.4 254.134C354.655 253.388 353.463 253.388 352.718 254.134L348.992 257.867C348.247 258.614 348.247 259.808 348.992 260.555L352.718 264.288C353.463 265.034 354.655 265.034 355.4 264.288C356.146 263.541 356.146 262.347 355.4 261.6L353.016 259.211L355.4 256.822C356.146 256.075 356.146 254.881 355.4 254.134Z" fill="#1D2332"/>
<path d="M366.729 254.135C365.983 253.388 364.791 253.388 364.046 254.135C363.301 254.881 363.301 256.076 364.046 256.822L366.43 259.211L364.195 261.601C363.003 262.795 363.897 264.736 365.536 264.736C365.983 264.736 366.43 264.587 366.878 264.139L370.603 260.406C371.349 259.659 371.349 258.465 370.603 257.718L366.729 254.135Z" fill="#1D2332"/>
<path d="M352.274 240.547H348.548V244.28H352.274V240.547Z" fill="#1D2332"/>
<path d="M359.725 240.547H355.999V244.28H359.725V240.547Z" fill="#1D2332"/>
<path d="M386.1 287.134H416.204C417.247 287.134 418.142 286.238 418.142 285.192C418.142 280.116 418.142 260.406 418.142 251.596C418.142 250.551 417.247 249.655 416.204 249.655H386.1C385.057 249.655 384.162 250.551 384.162 251.596C384.162 254.582 384.162 276.681 384.162 285.192C384.162 286.387 385.057 287.134 386.1 287.134ZM387.888 283.401V264.736H414.267V283.401H387.888ZM387.888 253.537H414.267V261.003H387.888V253.537Z" fill="#1D2332"/>
<path d="M396.832 269.067C396.087 268.32 394.895 268.32 394.15 269.067L390.424 272.8C389.679 273.546 389.679 274.741 390.424 275.487L394.15 279.22C394.895 279.967 396.087 279.967 396.832 279.22C397.577 278.474 397.577 277.279 396.832 276.533L394.448 274.144L396.832 271.754C397.577 271.008 397.577 269.813 396.832 269.067Z" fill="#1D2332"/>
<path d="M408.159 269.067C407.414 268.32 406.221 268.32 405.476 269.067C404.731 269.813 404.731 271.008 405.476 271.754L407.861 274.144L405.476 276.533C404.731 277.279 404.731 278.474 405.476 279.22C406.221 279.967 407.414 279.967 408.159 279.22L411.884 275.487C412.63 274.741 412.63 273.546 411.884 272.8L408.159 269.067Z" fill="#1D2332"/>
<path d="M393.702 255.478H389.977V259.211H393.702V255.478Z" fill="#1D2332"/>
<path d="M401.159 255.478H397.433V259.211H401.159V255.478Z" fill="#1D2332"/>
<path d="M922.809 573.142H923.998L924.592 572.111L971.861 490.07L972.453 489.042L971.861 488.015L924.592 405.972L923.998 404.942H922.809H828.27H827.08L826.486 405.972L779.217 488.015L778.625 489.042L779.217 490.07L826.486 572.111L827.08 573.142H828.27H922.809Z" fill="#00AF9D" stroke="#1D2332" stroke-width="4.11638"/>
<g clip-path="url(#clip2_3752_5344)">
<path d="M899.413 467.779C899.413 467.779 896.638 468.755 892.884 468.755C886.518 468.755 881.785 465.828 879.173 460.136C878.031 457.86 876.562 456.559 876.398 456.396C875.419 455.746 874.113 455.908 873.46 456.884L871.338 459.811C866.115 466.966 859.749 468.43 855.342 468.43C852.731 468.43 850.935 467.779 850.935 467.779C849.63 467.292 848.324 468.267 848.324 469.731V500.628C848.324 508.759 852.894 516.077 861.708 521.606C868.074 525.671 874.603 527.46 874.766 527.46C875.093 527.623 875.419 527.623 875.909 527.46C876.235 527.46 882.438 525.671 888.967 521.606C897.618 516.077 902.351 508.597 902.351 500.628V469.731C902.188 468.43 900.719 467.454 899.413 467.779ZM898.107 500.791C898.107 515.752 878.684 522.582 875.256 523.557C871.828 522.419 852.404 515.752 852.404 500.791V472.333C853.22 472.495 854.363 472.495 855.506 472.495C868.89 472.495 874.929 461.6 875.419 461.275C875.419 461.437 875.582 461.6 875.582 461.763C879.826 470.869 887.498 472.983 893.047 472.983C895.006 472.983 896.802 472.658 898.271 472.495L898.107 500.791Z" fill="#1D2332"/>
<path d="M882.442 487.131C881.463 486.48 880.157 486.805 879.668 487.619L872.975 497.863L870.69 495.587C869.874 494.774 868.568 494.774 867.752 495.587C866.936 496.4 866.936 497.701 867.752 498.514L871.833 502.579C872.812 503.555 874.281 503.393 874.934 502.254L883.095 489.895C883.748 488.919 883.422 487.619 882.442 487.131Z" fill="#1D2332"/>
<path d="M922.594 474.609H910.189V458.185C910.189 456.721 908.72 455.746 907.414 456.233C907.414 456.233 903.497 457.697 898.6 457.697C889.949 457.697 883.583 453.469 879.992 445.013C878.686 441.923 876.728 440.297 876.564 440.134C875.585 439.321 874.279 439.646 873.626 440.622L870.852 444.687C863.833 454.932 855.182 457.209 849.306 457.209C845.715 457.209 843.267 456.396 843.267 456.396C841.961 455.908 840.492 456.884 840.492 458.347V474.772H827.923C826.781 474.772 825.802 475.748 825.802 476.886C825.802 478.024 826.781 479 827.923 479H840.329V484.692H832.167C831.025 484.692 830.045 485.667 830.045 486.806C830.045 487.944 831.025 488.92 832.167 488.92H840.329V495.099H833.963C832.82 495.099 831.841 496.075 831.841 497.213C831.841 498.351 832.82 499.327 833.963 499.327H840.165C840.492 500.466 837.554 516.565 857.467 530.062C865.792 535.754 874.116 538.03 874.606 538.193C874.932 538.356 875.422 538.356 875.748 538.193C876.075 538.03 884.236 535.591 892.887 530.062C912.964 516.565 910.026 500.628 910.189 499.327H916.391C917.534 499.327 918.513 498.351 918.513 497.213C918.513 496.075 917.534 495.099 916.391 495.099H910.189V488.92H918.35C919.493 488.92 920.472 487.944 920.472 486.806C920.472 485.667 919.493 484.692 918.35 484.692H910.189V478.512H922.594C923.736 478.512 924.716 477.536 924.716 476.398C924.553 475.422 923.573 474.609 922.594 474.609ZM906.108 501.116C906.108 510.71 900.885 519.329 890.602 526.159C884.073 530.55 877.217 532.989 875.095 533.64C873.137 532.989 866.445 530.712 859.752 526.159C849.306 519.329 844.083 510.71 844.083 500.953V460.624C845.389 460.787 847.021 461.112 848.816 461.112C855.672 461.112 865.628 458.673 873.626 446.964L874.932 445.013C875.259 445.501 875.422 445.988 875.748 446.476C881.135 458.998 890.928 461.6 898.11 461.6C901.048 461.6 903.66 461.112 905.619 460.624V501.116H906.108Z" fill="#1D2332"/>
</g>
<path d="M262.284 802.443C313.168 751.588 313.168 669.137 262.284 618.283C211.4 567.429 128.9 567.429 78.0152 618.283C27.1308 669.137 27.1308 751.588 78.0152 802.443C128.9 853.297 211.4 853.297 262.284 802.443Z" fill="white"/>
<path d="M170.145 841.547C97.7619 841.547 38.8848 782.705 38.8848 710.365C38.8848 638.024 97.7619 579.182 170.145 579.182C242.529 579.182 301.406 638.024 301.406 710.365C301.406 782.705 242.529 841.547 170.145 841.547ZM170.145 581.104C98.8546 581.104 40.808 639.072 40.808 710.365C40.808 781.657 98.8546 839.625 170.145 839.625C241.436 839.625 299.483 781.657 299.483 710.365C299.483 639.072 241.48 581.104 170.145 581.104Z" fill="#1D2332"/>
<path d="M176.79 793.321C176.746 793.321 176.746 793.321 176.702 793.321C145.013 791.005 126.13 781.395 115.902 773.706C104.712 765.319 101.172 757.543 100.997 757.194C100.778 756.713 100.997 756.146 101.478 755.927C101.959 755.709 102.527 755.927 102.745 756.408C102.877 756.713 117.257 787.074 176.79 791.398C177.314 791.442 177.708 791.879 177.664 792.447C177.708 792.971 177.271 793.321 176.79 793.321Z" fill="#1D2332"/>
<path d="M13.4493 972.338C13.3182 972.338 13.1871 972.294 13.056 972.25C12.5752 972.032 12.3566 971.464 12.5751 970.984L85.7891 809.921C86.0076 809.44 86.5759 809.222 87.0567 809.44C87.5375 809.659 87.756 810.227 87.5375 810.707L14.3235 971.77C14.1487 972.119 13.799 972.338 13.4493 972.338Z" fill="#1D2332"/>
<path d="M18.3445 983.521C18.3445 988.675 14.1484 992.869 8.99061 992.869C3.83286 992.869 -0.363281 988.675 -0.363281 983.521C-0.363281 978.366 3.83286 974.172 8.99061 974.172C14.1484 974.172 18.3445 978.322 18.3445 983.521Z" fill="#1D2332"/>
<path d="M340.268 983.521C340.268 988.675 336.072 992.869 330.914 992.869C325.757 992.869 321.561 988.675 321.561 983.521C321.561 978.366 325.757 974.172 330.914 974.172C336.072 974.129 340.268 978.322 340.268 983.521Z" fill="#1D2332"/>
<path d="M326.849 972.338C326.499 972.338 326.149 972.119 325.975 971.77L252.761 810.707C252.542 810.227 252.761 809.659 253.241 809.44C253.722 809.222 254.291 809.44 254.509 809.921L327.723 970.984C327.942 971.464 327.723 972.032 327.242 972.25C327.111 972.294 326.98 972.338 326.849 972.338Z" fill="#1D2332"/>
<path d="M338.35 749.375C325.368 764.926 312.387 780.477 299.405 796.029C292.193 805.071 291.187 817.565 296.913 827.569C312.692 855.221 346.087 899.472 363.221 921.62C367.461 927.124 376.159 925.202 377.776 918.475L386.781 880.12C391.108 872.869 395.391 865.574 399.719 858.322C379.219 822.021 358.763 785.72 338.35 749.375Z" fill="white"/>
<path d="M369.645 925.814C366.847 925.814 364.181 924.547 362.389 922.232C344.293 898.817 311.642 855.483 296.038 828.049C290.093 817.653 291.142 804.853 298.616 795.418L337.562 748.763C337.78 748.501 338.086 748.37 338.392 748.414C338.698 748.457 339.004 748.632 339.135 748.894L400.46 857.842C400.635 858.148 400.635 858.497 400.46 858.803L387.61 880.47L378.649 918.694C377.819 922.188 375.152 924.809 371.656 925.596C371 925.77 370.301 925.814 369.645 925.814ZM338.174 751.078L300.146 796.684C293.153 805.465 292.191 817.434 297.742 827.132C313.303 854.435 345.91 897.725 363.963 921.096C365.711 923.324 368.508 924.372 371.262 923.761C374.016 923.149 376.158 921.052 376.813 918.3L385.818 879.946C385.861 879.859 385.861 879.771 385.905 879.684L398.537 858.366L338.174 751.078Z" fill="#1D2332"/>
<path d="M378.517 878.679C378.255 878.679 377.993 878.592 377.818 878.373C352.16 849.673 331.879 817.041 317.586 781.308C317.367 780.827 317.629 780.259 318.11 780.041C318.591 779.866 319.159 780.084 319.378 780.565C333.584 816.08 353.734 848.537 379.26 877.063C379.61 877.456 379.566 878.068 379.173 878.417C378.998 878.592 378.736 878.679 378.517 878.679Z" fill="#1D2332"/>
<path d="M540.898 910.568H418.467L433.94 950.495C442.638 965.872 458.068 976.269 475.595 978.584L584.171 992.825C591.252 993.743 595.841 985.574 591.339 980.026C578.008 963.601 556.59 938.963 540.898 910.568Z" fill="white"/>
<path d="M585.308 993.83C584.914 993.83 584.477 993.787 584.084 993.743L475.509 979.502C457.762 977.187 441.939 966.484 433.154 950.933C433.11 950.889 433.11 950.845 433.11 950.802L417.637 910.874C417.506 910.569 417.549 910.263 417.724 910.001C417.899 909.739 418.205 909.564 418.511 909.564H540.942C541.292 909.564 541.598 909.739 541.773 910.044C555.454 934.813 573.55 956.743 586.75 972.775C588.673 975.09 590.465 977.274 592.126 979.327C594.487 982.21 594.793 986.011 593.001 989.243C591.383 992.17 588.498 993.83 585.308 993.83ZM434.858 950.059C443.382 965.086 458.637 975.352 475.771 977.624L584.346 991.865C587.799 992.301 590.203 990.336 591.296 988.37C592.389 986.404 592.826 983.302 590.597 980.594C588.936 978.541 587.143 976.357 585.22 974.041C572.064 958.097 554.055 936.255 540.33 911.53H419.866L434.858 950.059Z" fill="#1D2332"/>
<path d="M426.948 605.742L299.272 623.434L204.727 622.997C188.642 680.267 374.453 701.934 374.453 701.934C356.051 722.902 337.649 743.914 319.247 764.883C331.53 770.736 349.407 781.089 366.803 798.738C387.872 820.186 398.537 842.596 403.826 856.269C433.155 805.159 462.44 754.093 491.77 703.026C519.394 656.284 480.799 598.272 426.948 605.742Z" fill="#00AF9D"/>
<path d="M560.789 925.853L562.516 925.85L561.653 924.354C529.751 869.017 489.69 794.921 464.796 738.835C443.433 690.631 395.113 660.036 342.387 661.4C342.387 661.4 342.387 661.4 342.387 661.4L243.654 663.907L245.152 613.46L245.178 612.601L244.333 612.447L235.984 610.918L235.804 610.885L235.623 610.918L104.363 635.075L103.731 635.191L103.574 635.815C95.9902 665.967 96.7192 689.1 102.155 706.842C107.594 724.592 117.722 736.869 128.802 745.337C139.87 753.795 151.879 758.446 161.105 760.983C165.721 762.253 169.648 762.996 172.427 763.421C173.816 763.634 174.918 763.768 175.676 763.849C176.056 763.889 176.349 763.916 176.548 763.934C176.648 763.942 176.725 763.948 176.777 763.952L176.837 763.957L176.854 763.958L176.858 763.958C176.86 763.958 176.861 763.958 176.927 762.96L176.861 763.958L176.867 763.959C178.304 764.046 217.613 766.753 256.574 769.44C276.052 770.784 295.44 772.121 309.959 773.123L327.487 774.333L332.392 774.672L333.574 774.754C360.631 825.308 387.688 875.863 414.745 926.46L415.028 926.991L415.629 926.989C438.247 926.925 462.12 926.676 486.03 926.427L488.201 926.405C512.837 926.148 537.474 925.897 560.789 925.853Z" fill="#1D2332" stroke="#1D2332" stroke-width="2"/>
<path d="M466.462 745.924C466.113 745.924 465.763 745.705 465.588 745.356C464.714 743.434 463.883 741.512 463.009 739.633C446.618 702.677 413.311 675.33 373.885 666.463C373.36 666.331 373.054 665.851 373.142 665.327C373.273 664.803 373.754 664.497 374.278 664.584C414.273 673.583 448.104 701.366 464.714 738.891C465.544 740.769 466.418 742.691 467.293 744.613C467.511 745.094 467.293 745.662 466.812 745.88C466.724 745.88 466.593 745.924 466.462 745.924Z" fill="#1D2332"/>
<path d="M554.885 955.607C535.871 955.607 490.719 953.117 427.427 933.59C426.903 933.415 426.641 932.891 426.772 932.367C426.947 931.843 427.471 931.581 427.952 931.712C512.355 957.704 564.195 953.379 564.72 953.335C565.288 953.291 565.725 953.685 565.769 954.209C565.813 954.733 565.419 955.214 564.895 955.257C564.764 955.301 561.354 955.607 554.885 955.607Z" fill="#1D2332"/>
<path d="M302.375 495.135L326.721 472.55L373.972 468.618C373.972 468.618 402.82 413.184 410.338 397.501C417.856 381.818 425.637 363.602 439.449 370.461C439.449 370.461 452.562 365.219 457.151 377.232C457.151 377.232 464.713 375.746 472.319 386.099C479.924 396.409 478.963 402.35 475.072 406.107C471.182 409.864 459.599 398.549 459.599 398.549L453.698 405.058C452.212 406.718 451.819 409.121 452.824 411.087C454.223 413.839 456.889 417.071 461.61 416.547C467.991 415.805 474.023 413.62 477.52 417.159C479.225 418.862 478.919 421.702 476.908 423.056C472.1 426.289 461.654 432.798 451.469 436.511C451.469 436.511 446.486 456.562 440.411 478.753C431.144 512.477 402.602 537.421 367.94 542.139L338.785 546.114L302.375 495.135Z" fill="white"/>
<path d="M338.873 547.031C338.567 547.031 338.261 546.9 338.086 546.638L301.589 495.702C301.326 495.309 301.37 494.785 301.72 494.435L326.066 471.851C326.241 471.72 326.416 471.632 326.634 471.589L373.36 467.701C376.201 462.284 402.427 411.785 409.464 397.064L410.557 394.792C416.021 383.347 421.659 371.509 429.877 368.626C432.936 367.577 436.171 367.839 439.493 369.412C441.023 368.888 446.487 367.315 451.382 369.456C454.223 370.679 456.365 372.95 457.764 376.183C459.993 376.096 466.549 376.62 473.106 385.488C480.012 394.836 480.886 401.782 475.772 406.762C471.838 410.606 462.79 402.786 459.687 399.903L454.442 405.713C453.218 407.068 452.912 409.077 453.742 410.65C455.622 414.319 458.244 415.935 461.566 415.586C462.965 415.411 464.364 415.193 465.719 414.974C470.614 414.144 475.204 413.402 478.22 416.46C479.225 417.464 479.706 418.862 479.575 420.304C479.444 421.745 478.657 423.012 477.433 423.842C472.275 427.293 462.266 433.54 452.3 437.253C451.513 440.486 446.836 459.008 441.329 479.015C431.931 513.176 403.17 538.338 368.027 543.099L338.873 547.075C338.96 547.031 338.917 547.031 338.873 547.031ZM303.643 495.265L339.31 545.021L367.896 541.134C402.252 536.459 430.401 511.865 439.58 478.447C445.612 456.518 450.595 436.423 450.639 436.205C450.726 435.899 450.945 435.637 451.251 435.549C461.173 431.924 471.314 425.633 476.471 422.182C477.215 421.702 477.652 420.915 477.739 420.042C477.826 419.168 477.521 418.338 476.952 417.726C474.592 415.367 470.658 416.023 466.112 416.765C464.714 416.984 463.315 417.246 461.829 417.421C457.72 417.901 454.267 415.761 452.038 411.48C450.858 409.164 451.251 406.325 453.043 404.359L458.944 397.85C459.119 397.675 459.381 397.544 459.643 397.544C459.905 397.544 460.168 397.632 460.343 397.807C464.888 402.219 472.275 407.504 474.461 405.364C478.744 401.214 477.826 395.054 471.576 386.623C464.408 376.926 457.414 378.149 457.37 378.149C456.889 378.236 456.452 377.974 456.278 377.537C455.097 374.436 453.174 372.339 450.639 371.203C445.7 369.062 439.843 371.29 439.799 371.334C439.537 371.421 439.274 371.421 439.012 371.29C435.996 369.805 433.199 369.499 430.532 370.417C423.014 372.994 417.594 384.483 412.305 395.579L411.213 397.85C403.782 413.358 375.152 468.443 374.846 469.011C374.671 469.317 374.409 469.492 374.059 469.536L327.115 473.467L303.643 495.265Z" fill="#1D2332"/>
<path d="M433.284 390.162C433.022 390.162 432.76 390.031 432.585 389.856C432.235 389.463 432.279 388.851 432.672 388.502C439.36 382.561 447.534 378.411 456.275 376.489C456.8 376.358 457.324 376.707 457.412 377.231C457.543 377.755 457.193 378.28 456.669 378.367C448.233 380.202 440.365 384.221 433.896 389.943C433.765 390.074 433.503 390.162 433.284 390.162Z" fill="#1D2332"/>
<path d="M421.133 390.511C420.958 390.511 420.783 390.468 420.609 390.38C420.171 390.075 420.04 389.507 420.303 389.07C425.023 381.687 431.011 375.353 438.049 370.155C438.486 369.849 439.098 369.936 439.404 370.373C439.71 370.81 439.622 371.422 439.185 371.727C432.323 376.751 426.509 382.954 421.92 390.118C421.745 390.38 421.439 390.511 421.133 390.511Z" fill="#1D2332"/>
<path d="M326.718 472.55L341.58 550.614L262.858 562.758C263.077 573.984 263.82 586.26 265.481 599.408C268.016 619.721 272.125 637.719 276.627 653.096C223.825 651.436 167.746 648.859 114.988 647.199L127.27 602.728L48.418 604.519C48.418 604.519 53.4883 577.479 60.0448 549.085C67.9563 514.88 96.5425 489.238 131.423 485.219C143.705 483.821 157.867 482.641 173.734 482.117C236.764 480.108 326.718 472.55 326.718 472.55Z" fill="#00AF9D"/>
<path d="M276.627 654.057C250.183 653.227 222.514 652.179 195.764 651.13C169.013 650.082 141.345 648.99 114.944 648.203C114.638 648.203 114.376 648.029 114.201 647.81C114.026 647.592 113.983 647.286 114.026 646.98L125.959 603.733L48.4181 605.48C48.1558 605.48 47.8498 605.349 47.675 605.131C47.5002 604.913 47.4127 604.607 47.4565 604.345C47.5002 604.083 52.5705 576.955 59.0833 548.91C67.0821 514.312 96.1055 488.364 131.292 484.301C144.929 482.729 159.179 481.68 173.69 481.2C235.977 479.146 325.757 471.677 326.675 471.589C327.156 471.545 327.593 471.895 327.68 472.375L342.541 550.439C342.585 550.701 342.541 550.963 342.367 551.181C342.235 551.4 341.973 551.531 341.711 551.574L263.82 563.587C264.082 575.513 264.956 587.526 266.443 599.321C268.715 617.362 272.475 635.36 277.545 652.834C277.632 653.14 277.589 653.445 277.37 653.707C277.195 653.926 276.933 654.057 276.627 654.057ZM116.212 646.281C142.219 647.111 169.494 648.16 195.808 649.164C222.121 650.169 249.308 651.261 275.316 652.047C270.376 634.88 266.705 617.188 264.519 599.496C262.99 587.352 262.115 574.989 261.897 562.714C261.897 562.233 262.246 561.84 262.727 561.753L340.443 549.827L325.975 473.555C316.578 474.341 232.83 481.156 173.778 483.078C159.31 483.559 145.104 484.607 131.51 486.136C97.1545 490.111 68.7868 515.491 60.9628 549.259C55.2368 573.984 50.6036 597.967 49.5545 603.471L127.227 601.68C127.489 601.68 127.839 601.811 128.014 602.029C128.188 602.248 128.276 602.597 128.188 602.859L116.212 646.281Z" fill="#1D2332"/>
<path d="M420.305 666.331H210.848V660.041C210.848 654.493 215.35 649.994 220.901 649.994H435.035L433.331 656.371C431.713 662.225 426.381 666.331 420.305 666.331Z" fill="#1D2332"/>
<path d="M426.291 658.905H299.882C294.506 658.905 290.528 653.838 291.84 648.596L315.705 552.36C316.623 548.647 319.945 546.069 323.748 546.069H450.157C455.533 546.069 459.511 551.137 458.199 556.379L434.334 652.614C433.416 656.328 430.094 658.905 426.291 658.905Z" fill="#1D2332"/>
<path d="M48.3775 604.519L43.7005 636.365C41.3402 652.441 53.9723 666.769 70.2324 666.42C136.365 666.42 202.455 666.376 268.587 666.376C268.325 659.78 266.883 648.902 260.151 638.243C250.055 622.299 234.844 613.125 222.561 612.514C180.687 610.373 123.952 614.916 123.952 614.916L127.317 603.122L48.3775 604.519Z" fill="white"/>
<path d="M69.6632 667.38C61.8392 667.38 54.4522 664.06 49.2508 658.163C43.9619 652.135 41.5578 644.14 42.738 636.234L47.415 604.388C47.5024 603.908 47.8958 603.558 48.3329 603.558L127.273 602.16C127.535 602.16 127.885 602.291 128.06 602.553C128.234 602.815 128.322 603.121 128.234 603.383L125.262 613.824C134.223 613.168 184.751 609.63 222.604 611.552C236.285 612.251 251.321 622.517 260.937 637.719C266.095 645.888 268.98 655.324 269.504 665.764C269.548 666.288 269.111 666.725 268.587 666.769C268.062 666.812 267.625 666.376 267.581 665.851C267.1 655.76 264.303 646.63 259.32 638.724C250.141 624.264 235.367 614.086 222.516 613.431C181.167 611.334 124.606 615.79 124.038 615.833C123.732 615.877 123.426 615.746 123.208 615.484C122.989 615.222 122.946 614.916 123.033 614.61L126.049 604.082L49.2508 605.48L44.7049 636.496C43.6122 643.878 45.8414 651.305 50.7369 656.896C55.6761 662.488 62.7571 665.589 70.2315 665.458H98.9488C99.4733 665.458 99.9104 665.895 99.9104 666.419C99.9104 666.943 99.4733 667.38 98.9488 667.38H70.2752C70.0566 667.38 69.8818 667.38 69.6632 667.38Z" fill="#1D2332"/>
<path d="M99.2975 617.013C98.773 617.013 98.3359 616.62 98.3359 616.095C98.3359 615.571 98.7293 615.134 99.2538 615.091C103.843 614.916 108.433 614.741 113.022 614.523C115.558 614.435 117.393 614.304 119.317 614.217C121.021 614.13 122.77 613.999 124.999 613.911C125.48 613.868 125.961 614.304 126.004 614.829C126.048 615.353 125.611 615.79 125.086 615.833C122.857 615.921 121.109 616.052 119.404 616.139C117.481 616.27 115.645 616.358 113.11 616.445C108.52 616.62 103.931 616.838 99.2975 617.013Z" fill="#1D2332"/>
<path d="M236.679 666.856H236.635C236.111 666.813 235.717 666.376 235.717 665.852C236.067 659.561 232.614 653.227 227.106 650.125C223.129 647.854 218.408 647.286 213.906 646.893C205.689 646.15 197.34 645.975 189.123 646.281C188.598 646.325 188.161 645.888 188.117 645.364C188.117 644.84 188.511 644.403 189.035 644.359C197.34 644.053 205.776 644.228 214.081 644.971C218.583 645.364 223.741 646.019 228.068 648.465C234.187 651.916 238.034 658.95 237.64 665.983C237.597 666.463 237.16 666.856 236.679 666.856Z" fill="#1D2332"/>
<path d="M250.579 667.205C250.011 667.205 249.617 666.768 249.617 666.201C249.792 658.425 247.126 650.474 242.187 644.402C237.291 638.33 230.035 634.049 222.386 632.651C221.862 632.564 221.512 632.04 221.599 631.516C221.687 630.991 222.211 630.642 222.736 630.729C230.866 632.214 238.471 636.758 243.673 643.179C248.874 649.601 251.715 657.988 251.541 666.244C251.541 666.768 251.103 667.205 250.579 667.205Z" fill="#1D2332"/>
<path d="M170.756 421.779C160.727 395.834 152.666 375.027 161.298 359.549C168.027 347.496 176.659 354.664 205.666 337.6C229.215 323.707 240.005 309.434 256.254 312.67C261.84 313.811 265.585 316.476 266.537 317.237C283.04 329.797 277.264 360.246 276.947 362.403C275.423 371.982 271.869 380.8 184.022 445.377C178.88 442.65 176.151 435.672 170.756 421.779Z" fill="#1D2332"/>
<path d="M190.497 413.723C178.945 435.799 167.456 457.938 155.904 480.014C158.316 485.215 165.235 498.41 180.088 505.071C198.178 513.19 223.123 509.448 226.487 499.235C227.121 497.268 228.327 490.988 216.204 479.252L231.755 434.784L190.497 413.723Z" fill="white"/>
<path d="M201.669 510.907C194.496 510.907 186.626 509.575 179.517 506.34C165.235 499.933 157.809 487.436 154.635 480.585C154.445 480.204 154.445 479.76 154.635 479.379L189.228 413.089C189.609 412.391 190.434 412.137 191.069 412.518L232.39 433.515C233.025 433.833 233.278 434.53 233.088 435.228L217.791 478.872C228.201 489.275 229.026 495.873 227.756 499.679C226.677 502.914 223.757 505.705 219.251 507.735C214.808 509.702 208.524 510.907 201.669 510.907ZM157.491 480.077C160.665 486.675 167.647 497.966 180.723 503.802C193.925 509.702 209.603 508.94 218.235 505.134C221.98 503.485 224.392 501.265 225.217 498.791C225.852 496.761 226.233 490.861 215.315 480.267C214.935 479.887 214.808 479.316 214.998 478.808L230.168 435.482L191.132 415.626L157.491 480.077Z" fill="#1D2332"/>
<path d="M263.865 408.458C262.913 418.29 260.184 428.186 254.408 436.306C248.695 444.426 239.746 450.515 229.844 451.403C221.275 452.165 212.642 448.929 205.914 443.601C199.186 438.272 194.235 430.914 190.744 423.048C181.794 423.619 172.781 417.465 170.179 408.838C168.655 403.89 169.29 398.054 172.781 394.184C176.272 390.315 182.873 389.3 186.745 392.725C188.967 394.692 190.109 397.673 192.394 399.513C194.933 401.543 198.678 401.86 201.789 400.845C204.899 399.83 207.565 397.673 209.85 395.326C217.086 387.904 221.465 377.755 221.973 367.415C221.91 368.366 226.416 371.157 227.178 371.728C229.146 373.06 231.24 374.266 233.462 375.281C237.778 377.247 242.411 378.516 247.108 379.023C249.52 379.277 251.932 379.34 254.281 379.15C256.185 379.023 258.915 378.008 260.755 378.516C264.627 379.594 263.802 386.889 263.929 389.871C264.373 396.087 264.437 402.304 263.865 408.458Z" fill="white"/>
<path d="M227.432 452.926C219.752 452.926 211.754 450.007 205.089 444.679C198.932 439.794 193.855 433.007 189.919 424.506C189.856 424.506 189.729 424.506 189.665 424.506C180.525 424.506 171.575 418.036 168.91 409.282C167.132 403.382 168.211 397.292 171.829 393.296C176.019 388.665 183.445 387.967 187.761 391.71C188.967 392.788 189.856 394.057 190.681 395.262C191.506 396.468 192.331 397.61 193.347 398.434C195.378 400.084 198.488 400.464 201.408 399.513C203.883 398.688 206.295 397.039 208.898 394.374C215.88 387.206 220.196 377.374 220.64 367.351C220.704 366.589 221.338 365.955 222.1 366.019C222.735 366.019 223.243 366.526 223.37 367.097C223.624 367.478 224.639 368.302 227.495 370.142C227.749 370.269 227.94 370.396 228.067 370.522C229.971 371.855 232.002 372.996 234.097 373.948C238.286 375.851 242.729 377.056 247.299 377.564C249.648 377.818 251.996 377.881 254.281 377.691C254.852 377.627 255.551 377.5 256.312 377.374C257.899 377.056 259.676 376.739 261.2 377.12C265.452 378.262 265.389 384.098 265.389 387.967C265.389 388.665 265.389 389.299 265.389 389.807C265.77 397.229 265.706 403.192 265.199 408.584C264.12 419.939 260.882 429.581 255.551 437.067C249.203 446.011 239.682 451.847 229.971 452.735C229.146 452.862 228.257 452.926 227.432 452.926ZM190.808 421.652C191.379 421.652 191.887 421.969 192.077 422.476C195.886 430.977 200.837 437.701 206.803 442.522C213.658 447.978 222.037 450.705 229.717 450.008C238.603 449.246 247.363 443.791 253.266 435.481C258.343 428.376 261.39 419.178 262.469 408.33C262.977 403.065 263.04 397.229 262.66 389.934C262.66 389.363 262.66 388.729 262.66 387.967C262.66 385.176 262.723 380.418 260.502 379.848C259.613 379.594 258.153 379.911 256.884 380.165C256.058 380.355 255.233 380.482 254.472 380.545C251.996 380.672 249.521 380.672 247.045 380.418C242.158 379.911 237.397 378.579 232.954 376.549C230.669 375.534 228.511 374.265 226.48 372.87L225.972 372.552C224.83 371.791 223.877 371.157 223.179 370.586C222.037 380.165 217.657 389.363 210.929 396.277C207.946 399.322 205.216 401.162 202.296 402.114C198.425 403.382 194.362 402.748 191.57 400.591C190.237 399.513 189.284 398.117 188.332 396.785C187.571 395.643 186.809 394.565 185.857 393.74C182.683 391.012 176.971 391.647 173.86 395.072C170.941 398.244 170.052 403.509 171.575 408.394C173.987 416.323 182.429 422.159 190.744 421.588C190.744 421.652 190.744 421.652 190.808 421.652Z" fill="#1D2332"/>
<path d="M181.349 403.953C185.983 405.032 189.728 409.028 190.49 413.722L181.349 403.953Z" fill="white"/>
<path d="M190.491 415.118C189.793 415.118 189.222 414.61 189.095 413.976C188.397 409.853 185.096 406.3 181.034 405.349C180.272 405.159 179.828 404.397 180.018 403.7C180.209 402.938 180.97 402.494 181.669 402.685C186.81 403.89 190.999 408.33 191.888 413.596C192.015 414.357 191.507 415.055 190.745 415.181C190.618 415.118 190.555 415.118 190.491 415.118Z" fill="#1D2332"/>
<path d="M211.635 414.484C208.969 411.756 207.382 408.013 207.191 404.017C207.001 400.02 208.207 396.151 210.619 393.169C213.031 390.124 216.395 388.411 220.076 388.221C223.758 388.031 227.249 389.49 229.978 392.281C232.644 395.009 234.231 398.751 234.421 402.748C234.802 411.121 229.026 418.163 221.536 418.543C221.346 418.543 221.156 418.543 220.965 418.543C217.474 418.543 214.237 417.148 211.635 414.484ZM228.011 394.248C225.853 392.027 223.123 390.885 220.267 391.012C217.411 391.139 214.745 392.535 212.841 394.945C210.873 397.356 209.857 400.528 210.048 403.89C210.175 407.188 211.508 410.297 213.666 412.517C215.824 414.737 218.553 415.879 221.409 415.752C227.376 415.499 231.946 409.726 231.629 402.875C231.502 399.576 230.232 396.468 228.011 394.248Z" fill="#1D2332"/>
<path d="M242.162 402.431C241.781 394.057 247.558 387.016 255.047 386.635C258.729 386.509 262.22 387.904 264.949 390.695C267.615 393.423 269.202 397.166 269.392 401.162C269.583 405.159 268.377 409.028 265.965 412.01C263.553 415.055 260.189 416.767 256.507 416.958C256.317 416.958 256.126 416.958 255.936 416.958C248.637 416.958 242.543 410.551 242.162 402.431ZM255.238 389.427C249.271 389.68 244.701 395.453 245.019 402.304C245.336 409.092 250.414 414.42 256.38 414.167C259.237 414.04 261.903 412.644 263.807 410.233C265.774 407.823 266.79 404.651 266.6 401.289C266.473 397.99 265.14 394.882 262.982 392.662C260.95 390.568 258.348 389.427 255.682 389.427C255.492 389.427 255.365 389.427 255.238 389.427Z" fill="#1D2332"/>
<path d="M233.025 404.207C233.342 404.207 233.66 404.08 233.977 403.89C234.167 403.7 238.738 399.83 242.673 403.382C243.244 403.89 244.133 403.89 244.641 403.319C245.148 402.748 245.148 401.86 244.577 401.352C239.944 397.166 234.421 399.83 232.2 401.797C231.629 402.304 231.565 403.192 232.073 403.763C232.263 404.08 232.644 404.207 233.025 404.207Z" fill="#1D2332"/>
<path d="M208.586 405.349C209.22 405.349 209.792 404.905 209.919 404.271C210.109 403.509 209.601 402.748 208.84 402.621L182.942 396.849C182.181 396.658 181.419 397.166 181.292 397.927C181.102 398.688 181.609 399.45 182.371 399.576L208.268 405.349C208.395 405.349 208.522 405.349 208.586 405.349Z" fill="#1D2332"/>
<path d="M238.419 404.918C237.949 407.2 237.746 409.518 237.815 411.836C237.673 413.789 238.372 415.718 239.774 417.248C240.607 417.987 241.831 418.583 241.994 419.62C241.994 420.091 241.84 420.551 241.551 420.948C241.262 421.346 240.85 421.663 240.362 421.865C239.413 422.286 238.497 422.76 237.619 423.285" stroke="#1D2332" stroke-width="3" stroke-linecap="round" stroke-linejoin="round"/>
<path d="M222.441 425.176C222.441 425.176 226.195 434.159 239.242 433.009" stroke="#1D2332" stroke-width="3" stroke-linecap="round" stroke-linejoin="round"/>
<path d="M223.619 403.178C223.619 405.105 222.49 406.667 220.994 406.667C219.498 406.667 218.369 405.105 218.369 403.178C218.369 401.25 219.524 399.669 220.994 399.669C222.464 399.669 223.619 401.25 223.619 403.178Z" fill="#1D2332"/>
<path d="M256.869 402.304C256.869 404.231 255.74 405.793 254.244 405.793C252.748 405.793 251.619 404.231 251.619 402.304C251.619 400.376 252.774 398.795 254.244 398.795C255.714 398.795 256.869 400.376 256.869 402.304Z" fill="#1D2332"/>
<path d="M693.456 644.534H557.353V540.544H583.881L592.806 549.964H693.456V644.534Z" fill="white"/>
<path d="M693.455 645.078H557.352C557.055 645.078 556.808 644.83 556.808 644.534V540.544C556.808 540.247 557.055 540 557.352 540H583.88C584.029 540 584.177 540.049 584.276 540.173L593.053 549.42H693.455C693.752 549.42 693.999 549.667 693.999 549.964V644.534C694.024 644.855 693.776 645.078 693.455 645.078ZM557.896 643.99H692.911V550.508H592.805C592.657 550.508 592.509 550.458 592.41 550.335L583.633 541.088H557.896V643.99Z" fill="black"/>
<path d="M682.551 655.461H546.448V551.447H572.976L581.901 560.891H682.551V655.461Z" fill="white"/>
<path d="M682.55 656.005H546.447C546.15 656.005 545.903 655.758 545.903 655.462V551.472C545.903 551.175 546.15 550.928 546.447 550.928H572.975C573.124 550.928 573.272 550.977 573.371 551.101L582.148 560.348H682.575C682.872 560.348 683.119 560.595 683.119 560.892V655.462C683.094 655.758 682.872 656.005 682.55 656.005ZM546.991 654.893H682.006V561.411H581.901C581.752 561.411 581.604 561.361 581.505 561.238L572.728 551.991H546.991V654.893Z" fill="black"/>
<path d="M671.648 666.365H535.545V562.351H562.073L570.998 571.795H671.648V666.365Z" fill="white"/>
<path d="M671.647 666.909H535.544C535.247 666.909 535 666.662 535 666.365V562.375C535 562.079 535.247 561.832 535.544 561.832H562.072C562.221 561.832 562.369 561.881 562.468 562.005L571.245 571.251H671.672C671.969 571.251 672.216 571.499 672.216 571.795V666.365C672.191 666.662 671.944 666.909 671.647 666.909ZM536.088 665.821H671.103V572.339H570.998C570.849 572.339 570.701 572.29 570.602 572.166L561.825 562.919H536.088V665.821Z" fill="black"/>
<path d="M619.33 632.74C619.181 632.74 619.058 632.691 618.934 632.592C618.712 632.369 618.712 632.023 618.934 631.825L633.027 617.733L618.934 603.64C618.712 603.417 618.712 603.071 618.934 602.873C619.157 602.651 619.503 602.651 619.701 602.873L634.189 617.362C634.411 617.584 634.411 617.93 634.189 618.128L619.701 632.617C619.602 632.691 619.478 632.74 619.33 632.74Z" fill="black"/>
<path d="M589.093 632.74C588.945 632.74 588.822 632.691 588.698 632.592L574.21 618.104C574.111 618.005 574.062 617.856 574.062 617.708C574.062 617.56 574.111 617.436 574.21 617.312L588.698 602.824C588.92 602.602 589.267 602.602 589.464 602.824C589.687 603.047 589.687 603.393 589.464 603.591L575.372 617.683L589.464 631.776C589.687 631.999 589.687 632.345 589.464 632.543C589.365 632.691 589.242 632.74 589.093 632.74Z" fill="black"/>
<path d="M596.487 633.086C596.413 633.086 596.314 633.061 596.24 633.037C595.968 632.888 595.869 632.567 595.992 632.295L611.098 602.601C611.247 602.329 611.568 602.23 611.84 602.354C612.112 602.502 612.211 602.824 612.087 603.096L596.981 632.789C596.882 632.987 596.685 633.086 596.487 633.086Z" fill="black"/>
</g>
<defs>
<clipPath id="clip0_3752_5344">
<rect width="1162" height="993" fill="white"/>
</clipPath>
<clipPath id="clip1_3752_5344">
<rect width="100.145" height="100.102" fill="white" transform="translate(816.971 164.974)"/>
</clipPath>
<clipPath id="clip2_3752_5344">
<rect width="98.9143" height="98.8718" fill="white" transform="translate(825.793 439.646)"/>
</clipPath>
</defs>
</svg>
