<svg width="773" height="206" viewBox="0 0 773 206" fill="none" xmlns="http://www.w3.org/2000/svg">
<path d="M147.443 93.3262L117.313 173.469L126.708 176.989L156.838 96.8469L147.443 93.3262Z" fill="#4F5865"/>
<path d="M153.639 118.582L170.121 135.213L153.639 151.649L160.643 158.644L184.324 135.213L160.652 111.597L153.639 118.582Z" fill="#4F5865"/>
<path d="M104.02 135.213L120.502 118.582L113.498 111.597L89.8167 135.213L113.489 158.644L120.502 151.649L104.02 135.213Z" fill="#4F5865"/>
<path d="M166.714 84.1446L196.445 135.352L166.705 186.365H107.613L77.8811 135.343L107.427 84.1353L166.714 84.1446ZM173.339 72.832H100.988L64.8545 135.186L100.988 197.539H173.153L209.333 135.186L173.339 72.832Z" fill="#4F5865"/>
<path d="M60.2133 0L0 103.713L40.5807 103.509L80.3276 35.0495H159.173L179.63 0H60.2133Z" fill="#00AF9D"/>
<path d="M150.012 42.9893H84.8789L52.0437 99.5522L68.2297 108.891L75.6139 96.2353L94.7276 61.6768H95.6263H95.6356H150.012V42.9893Z" fill="#00AF9D"/>
<path d="M172.718 7.68066H167.15V62.1033H172.718V7.68066Z" fill="#00AF9D"/>
<path d="M263.076 62.7336C264.215 64.5866 266.106 68.4038 266.106 77.1129C266.106 85.822 264.419 89.5929 263.076 91.4922C262.157 92.9078 260.894 94.0669 259.404 94.8609C257.915 95.6549 256.249 96.0579 254.561 96.032C252.868 96.1005 251.187 95.7158 249.692 94.9178C248.197 94.1197 246.942 92.9372 246.056 91.4922C244.916 89.6392 243.026 85.8127 243.026 77.1129C243.026 68.413 244.731 64.6236 246.056 62.7336C246.972 61.3169 248.233 60.1567 249.721 59.3624C251.209 58.5682 252.875 58.166 254.561 58.1937C257.211 58.379 260.621 58.9442 263.076 62.7336ZM252.291 88.0827C252.531 88.4736 252.864 88.7992 253.26 89.0304C253.656 89.2615 254.103 89.3911 254.561 89.4076C255.02 89.3911 255.467 89.2615 255.863 89.0304C256.259 88.7992 256.592 88.4736 256.831 88.0827C257.591 86.73 257.934 84.3025 257.934 77.1129C257.934 69.9232 257.554 67.4587 256.794 66.1338C256.554 65.7429 256.222 65.4173 255.826 65.1861C255.43 64.955 254.983 64.8254 254.524 64.8089C254.066 64.8254 253.619 64.955 253.223 65.1861C252.827 65.4173 252.494 65.7429 252.254 66.1338C251.504 67.4587 251.124 69.9232 251.124 77.1129C251.124 84.108 251.504 86.7578 252.254 88.0827" fill="#00AF9D"/>
<path d="M270.647 58.9351H290.512V65.4206H277.837V73.3607H282.757C284.841 73.3607 288.056 73.7405 290.326 76.0105C292.179 77.8635 292.976 81.1248 292.976 84.1452C292.976 87.5547 291.837 90.9549 289.946 92.8543C287.482 95.3095 284.462 95.3095 281.812 95.3095H270.842V58.9351H270.647ZM280.839 89.0093C281.5 89.0793 282.168 88.9962 282.791 88.7664C283.414 88.5366 283.977 88.1664 284.434 87.6844C285.09 86.5357 285.411 85.2261 285.36 83.9043C285.36 82.9778 285.36 81.4398 284.221 80.4947C283.346 79.763 282.239 79.3686 281.098 79.3829H277.883V89.0278L280.839 89.0093Z" fill="#00AF9D"/>
<path d="M294.862 89.2224C295.671 89.3761 296.495 89.4382 297.317 89.4077C298.436 89.4308 299.542 89.1694 300.532 88.648C301.251 88.0574 301.78 87.2678 302.052 86.378L302.237 85.8129L292.212 58.9351H300.551L304.34 72.3693C304.663 73.6795 304.913 75.0064 305.091 76.344H305.285C305.386 74.9952 305.638 73.6619 306.036 72.3693L309.427 58.9351H315.671L308.102 86.5633C307.342 89.2131 306.777 92.0482 304.702 93.753C302.959 95.2126 300.727 95.9546 298.457 95.8283C297.172 95.8405 295.893 95.6498 294.668 95.2632V89.2224H294.862Z" fill="#00AF9D"/>
<path d="M330.997 58.9351H338.409V95.2539H330.997V80.1427C329.311 80.4535 327.605 80.6424 325.892 80.7078C323.622 80.7078 320.213 80.1427 318.702 76.5478C317.776 74.4632 317.943 72.3786 317.943 70.3032V58.9351H325.355V70.8684C325.265 71.9118 325.464 72.9599 325.929 73.8981C326.265 74.2491 326.68 74.5159 327.139 74.6768C327.597 74.8378 328.088 74.8884 328.57 74.8246C329.427 74.8585 330.277 74.6634 331.034 74.2594L330.997 58.9351Z" fill="#00AF9D"/>
<path d="M356.727 58.9351L364.862 95.2632H357.293L355.782 87.5084H348.593L347.082 95.2632H340.458L348.797 58.9351H356.727ZM353.133 71.8134C352.688 69.8254 352.434 67.7996 352.373 65.7634C352.237 67.7313 351.987 69.6895 351.622 71.6281L349.723 81.6529H355.402L353.133 71.8134Z" fill="#00AF9D"/>
<path d="M374.518 58.9346V73.1379H378.298C378.484 69.5431 379.429 65.1885 380.948 62.7333C381.791 61.3333 382.985 60.1779 384.412 59.3816C385.839 58.5853 387.449 58.1757 389.083 58.1934C391.353 58.1934 394.568 58.7586 397.217 62.7333C398.922 65.1885 400.053 69.3578 400.053 77.1126C400.053 84.8674 398.922 88.8421 397.217 91.4919C396.372 92.8893 395.177 94.0427 393.751 94.8386C392.325 95.6346 390.716 96.0458 389.083 96.0317C387.438 96.1096 385.805 95.7256 384.367 94.9233C382.93 94.121 381.745 92.9324 380.948 91.4919C379.095 88.4622 378.104 83.3572 378.298 79.7624H374.518V95.4573H367.106V58.9346H374.518ZM386.618 88.0731C386.875 88.4921 387.239 88.8355 387.672 89.0683C388.105 89.301 388.592 89.4148 389.083 89.398C389.543 89.3974 389.996 89.2755 390.394 89.0445C390.793 88.8135 391.123 88.4817 391.353 88.0823C391.918 87.1558 392.483 85.0527 392.483 77.1126C392.483 69.3578 391.918 67.0878 391.353 66.1335C391.105 65.7495 390.771 65.4294 390.377 65.1992C389.982 64.9689 389.539 64.8351 389.083 64.8086C388.623 64.8166 388.172 64.9426 387.775 65.1746C387.377 65.4066 387.046 65.7368 386.813 66.1335C385.673 67.653 385.488 70.6734 385.488 77.1126C385.488 83.3572 385.673 86.3776 386.618 88.0823" fill="#00AF9D"/>
<path d="M420.674 72.9528C420.489 68.9781 420.109 67.4587 419.748 66.7082C419.477 66.1389 419.046 65.6606 418.508 65.3316C417.97 65.0026 417.348 64.8371 416.718 64.8552C416.197 64.8134 415.675 64.9147 415.208 65.1482C414.741 65.3818 414.347 65.7386 414.068 66.1801C413.503 66.9306 412.558 69.395 412.558 78.2802C412.558 83.1999 412.938 85.8497 413.484 87.3692C414.031 88.8886 414.995 89.4445 416.699 89.4445C417.363 89.4844 418.021 89.302 418.57 88.9262C419.119 88.5504 419.526 88.0026 419.729 87.3692C420.343 85.734 420.657 84.0015 420.656 82.2549L427.086 82.82C427.086 85.09 426.52 89.8244 423.871 92.8541C422.976 93.8783 421.87 94.6962 420.629 95.2513C419.388 95.8064 418.041 96.0854 416.681 96.069C415.05 96.1135 413.432 95.7775 411.954 95.0876C410.476 94.3977 409.179 93.3728 408.166 92.0943C404.951 87.9343 404.766 79.7997 404.766 77.1499C404.766 74.1202 404.951 66.7453 408.546 62.3907C409.521 61.1787 410.762 60.2073 412.173 59.5518C413.583 58.8963 415.126 58.5742 416.681 58.6106C418.008 58.5745 419.33 58.807 420.565 59.2942C421.801 59.7814 422.925 60.5132 423.871 61.4457C426.9 64.6606 427.465 69.7842 427.465 72.5637L420.674 72.9528Z" fill="#00AF9D"/>
<path d="M430.896 58.9351H438.308V73.1383H443.033C444.279 73.0855 445.521 73.3127 446.667 73.8034C447.814 74.294 448.835 75.0356 449.657 75.9734C450.037 76.5478 452.122 79.0031 452.122 84.8678C452.122 89.6022 450.602 92.0575 449.092 93.2063C447.008 95.0593 443.793 95.2817 441.523 95.2817H430.701V58.9351H430.896ZM440.541 89.0093C441.052 89.0597 441.567 89.0033 442.055 88.8438C442.544 88.6843 442.993 88.4252 443.376 88.0828C444.515 87.1563 444.515 85.6276 444.515 84.3027C444.515 83.1631 444.515 81.273 443.589 80.1427C443.202 79.7256 442.733 79.3927 442.212 79.1647C441.691 78.9368 441.128 78.8187 440.559 78.8178H438.289V89.0093H440.541Z" fill="#00AF9D"/>
<path d="M463.435 87.332H456.43V95.2814H463.435V87.332Z" fill="#00AF9D"/>
<path d="M502.025 58.9536V95.2725H494.65V65.3835H488.785V95.2725H481.216V58.9536H502.025Z" fill="#1D2332"/>
<path d="M507.704 58.9351H516.784C520.758 58.9351 523.973 59.1204 526.243 62.3353C527.724 64.7278 528.498 67.4899 528.476 70.3032C528.476 72.7585 527.911 76.5478 526.021 78.8178C523.556 82.0327 519.962 82.0327 517.127 82.0327H515.042V95.467H507.63L507.704 58.9351ZM516.784 75.3897C517.295 75.4401 517.811 75.3838 518.299 75.2243C518.787 75.0648 519.236 74.8056 519.619 74.4632C520.193 73.8981 520.758 72.6102 520.758 69.7288C520.827 68.2566 520.429 66.8003 519.619 65.5688C519.265 65.1754 518.825 64.8687 518.333 64.6727C517.842 64.4767 517.311 64.3965 516.784 64.4385H514.931V75.4082L516.784 75.3897Z" fill="#1D2332"/>
<path d="M550.65 62.7336C551.79 64.5866 553.68 68.4038 553.68 77.1129C553.68 85.822 551.975 89.5929 550.65 91.4922C549.731 92.9078 548.468 94.0669 546.979 94.8609C545.49 95.655 543.823 96.0579 542.136 96.0321C540.441 96.0993 538.76 95.7141 537.263 94.9163C535.767 94.1184 534.51 92.9366 533.621 91.4922C532.491 89.6392 530.601 85.8128 530.601 77.1129C530.601 68.4131 532.296 64.6237 533.621 62.7336C534.54 61.3174 535.803 60.1578 537.292 59.3637C538.781 58.5696 540.448 58.167 542.136 58.1938C543.827 58.1464 545.501 58.5401 546.994 59.3361C548.487 60.1321 549.747 61.303 550.65 62.7336ZM539.866 88.0827C540.106 88.4736 540.438 88.7992 540.834 89.0304C541.23 89.2616 541.677 89.3911 542.136 89.4076C542.6 89.418 543.057 89.2997 543.458 89.0659C543.859 88.832 544.187 88.4917 544.406 88.0827C545.165 86.7578 545.545 84.3026 545.545 77.1129C545.545 69.9233 545.156 67.4588 544.406 66.1339C544.166 65.7429 543.833 65.4173 543.437 65.1862C543.041 64.955 542.594 64.8254 542.136 64.809C541.672 64.7996 541.215 64.9183 540.814 65.1521C540.414 65.3858 540.086 65.7256 539.866 66.1339C539.115 67.4588 538.736 69.9233 538.736 77.1129C538.736 84.108 539.115 86.7578 539.866 88.0827Z" fill="#1D2332"/>
<path d="M565.593 73.7128H574.488V79.7628H565.593V88.8425H577.137V95.2725H558.218V58.9536H577.137V65.3835H565.593V73.7128Z" fill="#1D2332"/>
<path d="M588.106 73.1382H590.552C593.007 73.1382 593.387 71.628 593.582 70.8682C593.804 69.6821 593.928 68.4798 593.952 67.2734C594.008 65.609 594.263 63.9573 594.712 62.3537C595.069 61.2015 595.803 60.2029 596.797 59.5186C598.072 58.8337 599.511 58.5132 600.957 58.5921C601.674 58.5131 602.398 58.6452 603.041 58.972V64.6422H602.661C602.087 64.6422 601.142 64.8367 600.957 66.9121C600.771 68.237 600.771 68.9967 600.392 71.0721C600.242 72.2723 599.717 73.3945 598.891 74.2778C598.13 74.9704 597.225 75.4862 596.241 75.788V75.9733C597.116 76.0697 597.953 76.3796 598.68 76.8755C599.407 77.3715 600.001 78.0384 600.41 78.8176C601.132 80.5575 601.516 82.419 601.54 84.3025C601.735 87.1376 601.92 87.8973 602.3 88.4625C602.434 88.7297 602.664 88.9364 602.944 89.0412C603.224 89.146 603.534 89.1412 603.81 89.0277V95.2723C603.164 95.5805 602.448 95.7116 601.735 95.6521C599.836 95.6521 597.195 95.4668 595.87 92.817C594.944 91.1123 594.731 89.0277 594.351 84.4785C594.165 82.6255 593.971 81.2636 593.22 80.3185C592.884 79.9008 592.445 79.5767 591.947 79.3771C591.449 79.1776 590.908 79.1093 590.376 79.1789H587.921V95.263H580.731V58.9349H588.143L588.106 73.1382Z" fill="#1D2332"/>
<path d="M618.006 95.2725H610.436V65.7634H604.572V58.9536H624.056V65.7634H618.006V95.2725Z" fill="#1D2332"/>
<path d="M626.887 58.9351H633.706V75.0284C633.645 77.0676 633.391 79.0965 632.947 81.0877H633.132C633.538 79.6635 634.046 78.2701 634.651 76.9184L641.507 60.6491V58.9351H648.317V95.2539H641.507V78.058C641.484 76.0271 641.673 73.9994 642.073 72.008H641.887C640.748 75.2229 640.748 75.7881 640.368 76.5478L633.558 92.8172V95.2724H626.683V58.9351H626.887Z" fill="#1D2332"/>
<path d="M654.136 58.9351H663.215C667.19 58.9351 670.405 59.1204 672.675 62.3353C674.165 64.7185 674.952 67.474 674.945 70.2847C674.945 72.7399 674.38 76.5293 672.49 78.7992C670.025 82.0142 666.43 82.0142 663.595 82.0142H661.511V95.4485H654.099L654.136 58.9351ZM663.215 75.3897C663.726 75.4401 664.242 75.3838 664.73 75.2243C665.218 75.0648 665.668 74.8056 666.05 74.4632C666.625 73.8981 667.19 72.6102 667.19 69.7288C667.259 68.2566 666.86 66.8003 666.05 65.5688C665.696 65.1754 665.257 64.8687 664.765 64.6727C664.273 64.4767 663.743 64.3965 663.215 64.4385H661.362V75.4082L663.215 75.3897Z" fill="#1D2332"/>
<path d="M677.976 89.2224C678.785 89.3761 679.609 89.4382 680.431 89.4077C681.55 89.4308 682.656 89.1694 683.646 88.648C684.365 88.0574 684.894 87.2678 685.166 86.378L685.351 85.8129L675.326 58.9351H683.665L687.454 72.3693C687.777 73.6795 688.028 75.0064 688.205 76.344H688.399C688.496 74.994 688.751 73.66 689.159 72.3693L692.541 58.9351H698.785L691.216 86.5633C690.465 89.2131 689.891 92.0482 687.816 93.753C686.073 95.2126 683.841 95.9546 681.571 95.8283C680.286 95.8405 679.007 95.6498 677.782 95.2632V89.2224H677.976Z" fill="#1D2332"/>
<path d="M708.623 58.9346V73.1379H712.404C712.589 69.5431 713.543 65.1885 715.053 62.7333C715.896 61.3333 717.09 60.1779 718.517 59.3816C719.944 58.5853 721.554 58.1757 723.188 58.1934C725.458 58.1934 728.673 58.7586 731.323 62.7333C733.027 65.1885 734.158 69.3578 734.158 77.1126C734.158 84.8674 733.027 88.8421 731.323 91.4919C730.478 92.8899 729.283 94.0438 727.857 94.8399C726.431 95.6359 724.821 96.0467 723.188 96.0317C721.544 96.1085 719.911 95.7241 718.473 94.9219C717.036 94.1197 715.851 92.9317 715.053 91.4919C713.2 88.4622 712.218 83.3572 712.404 79.7624H708.623V95.4573H701.211V58.9346H708.623ZM720.918 88.0731C721.174 88.4907 721.536 88.8332 721.967 89.0659C722.399 89.2986 722.884 89.4131 723.373 89.398C723.836 89.3981 724.291 89.2755 724.692 89.0428C725.092 88.8101 725.423 88.4755 725.653 88.0731C726.218 87.1466 726.783 85.0434 726.783 77.1033C726.783 69.3485 726.218 67.0786 725.653 66.1243C725.403 65.7401 725.067 65.42 724.671 65.1898C724.275 64.9596 723.831 64.8259 723.373 64.7994C722.913 64.8073 722.463 64.9333 722.065 65.1653C721.668 65.3973 721.337 65.7275 721.103 66.1243C719.973 67.6437 719.778 70.6641 719.778 77.1033C719.593 83.3479 719.779 86.3683 720.918 88.0731Z" fill="#1D2332"/>
<path d="M746.65 87.3325H739.645V95.2819H746.65V87.3325Z" fill="#1D2332"/>
<path d="M265.163 116.656V152.975H257.593V123.086H251.728V152.975H244.354V116.656H265.163Z" fill="#1D2332"/>
<path d="M270.834 116.646H279.923C283.888 116.646 287.112 116.841 289.382 120.056C290.872 122.439 291.659 125.195 291.652 128.005C291.652 130.461 291.078 134.25 289.188 136.52C286.732 139.735 283.138 139.735 280.293 139.735H278.023V153.169H270.611V116.646H270.834ZM279.923 133.323C280.434 133.374 280.95 133.318 281.438 133.158C281.926 132.999 282.375 132.739 282.758 132.397C283.323 131.832 283.888 130.544 283.888 127.672C283.963 126.2 283.567 124.743 282.758 123.512C282.404 123.118 281.964 122.81 281.473 122.613C280.981 122.415 280.451 122.333 279.923 122.372H278.023V133.342L279.923 133.323Z" fill="#1D2332"/>
<path d="M313.787 120.621C314.917 122.474 316.816 126.301 316.816 135C316.816 143.7 315.111 147.49 313.787 149.38C312.868 150.796 311.605 151.955 310.116 152.75C308.626 153.544 306.96 153.946 305.272 153.92C303.577 153.991 301.894 153.607 300.397 152.809C298.899 152.011 297.643 150.827 296.757 149.38C295.627 147.527 293.728 143.71 293.728 135C293.728 126.291 295.433 122.52 296.757 120.621C297.676 119.206 298.94 118.046 300.429 117.252C301.918 116.458 303.584 116.055 305.272 116.081C306.972 115.975 308.669 116.344 310.172 117.145C311.676 117.947 312.927 119.15 313.787 120.621ZM303.002 145.785C303.228 146.188 303.558 146.523 303.957 146.757C304.356 146.99 304.81 147.113 305.272 147.113C305.734 147.113 306.188 146.99 306.587 146.757C306.986 146.523 307.316 146.188 307.542 145.785C308.302 144.46 308.672 142.005 308.672 134.815C308.672 127.625 308.302 125.161 307.542 123.845C307.316 123.442 306.986 123.107 306.587 122.873C306.188 122.64 305.734 122.517 305.272 122.517C304.81 122.517 304.356 122.64 303.957 122.873C303.558 123.107 303.228 123.442 303.002 123.845C302.242 125.161 301.862 127.625 301.862 134.815C301.862 142.005 302.242 144.46 303.002 145.785Z" fill="#1D2332"/>
<path d="M321.349 116.656H339.897V123.086H328.733V152.975H321.349V116.656Z" fill="#1D2332"/>
<path d="M343.297 116.646H352.376C356.351 116.646 359.566 116.841 361.836 120.056C363.331 122.437 364.118 125.194 364.106 128.005C364.106 130.461 363.541 134.25 361.651 136.52C359.195 139.735 355.601 139.735 352.756 139.735H350.681V153.169H343.269L343.297 116.646ZM352.376 133.323C352.889 133.375 353.406 133.32 353.896 133.16C354.386 133 354.837 132.741 355.221 132.397C355.786 131.832 356.351 130.544 356.351 127.672C356.426 126.2 356.03 124.743 355.221 123.512C354.866 123.117 354.424 122.808 353.931 122.611C353.438 122.413 352.906 122.331 352.376 122.372H350.523V133.342L352.376 133.323Z" fill="#1D2332"/>
<path d="M379.242 116.646L387.377 152.975H379.808L378.297 145.22H371.108L369.598 152.975H363.158L371.497 116.646H379.242ZM375.648 129.701C375.203 127.713 374.949 125.687 374.888 123.651C374.752 125.619 374.502 127.577 374.137 129.516L372.238 139.54H377.918L375.648 129.701Z" fill="#1D2332"/>
<path d="M389.647 116.646H399.839L402.674 131.971C403.239 134.621 403.6 140.115 403.813 142.385C404.024 138.645 404.529 134.927 405.324 131.267L408.353 116.693H418.406V152.975H411.216V132.351C411.216 126.486 411.401 129.516 411.596 121.381C411.216 124.596 410.271 130.646 410.077 131.971L405.731 152.975H400.997L396.837 131.6C396.457 129.701 396.272 127.431 395.327 121.196C395.512 123.651 395.512 128.95 395.512 131.22V152.789H389.647V116.646Z" fill="#1D2332"/>
<path d="M424.077 116.646H434.268L437.103 131.971C437.678 134.621 438.03 140.115 438.243 142.385C438.458 138.645 438.963 134.928 439.753 131.267L442.783 116.693H452.807V152.975H445.646V132.351C445.646 126.486 445.84 129.516 446.025 121.381C445.646 124.596 444.701 130.646 444.515 131.971L440.161 152.975H435.436L431.266 131.6C430.896 129.701 430.701 127.431 429.756 121.196C429.951 123.651 429.951 128.95 429.951 131.22V152.789H424.077V116.646Z" fill="#1D2332"/>
<path d="M458.516 116.646H465.326V132.731C465.27 134.77 465.015 136.799 464.566 138.79H464.761C465.159 137.364 465.664 135.971 466.271 134.621L473.081 118.351V116.841H479.891V153.169H473.081V135.945C473.058 133.915 473.247 131.887 473.646 129.895H473.461C472.321 133.11 472.321 133.676 471.951 134.435L465.141 150.705V153.169H458.322V116.646H458.516Z" fill="#1D2332"/>
<path d="M485.758 116.646H494.847C498.812 116.646 502.027 116.841 504.297 120.056C505.795 122.436 506.586 125.193 506.576 128.005C506.576 130.461 506.002 134.25 504.112 136.52C501.656 139.735 498.061 139.735 495.217 139.735H493.142V153.169H485.73L485.758 116.646ZM494.847 133.323C495.357 133.374 495.873 133.318 496.361 133.158C496.849 132.999 497.299 132.739 497.682 132.397C498.247 131.832 498.812 130.544 498.812 127.672C498.887 126.2 498.491 124.743 497.682 123.512C497.328 123.118 496.888 122.81 496.396 122.613C495.905 122.415 495.375 122.333 494.847 122.372H492.947V133.342L494.847 133.323Z" fill="#1D2332"/>
<path d="M509.593 146.952C510.405 147.106 511.232 147.168 512.058 147.137C513.176 147.16 514.283 146.899 515.273 146.377C515.992 145.789 516.518 144.999 516.783 144.108L516.977 143.542L506.943 116.674H515.282L519.062 130.108C519.392 131.417 519.646 132.744 519.822 134.083H520.007C520.114 132.734 520.369 131.401 520.767 130.108L524.176 116.674H530.412L522.851 144.302C522.092 146.952 521.526 149.787 519.442 151.492C517.7 152.952 515.467 153.694 513.197 153.567C511.915 153.58 510.639 153.389 509.417 153.002V146.952H509.593Z" fill="#1D2332"/>
<path d="M540.244 116.656V130.84H544.033C544.219 127.246 545.164 122.891 546.674 120.436C547.518 119.037 548.712 117.883 550.139 117.087C551.566 116.29 553.175 115.88 554.809 115.896C557.079 115.896 560.303 116.461 562.943 120.436C564.648 122.891 565.788 127.06 565.788 134.815C565.788 142.57 564.648 146.545 562.943 149.194C562.098 150.592 560.904 151.746 559.478 152.542C558.051 153.338 556.442 153.749 554.809 153.734C553.164 153.812 551.531 153.428 550.093 152.626C548.655 151.824 547.471 150.635 546.674 149.194C544.821 146.165 543.839 141.06 544.033 137.465H540.244V153.215H532.832V116.656H540.244ZM552.566 145.785C552.823 146.204 553.187 146.547 553.62 146.78C554.053 147.013 554.54 147.127 555.031 147.11C555.492 147.108 555.945 146.985 556.344 146.752C556.742 146.52 557.073 146.186 557.301 145.785C557.866 144.858 558.431 142.755 558.431 134.815C558.431 127.06 557.866 124.79 557.301 123.845C557.055 123.46 556.721 123.138 556.326 122.908C555.932 122.678 555.487 122.545 555.031 122.52C554.57 122.525 554.118 122.649 553.72 122.882C553.322 123.114 552.992 123.446 552.761 123.845C551.621 125.356 551.436 128.385 551.436 134.815C551.242 141.245 551.436 144.275 552.566 145.785Z" fill="#1D2332"/>
<path d="M578.265 145.034H571.27V152.984H578.265V145.034Z" fill="#1D2332"/>
<path d="M596.056 116.646H615.92V123.271H603.245V131.202H608.156C610.231 131.202 613.455 131.582 615.725 133.852C617.578 135.705 618.366 138.957 618.366 141.986C618.366 145.387 617.235 148.796 615.345 150.686C612.881 153.151 609.861 153.151 607.211 153.151H596.241V116.646H596.056ZM606.303 146.952C606.963 147.022 607.631 146.939 608.255 146.709C608.878 146.48 609.44 146.109 609.898 145.627C610.554 144.475 610.875 143.163 610.824 141.838C610.824 140.912 610.824 139.383 609.685 138.438C609.267 138.021 608.762 137.702 608.206 137.505C607.65 137.308 607.056 137.237 606.47 137.298H603.245V146.952H606.303Z" fill="#1D2332"/>
<path d="M620.273 146.952C621.082 147.106 621.906 147.168 622.729 147.137C623.847 147.161 624.954 146.899 625.944 146.378C626.662 145.787 627.191 144.997 627.463 144.108L627.648 143.543L617.809 116.489H626.147L629.927 129.923C630.257 131.232 630.511 132.559 630.687 133.898H630.873C630.979 132.549 631.234 131.216 631.632 129.923L635.033 116.489H641.277L633.717 144.108C632.957 146.758 632.392 149.602 630.307 151.297C628.569 152.765 626.334 153.51 624.063 153.382C622.781 153.395 621.505 153.204 620.283 152.817L620.273 146.952Z" fill="#1D2332"/>
<path d="M637.677 146.73H640.327C641.716 144.489 642.798 142.07 643.542 139.541C644.218 136.545 644.725 133.513 645.061 130.461C645.247 128.951 645.247 126.106 645.812 116.841H663.415V146.73H667.01V161.11H660.58V153.169H644.292V161.11H637.863V146.73H637.677ZM655.846 146.545V123.086H651.704C651.519 126.681 651.139 132.546 650.574 136.52C650.173 140.016 649.147 143.412 647.545 146.545H655.846Z" fill="#1D2332"/>
<path d="M669.305 146.952C670.117 147.106 670.943 147.168 671.769 147.137C672.888 147.161 673.994 146.899 674.984 146.378C675.704 145.79 676.23 144.999 676.494 144.108L676.689 143.543L666.849 116.489H675.188L678.977 129.923C679.3 131.233 679.55 132.56 679.728 133.898H679.922C680.019 132.548 680.274 131.214 680.682 129.923L684.082 116.489H690.327L682.757 144.108C681.998 146.758 681.432 149.602 679.357 151.297C677.618 152.764 675.384 153.51 673.113 153.382C671.828 153.394 670.549 153.203 669.323 152.817L669.305 146.952Z" fill="#1D2332"/>
<path d="M692.728 116.656H699.917V146.545H705.217V116.656H712.406V146.545H717.706V116.656H724.896V146.545H728.676V160.924H722.051V152.975H692.728V116.656Z" fill="#1D2332"/>
<path d="M738.7 131.415H747.409V137.65H738.7V146.545H750.059V152.975H731.14V116.656H750.059V123.086H738.7V131.415Z" fill="#1D2332"/>
<path d="M761.031 131.415H769.731V137.65H761.031V146.545H772.38V152.975H753.461V116.656H772.38V123.086H761.031V131.415Z" fill="#1D2332"/>
<path d="M41.9235 103.407C41.7289 103.407 41.7289 103.602 41.9235 103.407V103.407Z" fill="#00AF9D"/>
<path d="M42.1086 103.027C42.1099 103.052 42.106 103.077 42.0973 103.101C42.0885 103.124 42.0751 103.146 42.0578 103.164C42.0404 103.182 42.0196 103.197 41.9965 103.206C41.9734 103.216 41.9485 103.221 41.9233 103.221L42.1086 103.027Z" fill="#00AF9D"/>
<path d="M243 174.164H248.105C250.19 174.164 252.08 174.543 253.405 175.868C254.376 177.113 254.907 178.644 254.915 180.223C254.976 181.466 254.718 182.703 254.164 183.818C253.676 184.706 252.862 185.37 251.894 185.671C253.046 186.024 254.045 186.755 254.73 187.746C255.501 188.998 255.893 190.446 255.86 191.915C255.971 193.888 255.369 195.834 254.164 197.4C252.645 198.91 250.57 198.91 248.679 198.91H243V174.164ZM248.105 184.763C249.032 184.763 250.375 184.763 251.135 183.836C251.75 183.017 252.075 182.016 252.061 180.992C252.061 178.722 251.301 177.777 250.736 177.397C249.889 176.866 248.9 176.604 247.901 176.647H245.631V184.781L248.105 184.763ZM248.485 196.492C249.636 196.608 250.787 196.276 251.7 195.566C252.46 194.806 252.839 192.916 252.839 191.776C252.839 190.451 252.46 188.747 251.515 187.996C250.618 187.412 249.551 187.145 248.485 187.237H245.844V196.502L248.485 196.492Z" fill="#535762"/>
<path d="M266.645 186.458C266.586 185.243 266.195 184.067 265.514 183.058C265.025 182.541 264.369 182.213 263.661 182.132C263.242 182.1 262.822 182.189 262.453 182.39C262.083 182.59 261.779 182.893 261.577 183.262C261.197 183.836 260.65 185.347 260.65 189.127C260.65 192.907 260.836 194.991 261.577 195.936C261.807 196.28 262.116 196.564 262.479 196.762C262.842 196.96 263.248 197.068 263.661 197.076C264.101 197.066 264.532 196.958 264.924 196.761C265.317 196.564 265.661 196.282 265.931 195.936C266.351 194.967 266.662 193.954 266.858 192.916L269.313 193.296C269.166 195.017 268.522 196.659 267.46 198.021C266.979 198.47 266.414 198.819 265.796 199.046C265.179 199.274 264.523 199.376 263.865 199.346C262.31 199.339 260.818 198.728 259.705 197.641C258.779 196.715 257.852 194.806 257.852 190.072C257.852 184.781 259.177 182.66 260.122 181.557C261.082 180.653 262.332 180.119 263.649 180.051C264.966 179.983 266.264 180.385 267.312 181.187C268.442 182.113 269.007 184.022 269.165 185.912L266.645 186.458Z" fill="#535762"/>
<path d="M273.836 190.053C273.836 191.573 274.03 194.408 274.762 195.733C275.057 196.158 275.455 196.502 275.918 196.734C276.381 196.966 276.895 197.077 277.412 197.058C278.201 197.03 278.948 196.698 279.497 196.131C280.066 195.275 280.451 194.309 280.627 193.296L282.897 193.861C282.704 194.781 282.392 195.671 281.971 196.511C281.555 197.347 280.903 198.043 280.097 198.514C279.29 198.985 278.363 199.21 277.431 199.161C276.54 199.224 275.649 199.046 274.85 198.647C274.052 198.248 273.375 197.641 272.891 196.891C271.566 194.806 271.381 191.777 271.381 189.886C271.381 187.237 271.76 184.022 273.234 182.132C273.65 181.461 274.238 180.914 274.937 180.547C275.636 180.181 276.42 180.008 277.208 180.047C278.001 179.982 278.798 180.118 279.525 180.442C280.252 180.766 280.886 181.267 281.368 181.9C282.508 183.42 283.221 185.689 283.221 190.035L273.836 190.053ZM280.08 187.978C280.183 186.487 279.925 184.994 279.33 183.623C279.101 183.221 278.769 182.886 278.369 182.654C277.969 182.421 277.514 182.298 277.051 182.298C276.591 182.307 276.141 182.434 275.743 182.666C275.346 182.897 275.015 183.227 274.781 183.623C274.191 184.932 273.876 186.348 273.854 187.783H280.127L280.08 187.978Z" fill="#535762"/>
<path d="M285.946 180.593H288.411V183.623C288.591 182.783 288.979 182.003 289.541 181.353C289.88 180.99 290.29 180.702 290.747 180.508C291.203 180.313 291.695 180.216 292.191 180.223C292.947 180.21 293.694 180.394 294.357 180.758C295.02 181.122 295.576 181.653 295.971 182.298C297.296 184.151 297.676 187.412 297.676 189.488C297.713 191.888 297.262 194.271 296.351 196.492C295.981 197.336 295.373 198.054 294.601 198.558C293.829 199.062 292.927 199.329 292.006 199.327C291.117 199.396 290.237 199.124 289.541 198.568C289.117 198.168 288.738 197.724 288.411 197.243V205.377H285.761V180.593H285.946ZM288.596 191.572C288.596 193.083 288.596 194.602 289.523 195.732C289.748 196.124 290.083 196.44 290.487 196.643C290.89 196.845 291.344 196.925 291.793 196.872C292.301 196.861 292.798 196.714 293.231 196.447C293.664 196.18 294.018 195.802 294.257 195.353C294.822 194.426 295.007 191.193 295.007 189.488C295.007 188.163 295.007 185.143 294.081 183.623C293.906 183.221 293.615 182.88 293.245 182.644C292.876 182.408 292.444 182.288 292.006 182.298C291.57 182.323 291.143 182.438 290.753 182.634C290.363 182.83 290.016 183.103 289.736 183.438C288.976 184.364 288.596 186.458 288.596 188.163V191.572Z" fill="#535762"/>
<path d="M310.161 181.733C311.866 183.817 312.246 187.218 312.246 189.682C312.246 192.517 311.671 195.917 310.161 197.622C309.176 198.667 307.817 199.28 306.381 199.327C305.665 199.324 304.958 199.17 304.305 198.877C303.652 198.583 303.069 198.156 302.591 197.622C301.081 195.917 300.507 192.703 300.507 189.682C300.507 187.403 300.887 183.817 302.591 181.733C303.053 181.18 303.634 180.74 304.29 180.444C304.946 180.149 305.661 180.007 306.381 180.028C307.098 180.011 307.81 180.156 308.465 180.451C309.119 180.746 309.698 181.184 310.161 181.733ZM303.731 194.787C303.83 195.418 304.151 195.992 304.636 196.407C305.121 196.821 305.738 197.049 306.376 197.049C307.014 197.049 307.632 196.821 308.116 196.407C308.601 195.992 308.922 195.418 309.021 194.787C309.41 193.113 309.603 191.4 309.596 189.682C309.614 187.96 309.421 186.243 309.021 184.568C308.922 183.937 308.601 183.363 308.116 182.948C307.632 182.534 307.014 182.306 306.376 182.306C305.738 182.306 305.121 182.534 304.636 182.948C304.151 183.363 303.83 183.937 303.731 184.568C303.331 186.243 303.138 187.96 303.157 189.682C303.149 191.4 303.342 193.113 303.731 194.787Z" fill="#535762"/>
<path d="M323.98 186.458C323.913 185.252 323.519 184.086 322.84 183.086C322.352 182.567 321.695 182.239 320.987 182.159C320.568 182.127 320.148 182.217 319.779 182.417C319.409 182.618 319.105 182.921 318.903 183.29C318.523 183.864 317.976 185.374 317.976 189.155C317.976 192.935 318.171 195.019 318.903 195.964C319.133 196.308 319.442 196.591 319.805 196.79C320.168 196.988 320.574 197.096 320.987 197.104C321.427 197.095 321.859 196.988 322.251 196.791C322.644 196.594 322.988 196.312 323.257 195.964C323.681 194.997 323.992 193.983 324.184 192.944L326.639 193.324C326.492 195.045 325.848 196.686 324.786 198.049C324.305 198.498 323.74 198.847 323.122 199.074C322.505 199.302 321.848 199.404 321.191 199.374C319.636 199.365 318.145 198.754 317.031 197.669C316.105 196.743 315.178 194.834 315.178 190.1C315.178 184.809 316.503 182.688 317.448 181.585C318.408 180.68 319.658 180.147 320.975 180.079C322.292 180.011 323.59 180.413 324.638 181.214C325.768 182.141 326.343 184.05 326.491 185.94L323.98 186.458Z" fill="#535762"/>
<path d="M337.217 186.458C337.159 185.241 336.765 184.064 336.078 183.058C335.591 182.538 334.933 182.209 334.225 182.132C333.807 182.099 333.388 182.189 333.019 182.389C332.651 182.59 332.349 182.893 332.149 183.262C331.769 183.836 331.223 185.347 331.223 189.127C331.223 192.907 331.408 194.991 332.149 195.936C332.376 196.281 332.684 196.565 333.045 196.764C333.407 196.963 333.812 197.07 334.225 197.076C334.664 197.067 335.096 196.961 335.489 196.763C335.882 196.566 336.225 196.284 336.495 195.936C336.919 194.969 337.23 193.955 337.421 192.916L339.886 193.296C339.734 195.016 339.091 196.657 338.033 198.021C337.551 198.469 336.986 198.817 336.368 199.045C335.751 199.272 335.095 199.375 334.438 199.346C332.88 199.337 331.387 198.726 330.269 197.641C329.342 196.715 328.416 194.806 328.416 190.072C328.416 184.781 329.74 182.66 330.685 181.557C331.645 180.653 332.895 180.119 334.212 180.051C335.529 179.983 336.827 180.385 337.875 181.187C339.015 182.113 339.58 184.022 339.728 185.912L337.217 186.458Z" fill="#535762"/>
<path d="M342.703 180.603H345.159V191.952L344.973 194.028L345.918 192.137L350.653 181.548V180.603H353.303V198.947H350.653V187.412L350.838 185.522L350.078 187.412L345.159 197.632V198.947H342.703V180.603Z" fill="#535762"/>
<path d="M357.843 180.594H360.484V192.138L360.298 193.991L361.058 192.138L365.978 181.548V180.408H368.628V198.762H365.978V187.413L366.163 185.328L365.404 187.413L360.484 197.604V198.744H357.843V180.594ZM367.303 174.543C367.318 175.069 367.225 175.592 367.029 176.08C366.833 176.568 366.538 177.01 366.163 177.379C365.762 177.764 365.287 178.064 364.766 178.26C364.245 178.456 363.69 178.544 363.134 178.518C361.954 178.575 360.799 178.165 359.919 177.379C359.198 176.61 358.794 175.597 358.788 174.543H361.058C361.047 175.134 361.177 175.718 361.438 176.248C361.609 176.489 361.836 176.686 362.099 176.821C362.361 176.957 362.653 177.027 362.948 177.027C363.244 177.027 363.535 176.957 363.798 176.821C364.061 176.686 364.287 176.489 364.458 176.248C364.632 176.004 364.755 175.727 364.82 175.434C364.886 175.141 364.892 174.839 364.838 174.543H367.303Z" fill="#535762"/>
<path d="M380.922 186.458C380.864 185.241 380.47 184.064 379.783 183.058C379.296 182.538 378.638 182.209 377.93 182.132C377.512 182.099 377.093 182.189 376.725 182.389C376.356 182.59 376.054 182.893 375.854 183.262C375.475 183.836 374.928 185.347 374.928 189.127C374.928 192.907 375.122 194.991 375.854 195.936C376.081 196.281 376.389 196.565 376.751 196.764C377.112 196.963 377.517 197.07 377.93 197.076C378.369 197.067 378.801 196.961 379.194 196.763C379.587 196.566 379.93 196.284 380.2 195.936C380.624 194.969 380.935 193.955 381.126 192.916L383.591 193.296C383.439 195.016 382.796 196.657 381.738 198.021C381.256 198.469 380.691 198.817 380.073 199.045C379.456 199.272 378.8 199.375 378.143 199.346C376.585 199.338 375.091 198.727 373.974 197.641C373.047 196.715 372.121 194.806 372.121 190.072C372.121 184.781 373.445 182.66 374.391 181.557C375.35 180.653 376.6 180.119 377.917 180.051C379.234 179.983 380.533 180.385 381.58 181.187C382.72 182.113 383.285 184.022 383.433 185.912L380.922 186.458Z" fill="#535762"/>
<path d="M386.221 198.947V180.593H388.862V188.163H390.566C391.01 188.195 391.448 188.057 391.793 187.776C392.137 187.495 392.362 187.093 392.419 186.653C392.614 186.087 392.614 185.328 392.799 184.383C392.835 183.614 392.963 182.852 393.179 182.113C393.289 181.591 393.574 181.123 393.987 180.786C394.4 180.449 394.916 180.263 395.449 180.26C395.644 180.26 396.209 180.445 396.376 180.445V182.53C396.116 182.54 395.86 182.603 395.625 182.715C395.314 183.226 395.18 183.825 395.245 184.42C395.196 185.374 395.069 186.322 394.865 187.255C394.74 187.696 394.503 188.097 394.179 188.422C393.855 188.746 393.453 188.982 393.012 189.108C393.587 189.286 394.093 189.635 394.464 190.108C394.835 190.582 395.053 191.157 395.088 191.758C395.468 193.277 395.468 195.167 395.662 196.112C395.848 196.298 396.033 197.039 396.978 196.677V198.762C396.626 198.93 396.234 198.994 395.848 198.947C393.995 198.947 393.578 197.622 393.198 196.872C392.889 195.63 392.7 194.361 392.633 193.083C392.55 192.303 392.36 191.54 392.067 190.813C391.901 190.628 391.696 190.482 391.467 190.384C391.238 190.287 390.991 190.24 390.743 190.247H389.038V198.762H386.203L386.221 198.947Z" fill="#535762"/>
<path d="M399.273 180.603H401.914V191.952L401.728 194.028L402.488 192.137L407.399 181.548V180.603H409.863V198.947H407.399V187.412L407.593 185.522L406.648 187.412L401.914 197.632V198.947H399.273V180.603Z" fill="#535762"/>
<path d="M414.402 180.594H417.052V192.138L416.867 193.991L417.617 192.138L422.537 181.548V180.408H425.187V198.762H422.537V187.413L422.732 185.328L421.972 187.413L417.052 197.604V198.744H414.402V180.594ZM423.862 174.543C423.877 175.068 423.785 175.59 423.59 176.078C423.396 176.566 423.104 177.008 422.732 177.379C422.33 177.764 421.855 178.064 421.334 178.26C420.813 178.456 420.258 178.543 419.702 178.518C418.522 178.575 417.368 178.165 416.487 177.379C415.76 176.613 415.353 175.599 415.347 174.543H417.617C417.611 175.133 417.741 175.717 417.997 176.248C418.175 176.481 418.405 176.669 418.667 176.799C418.93 176.928 419.219 176.996 419.512 176.996C419.805 176.996 420.094 176.928 420.357 176.799C420.619 176.669 420.849 176.481 421.027 176.248C421.369 175.751 421.505 175.139 421.407 174.543H423.862Z" fill="#535762"/>
<path d="M436.35 180.603H439.185L441.65 186.838L443.92 180.603H446.375L442.78 189.117L447.135 198.947H444.29L441.455 191.572L438.426 198.947H435.776L440.13 189.117L436.35 180.603Z" fill="#535762"/>
<path d="M457.728 198.947C457.451 198.092 457.323 197.196 457.348 196.298C457.143 197.115 456.682 197.845 456.033 198.382C455.226 199.022 454.217 199.351 453.188 199.309C451.876 199.279 450.611 198.812 449.593 197.984C448.65 196.883 448.175 195.456 448.268 194.009C448.268 190.414 450.121 188.904 451.483 188.339C453.223 187.633 455.111 187.372 456.978 187.579C456.978 185.309 456.978 183.984 456.403 183.225C456.146 182.928 455.827 182.691 455.469 182.53C455.11 182.37 454.72 182.291 454.328 182.298C453.836 182.281 453.35 182.395 452.917 182.628C452.484 182.861 452.12 183.204 451.863 183.623C451.522 184.267 451.329 184.98 451.298 185.708L448.843 185.133C449.056 183.856 449.646 182.672 450.538 181.733C451.089 181.204 451.745 180.796 452.463 180.536C453.181 180.276 453.946 180.169 454.708 180.223C455.82 180.242 456.916 180.498 457.923 180.973C459.776 182.298 459.776 184.383 459.776 187.218V194.63C459.756 196.084 459.818 197.538 459.961 198.985L457.728 198.947ZM452.058 190.813C451.468 191.714 451.147 192.765 451.131 193.842C451.09 194.723 451.355 195.591 451.882 196.298C452.348 196.737 452.949 197.005 453.587 197.057C454.14 197.036 454.678 196.866 455.144 196.566C455.61 196.267 455.987 195.847 456.236 195.353C456.996 193.842 457.163 191.952 457.163 189.488C455.078 189.488 453.188 189.682 452.058 190.813Z" fill="#535762"/>
<path d="M463.972 198.947V180.593H466.622V188.163H468.326C468.77 188.195 469.208 188.057 469.553 187.776C469.897 187.495 470.122 187.093 470.179 186.653C470.365 186.088 470.365 185.328 470.559 184.383C470.61 183.627 470.753 182.88 470.986 182.159C471.094 181.637 471.379 181.168 471.792 180.83C472.205 180.493 472.722 180.308 473.255 180.306C473.441 180.306 474.006 180.491 474.182 180.491V182.576C473.919 182.587 473.661 182.65 473.422 182.761C473.116 183.274 472.983 183.872 473.042 184.466C473.003 185.421 472.876 186.37 472.663 187.301C472.538 187.743 472.303 188.145 471.978 188.47C471.654 188.794 471.251 189.03 470.81 189.154C471.384 189.333 471.891 189.682 472.264 190.155C472.636 190.628 472.856 191.203 472.894 191.804C473.274 193.323 473.274 195.214 473.459 196.159C473.645 196.344 473.839 197.085 474.784 196.724V198.808C474.429 198.976 474.034 199.04 473.645 198.994C471.792 198.994 471.375 197.669 471.004 196.918C470.691 195.677 470.498 194.408 470.43 193.129C470.356 192.348 470.165 191.583 469.864 190.859C469.698 190.674 469.494 190.527 469.265 190.43C469.036 190.332 468.788 190.286 468.54 190.294H466.835V198.808H464L463.972 198.947Z" fill="#535762"/>
<path d="M485.725 198.947C485.455 198.091 485.33 197.195 485.355 196.298C485.142 197.114 484.679 197.843 484.03 198.382C483.224 199.024 482.214 199.353 481.185 199.309C479.873 199.279 478.609 198.812 477.591 197.984C476.648 196.883 476.172 195.456 476.266 194.009C476.266 190.414 478.119 188.904 479.49 188.339C481.226 187.633 483.112 187.372 484.975 187.579C484.975 185.309 484.975 183.984 484.41 183.225C484.15 182.928 483.829 182.692 483.469 182.532C483.109 182.372 482.719 182.292 482.325 182.298C481.834 182.281 481.347 182.395 480.914 182.628C480.481 182.861 480.118 183.204 479.861 183.623C479.524 184.269 479.331 184.98 479.295 185.708L476.84 185.133C477.053 183.856 477.644 182.672 478.536 181.733C479.087 181.204 479.742 180.796 480.46 180.536C481.178 180.276 481.943 180.169 482.705 180.223C483.818 180.242 484.914 180.498 485.92 180.973C487.773 182.298 487.773 184.383 487.773 187.218V194.63C487.753 196.084 487.815 197.538 487.958 198.985L485.725 198.947ZM480.055 190.813C479.469 191.716 479.148 192.766 479.129 193.842C479.087 194.723 479.352 195.591 479.879 196.298C480.345 196.737 480.946 197.005 481.584 197.057C482.138 197.036 482.675 196.866 483.141 196.566C483.607 196.267 483.984 195.847 484.234 195.353C484.993 193.842 485.16 191.952 485.16 189.488C483.085 189.488 481.185 189.682 480.055 190.813Z" fill="#535762"/>
<path d="M493.673 182.678H489.133V180.603H500.677V182.678H496.128V198.947H493.673V182.678Z" fill="#535762"/>
<path d="M511.27 181.733C512.974 183.817 513.354 187.218 513.354 189.682C513.354 192.517 512.78 195.917 511.27 197.622C510.284 198.667 508.925 199.28 507.49 199.327C506.774 199.324 506.067 199.17 505.414 198.877C504.761 198.583 504.177 198.156 503.7 197.622C502.19 195.917 501.625 192.703 501.625 189.682C501.625 187.403 501.995 183.817 503.7 181.733C504.161 181.18 504.742 180.74 505.399 180.444C506.055 180.149 506.77 180.007 507.49 180.028C508.925 180.075 510.284 180.688 511.27 181.733ZM504.645 194.787C504.738 195.424 505.056 196.006 505.543 196.427C506.03 196.848 506.651 197.08 507.295 197.08C507.938 197.08 508.56 196.848 509.047 196.427C509.534 196.006 509.852 195.424 509.945 194.787C510.33 193.113 510.52 191.4 510.51 189.682C510.531 187.961 510.341 186.243 509.945 184.568C509.842 183.938 509.52 183.364 509.035 182.949C508.55 182.533 507.933 182.303 507.295 182.298C506.671 182.35 506.079 182.598 505.604 183.005C505.128 183.412 504.793 183.959 504.645 184.568C504.249 186.243 504.059 187.961 504.08 189.682C504.07 191.4 504.26 193.113 504.645 194.787Z" fill="#535762"/>
<path d="M516.938 180.603H519.588V188.163H524.888V180.603H527.538V198.947H524.888V190.433H519.588V198.947H516.938V180.603Z" fill="#535762"/>
</svg>
